<?xml version="1.0" encoding="utf-8"?>
<!-- Generator: Adobe Illustrator 15.0.2, SVG Export Plug-In  -->
<!DOCTYPE svg PUBLIC "-//W3C//DTD SVG 1.1//EN" "http://www.w3.org/Graphics/SVG/1.1/DTD/svg11.dtd" [
	<!ENTITY ns_flows "http://ns.adobe.com/Flows/1.0/">
]>
<svg version="1.1"
	 xmlns="http://www.w3.org/2000/svg" xmlns:xlink="http://www.w3.org/1999/xlink" xmlns:a="http://ns.adobe.com/AdobeSVGViewerExtensions/3.0/"
	 x="0px" y="0px" width="700px" height="700px" viewBox="-79.631 -14.601 700 700"
	 overflow="visible" enable-background="new -79.631 -14.601 700 700" xml:space="preserve">
<defs>
</defs>
<path fill="none" stroke="#B5AEB0" stroke-width="2" stroke-miterlimit="10" d="M11.051,107.536l24.142,50.257
	c0,0,0,23.376,4.829,36.702c0,0,5.465,49.628,15.407,64.333c0,0,2.699,21.597,7.527,33.545c0,0,6.007,24.627,3.466,31.092
	c-0.363,0.923-0.901,1.477-1.655,1.534"/>
<path fill="none" stroke="#B5AEB0" stroke-width="2" stroke-miterlimit="10" d="M169.18,327.298c0,0-4.829-9.65-3.622-17.922
	c0,0,3.621-10.568-4.225-21.138c0,0-1.811-12.407,3.923-17.922c0,0,14.787-12.866,26.858-35.843c0,0,17.93-17.822,19.917-23.895
	l0.274-1.838c0,0,5.158-13.785,8.78-14.705c0,0,5.432-5.056,7.242-8.272c0,0,11.467-5.514,13.278-11.488
	c1.811-5.974,0-1.838,0-1.838s19.917-12.289,22.331-14.646c0,0-3.017-16.602-39.23-4.195c0,0-11.467,5.514-19.313,19.759
	l-19.917,18.381c0,0-6.639,9.19-13.278-6.433c0,0,2.747-3.029-3.018-12.867l2.414-33.085c0,0,19.917-50.088,17.503-58.36
	c0,0,19.313-43.195,2.414-54.683c0,0-15.692-8.73-23.539,21.598c0,0-1.207,19.76-4.225,20.219c0,0-9.656,17.921-10.26,25.273
	c0,0-15.692,41.817-18.709,25.733c0,0-6.41-3.216-1.582-22.976c0,0,1.457-12.867-1.8-32.167c0,0-1.447-50.548-12.311-61.117
	c0,0-15.089-8.731-18.106,11.488c0,0,2.414,51.467,0,56.062c0,0,1.811,38.6,0,44.574c0,0-1.207,17.921-9.657,1.838
	c0,0-4.225-33.085-11.467-45.952c0,0-4.829-15.624-6.036-26.652c0,0-4.224-31.248-16.295-28.031c0,0-19.313,2.757-7.243,42.276
	c0,0,7.243,28.491,6.036,40.438c0,0,15.088,49.169,0.604,39.06c0,0-7.938-3.677-10.608-17.003c0,0,0,0-6.292-8.271
	c0,0-15.506-21.58-20.521-35.383c0,0-8.892-20.679-17.503-0.919c0,0-5.432,11.029,9.053,30.789"/>
<path fill="none" stroke="#B5AEB0" stroke-width="2" stroke-miterlimit="10" d="M393.416,278.881c0,0,1.812-3.216-6.035-6.433
	c0,0-13.881-1.838-25.349-21.598l-32.591-31.248c0,0-9.657-11.947-15.09-17.461c0,0-18.709-20.679-19.916-26.193
	c0,0-26.557-13.363-4.828-23.914c0,0,11.467-6.415,30.78,6.452c0,0,16.296,11.948,21.728,24.355c0,0,31.385,26.652,38.627-15.164
	c0,0-0.604-33.086,3.621-39.979l2.415-41.816c0,0,1.205-14.705-1.812-18.381c0,0-5.07-37.222,8.63-39.06
	c0,0,12.078-4.595,13.547,11.029c0,0,8.001,27.77,5.587,32.496c0,0,5.432,25.863,3.621,36.892c0,0,1.207,17.462,6.035,20.679
	c0,0,3.621-10.569,0-27.112c0,0,2.615-25.075,1.609-30.459c0,0,1.466-12.736,0.229-25.144c0,0-2.441-33.085,11.439-34.464
	c0,0,13.882-2.298,16.899,12.866l3.017,20.679c0,0,1.812,10.109,0,13.786c0,0-1.474,14.693,0.805,21.598c0,0,1.408,18.381,0,21.598
	l2.213,28.031"/>
<path fill="none" stroke="#B5AEB0" stroke-width="2" stroke-miterlimit="10" d="M492.211,62.128c0,0,0.79,10.427,0.79,14.103
	c0,0,0,16.6,0,14.705c0-14.705,0,0,0,0s1.957,5.055,0.677,17.002c0,0-3.684,20.679,0.234,32.626c0,0,3.314,8.271,5.729-14.245
	l4.828-18.381l3.621-17.462c0,0,0-17.002,9.053-20.678c9.054-3.676,0,0,0,0s4.601-4.892,11.612,5.136l0.459,13.704
	c0,0,1.81,10.11-3.018,22.058l-3.622,26.652c0,0-1.206,22.517-7.242,42.735c-3.016,58.796-3.261,59.339-17.502,89.607"/>
<path fill="none" stroke="#B5AEB0" stroke-width="2" stroke-miterlimit="10" d="M458.599,129.077c0,0,4.829-7.812,4.226-21.138
	c0,0-1.706-11.028,0.052-21.598c0,0,1.351-10.567,0-19.759l4.776-26.193c0,0,10.864-20.219,22.331,0l2.124,21.708"/>
<path fill="none" stroke="#B5AEB0" stroke-width="2" stroke-miterlimit="10" d="M156.505,281.805c0,0-6.639,7.812-20.521,5.974"/>
<path fill="none" stroke="#B5AEB0" stroke-width="2" stroke-miterlimit="10" d="M146.849,281.805c0,0-7.846,5.515-30.177,0
	c0,0-7.243,3.676-15.089,0c0,0-23.538,2.757-27.159,0"/>
<path fill="none" stroke="#B5AEB0" stroke-width="2" stroke-miterlimit="10" d="M161.521,185.163c0,0,12.674,9.65,18.71,9.65"/>
<path fill="none" stroke="#B5AEB0" stroke-width="2" stroke-miterlimit="10" d="M138.728,176.896c0,0-35.938,11.626-13.004,90.205"
	/>
<path fill="none" stroke="#B5AEB0" stroke-width="2" stroke-miterlimit="10" d="M128.401,157.793c0,0-66.049,17.862-75.102,27.971"
	/>
<path fill="none" stroke="#B5AEB0" stroke-width="2" stroke-miterlimit="10" d="M169.18,172.439c0,0-4.134,1.131-18.567-5.645
	c0,0-3.161-1.049-7.989,0c0,0-29.574,8.402-58.544,31.378"/>
<path fill="none" stroke="#B5AEB0" stroke-width="2" stroke-miterlimit="10" d="M180.23,65.37c0,0-6.452,0.46-9.355-2.757"/>
<path fill="none" stroke="#B5AEB0" stroke-width="2" stroke-miterlimit="10" d="M175.553,94.78c0,0-9.017,1.123-14.032-2.425"/>
<path fill="none" stroke="#B5AEB0" stroke-width="2" stroke-miterlimit="10" d="M170.875,100.294c0,0-4.943-3.217-9.355-3.217"/>
<path fill="none" stroke="#B5AEB0" stroke-width="2" stroke-miterlimit="10" d="M161.521,133.379c0,0-9.844-5.974-15.276-5.055"/>
<path fill="none" stroke="#B5AEB0" stroke-width="2" stroke-miterlimit="10" d="M138.728,128.229c0,0-14.211,4.232-16.625,7.908"/>
<path fill="none" stroke="#B5AEB0" stroke-width="2" stroke-miterlimit="10" d="M114.444,122.7c0,0,12.071-3.216,22.331,0"/>
<path fill="none" stroke="#B5AEB0" stroke-width="2" stroke-miterlimit="10" d="M122.103,118.675c0,0-6.638-1.838-11.467,0"/>
<path fill="none" stroke="#B5AEB0" stroke-width="2" stroke-miterlimit="10" d="M124.819,81.913c0,0-12.372,1.118-14.183,2.167
	c-1.811,1.049,1.811-1.049,1.811-1.049"/>
<path fill="none" stroke="#B5AEB0" stroke-width="2" stroke-miterlimit="10" d="M122.103,78.696c0,0-9.462-0.919-11.974,0"/>
<path fill="none" stroke="#B5AEB0" stroke-width="2" stroke-miterlimit="10" d="M122.103,45.61c0,0-12.675,0-14.485,2.757"/>
<path fill="none" stroke="#B5AEB0" stroke-width="2" stroke-miterlimit="10" d="M67.048,56.18c0,0-7.11,2.298-7.714,4.136
	c-0.604,1.838,0.604-1.838,0.604-1.838"/>
<path fill="none" stroke="#B5AEB0" stroke-width="2" stroke-miterlimit="10" d="M74.423,84.374c0,0-9.958,2.594-11.316,5.351"/>
<path fill="none" stroke="#B5AEB0" stroke-width="2" stroke-miterlimit="10" d="M79.251,87.049c0,0-14.785,4.258-16.144,5.305
	c-1.358,1.046,1.359-1.047,1.359-1.047"/>
<path fill="none" stroke="#B5AEB0" stroke-width="2" stroke-miterlimit="10" d="M84.08,125.108c0,0-13.507,3.58-13.091,5.696"/>
<line fill="none" stroke="#B5AEB0" stroke-width="2" stroke-miterlimit="10" x1="77.529" y1="132.183" x2="98.814" y2="122.7"/>
<path fill="none" stroke="#B5AEB0" stroke-width="2" stroke-miterlimit="10" d="M21.915,98.686c0,0-3.018,1.149-5.432,3.906"/>
<path fill="none" stroke="#B5AEB0" stroke-width="2" stroke-miterlimit="10" d="M35.796,118.675c0,0-7.847,3.217-9.053,6.434"/>
<path fill="none" stroke="#B5AEB0" stroke-width="2" stroke-miterlimit="10" d="M49.678,141.191c0,0-10.392,5.974-10.628,8.731"/>
<path fill="none" stroke="#B5AEB0" stroke-width="2" stroke-miterlimit="10" d="M61.538,138.558c0,0-18.511,6.999-26.345,19.236"/>
<path fill="none" stroke="#B5AEB0" stroke-width="2" stroke-miterlimit="10" d="M281.094,162.189c0,0,10.699-2.779,18.545,8.548
	l-5.203,5.21"/>
<path fill="none" stroke="#B5AEB0" stroke-width="2" stroke-miterlimit="10" d="M303.991,190.068c0,0,1.911,4.261,9.154-4.01"/>
<path fill="none" stroke="#B5AEB0" stroke-width="2" stroke-miterlimit="10" d="M311.335,177.873c0,0,3.621,2.21,4.827,8.185"/>
<path fill="none" stroke="#B5AEB0" stroke-width="2" stroke-miterlimit="10" d="M430.57,15.843c0,0-4.057,21.37,7.627,19.126
	c3.438,0.807,11.781,0.562,10.347-6.157c0,0,0.164-16.579-5.961-15.121C442.583,13.692,437.622,11.417,430.57,15.843z"/>
<path fill="none" stroke="#B5AEB0" stroke-width="2" stroke-miterlimit="10" d="M389.176,30.627c0,0-3.349,18.571,6.951,16.522
	c3.045,0.67,10.415,0.383,9.072-5.432c0,0,0.335-16.223-5.433-13.062C399.767,28.655,395.357,26.727,389.176,30.627z"/>
<path fill="none" stroke="#B5AEB0" stroke-width="2" stroke-miterlimit="10" d="M472.326,35.611c0,0-3.467,17.728,6.842,15.734
	c3.038,0.628,10.406,0.327,9.101-5.215c0,0,0.249-12.915-5.345-12.439C482.924,33.69,478.529,31.867,472.326,35.611z"/>
<path fill="none" stroke="#B5AEB0" stroke-width="2" stroke-miterlimit="10" d="M515.082,71.409c0,0-4.228,15.295,3.51,14.242
	c2.165,0.755,7.589,0.988,7.16-3.954c-0.212,1.687,3.409-11.315-2.728-11.256C523.024,70.441,519.979,68.548,515.082,71.409z"/>
<path fill="none" stroke="#B5AEB0" stroke-width="2" stroke-miterlimit="10" d="M388.656,58.77c0,0-0.067,6.995,2.949,7.403"/>
<path fill="none" stroke="#B5AEB0" stroke-width="2" stroke-miterlimit="10" d="M391.605,62.128c0,0,6.546-0.625,13.756,0"/>
<path fill="none" stroke="#B5AEB0" stroke-width="2" stroke-miterlimit="10" d="M407.144,58.77c0,0,1.054,6.076,0,7.403"/>
<path fill="none" stroke="#B5AEB0" stroke-width="2" stroke-miterlimit="10" d="M390.131,90.477c0,0-1.542,5.974,1.475,7.353"/>
<line fill="none" stroke="#B5AEB0" stroke-width="2" stroke-miterlimit="10" x1="391.605" y1="94.153" x2="407.611" y2="94.153"/>
<path fill="none" stroke="#B5AEB0" stroke-width="2" stroke-miterlimit="10" d="M407.611,88.523c0,0,6.325,3.792,2.101,9.306"/>
<path fill="none" stroke="#B5AEB0" stroke-width="2" stroke-miterlimit="10" d="M429.89,47.404c0,0-3.965,3.14,0,5.874"/>
<path fill="none" stroke="#B5AEB0" stroke-width="2" stroke-miterlimit="10" d="M448.708,47.404c0,0,4.46,3.599,2.046,5.874"/>
<line fill="none" stroke="#B5AEB0" stroke-width="2" stroke-miterlimit="10" x1="429.89" y1="50.498" x2="448.708" y2="50.498"/>
<path fill="none" stroke="#B5AEB0" stroke-width="2" stroke-miterlimit="10" d="M430.879,86.57c0,0-2.903,1.879-2.495,3.962
	c0.246,1.255,0.695,2.584,1.506,3.621"/>
<path fill="none" stroke="#B5AEB0" stroke-width="2" stroke-miterlimit="10" d="M429.89,90.477c0,0,13.152-2.527,18.818-0.115"/>
<path fill="none" stroke="#B5AEB0" stroke-width="2" stroke-miterlimit="10" d="M450.09,86.064c0,0,2.354,3.379,0,7.112"/>
<path fill="none" stroke="#B5AEB0" stroke-width="2" stroke-miterlimit="10" d="M469.463,58.77c0,0-4.224,5.974,0,7.812"/>
<path fill="none" stroke="#B5AEB0" stroke-width="2" stroke-miterlimit="10" d="M469.905,63.864c0,0,14.921-1.775,17.216,1.12"/>
<path fill="none" stroke="#B5AEB0" stroke-width="2" stroke-miterlimit="10" d="M488.423,61.851c0,0,0.853,6.569,0,7.948"/>
<path fill="none" stroke="#B5AEB0" stroke-width="2" stroke-miterlimit="10" d="M468.524,89.318c0,0-2.213,8.97-0.938,8.511"/>
<path fill="none" stroke="#B5AEB0" stroke-width="2" stroke-miterlimit="10" d="M471.486,93.176c0,0,11.858-0.623,13.669,2.245"/>
<path fill="none" stroke="#B5AEB0" stroke-width="2" stroke-miterlimit="10" d="M488.423,93.119c0,0,2.663,3.331,0,6.548"/>
<path fill="none" stroke="#B5AEB0" stroke-width="2" stroke-miterlimit="10" d="M512.408,90.477c0,0-3.299,3.562,0,5.917"/>
<path fill="none" stroke="#B5AEB0" stroke-width="2" stroke-miterlimit="10" d="M514.72,93.583c0,0,2.841-1.728,6.347,0.57"/>
<path fill="none" stroke="#B5AEB0" stroke-width="2" stroke-miterlimit="10" d="M523.782,93.176c0,0,1.811,2.849,0,4.67"/>
<path fill="none" stroke="#B5AEB0" stroke-width="2" stroke-miterlimit="10" d="M506.883,115.841c0,0-3.018,2.666,0,5.423"/>
<path fill="none" stroke="#B5AEB0" stroke-width="2" stroke-miterlimit="10" d="M508.571,118.017c0,0,6.224,0.783,9.32,0.147"/>
<path fill="none" stroke="#B5AEB0" stroke-width="2" stroke-miterlimit="10" d="M520.276,116.114c0,0,1.322,2.394,0,5.151"/>
<path fill="none" stroke="#B5AEB0" stroke-width="2" stroke-miterlimit="10" d="M262.308,158.654c0,0-9.383-4.799-20.823,4.587
	l3.246,6.061"/>
<path fill="none" stroke="#B5AEB0" stroke-width="2" stroke-miterlimit="10" d="M241.968,448.021l-22.775,49.743
	c0,0,0,23.138-4.555,36.327c0,0-5.156,49.12-14.535,63.677c0,0-2.547,21.375-7.102,33.202c0,0-5.667,24.374-3.27,30.773
	c0.343,0.914,0.85,1.46,1.562,1.518"/>
<path fill="none" stroke="#B5AEB0" stroke-width="2" stroke-miterlimit="10" d="M92.788,665.537c0,0,4.555-9.553,3.417-17.739
	c0,0-3.416-10.46,3.986-20.922c0,0,1.708-12.28-3.701-17.738c0,0-13.95-12.734-25.338-35.477c0,0-16.916-17.639-18.79-23.65
	l-0.258-1.819c0,0-4.867-13.645-8.283-14.554c0,0-5.124-5.004-6.833-8.188c0,0-10.818-5.456-12.526-11.37
	c-1.708-5.913,0-1.818,0-1.818s-18.79-12.163-21.067-14.496c0,0,2.847-16.433,37.01-4.152c0,0,10.818,5.459,18.221,19.558
	l18.79,18.193c0,0,6.263,9.096,12.526-6.367c0,0-2.591-2.999,2.847-12.735l-2.277-32.747c0,0-18.79-49.576-16.513-57.764
	c0,0-18.22-42.753-2.277-54.124c0,0,14.805-8.642,22.207,21.377c0,0,1.138,19.558,3.985,20.012c0,0,9.11,17.74,9.68,25.017
	c0,0,14.804,41.389,17.651,25.47c0,0,6.047-3.184,1.492-22.741c0,0-1.375-12.735,1.699-31.838c0,0,1.365-50.031,11.614-60.492
	c0,0,14.235-8.642,17.082,11.37c0,0-2.277,50.941,0,55.489c0,0-1.708,38.205,0,44.118c0,0,1.138,17.738,9.11,1.819
	c0,0,3.986-32.747,10.818-45.482c0,0,4.556-15.464,5.694-26.38c0,0,3.985-30.929,15.374-27.744c0,0,18.22,2.729,6.833,41.844
	c0,0-6.833,28.199-5.694,40.024c0,0-14.234,48.667-0.569,38.661c0,0,7.488-3.639,10.007-16.829c0,0,0,0,5.936-8.188
	c0,0,14.628-21.358,19.359-35.021c0,0,8.388-20.468,16.512-0.91c0,0,5.125,10.916-8.541,30.473"/>
<path fill="none" stroke="#B5AEB0" stroke-width="2" stroke-miterlimit="10" d="M438.254,641.115c0,0-1.708-3.183,5.694-6.366
	c0,0,13.095-1.82,23.914-21.377l30.747-30.929c0,0,9.11-11.824,14.234-17.283c0,0,17.65-20.467,18.789-25.925
	c0,0,25.055-13.227,4.556-23.67c0,0-10.818-6.349-29.038,6.387c0,0-15.374,11.825-20.498,24.105c0,0-29.609,26.38-36.441-15.009
	c0,0,0.569-32.748-3.416-39.57l-2.277-41.389c0,0-1.139-14.555,1.708-18.193c0,0,4.784-36.841-8.143-38.66
	c0,0-11.394-4.549-12.779,10.916c0,0-7.548,27.486-5.271,32.163c0,0-5.124,25.6-3.416,36.516c0,0-1.14,17.283-5.694,20.466
	c0,0-3.415-10.46,0-26.834c0,0-2.467-24.818-1.518-30.147c0,0-1.383-12.605-0.217-24.886c0,0,2.304-32.748-10.791-34.112
	c0,0-13.097-2.274-15.943,12.735l-2.847,20.467c0,0-1.708,10.006,0,13.645c0,0,1.39,14.543-0.759,21.377c0,0-1.33,18.193,0,21.378
	l-2.088,27.743"/>
<path fill="none" stroke="#B5AEB0" stroke-width="2" stroke-miterlimit="10" d="M345.052,426.58c0,0-0.746,10.32-0.746,13.958
	c0,0,0,16.431,0,14.554c0-14.554,0,0,0,0s-1.847,5.004-0.639,16.83c0,0,3.475,20.466-0.221,32.292c0,0-3.128,8.187-5.405-14.1
	l-4.555-18.192l-3.416-17.283c0,0,0-16.829-8.541-20.468c-8.54-3.64,0,0,0,0s-4.339-4.841-10.955,5.084l-0.433,13.563
	c0,0-1.707,10.006,2.848,21.832l3.417,26.379c0,0,1.138,22.287,6.832,42.3c2.846,58.194,3.077,58.732,16.512,88.69"/>
<path fill="none" stroke="#B5AEB0" stroke-width="2" stroke-miterlimit="10" d="M376.761,492.844c0,0-4.556-7.732-3.986-20.922
	c0,0,1.609-10.916-0.05-21.377c0,0-1.273-10.46,0-19.559l-4.506-25.924c0,0-10.248-20.013-21.067,0l-2.004,21.485"/>
<path fill="none" stroke="#B5AEB0" stroke-width="2" stroke-miterlimit="10" d="M104.746,620.509c0,0,6.264,7.732,19.359,5.912"/>
<path fill="none" stroke="#B5AEB0" stroke-width="2" stroke-miterlimit="10" d="M113.855,620.509c0,0,7.402,5.458,28.47,0
	c0,0,6.833,3.638,14.235,0c0,0,22.206,2.729,25.622,0"/>
<path fill="none" stroke="#B5AEB0" stroke-width="2" stroke-miterlimit="10" d="M100.014,524.854c0,0-11.957,9.553-17.651,9.553"/>
<path fill="none" stroke="#B5AEB0" stroke-width="2" stroke-miterlimit="10" d="M121.516,516.673c0,0,33.905,11.506,12.268,89.281"
	/>
<path fill="none" stroke="#B5AEB0" stroke-width="2" stroke-miterlimit="10" d="M131.259,497.765c0,0,62.311,17.679,70.852,27.685"
	/>
<path fill="none" stroke="#B5AEB0" stroke-width="2" stroke-miterlimit="10" d="M92.788,512.261c0,0,3.9,1.119,17.517-5.587
	c0,0,2.982-1.039,7.537,0c0,0,27.9,8.315,55.231,31.057"/>
<path fill="none" stroke="#B5AEB0" stroke-width="2" stroke-miterlimit="10" d="M82.363,406.286c0,0,6.086,0.455,8.825-2.729"/>
<path fill="none" stroke="#B5AEB0" stroke-width="2" stroke-miterlimit="10" d="M86.775,435.396c0,0,8.507,1.111,13.238-2.4"/>
<path fill="none" stroke="#B5AEB0" stroke-width="2" stroke-miterlimit="10" d="M91.188,440.853c0,0,4.664-3.183,8.826-3.183"/>
<path fill="none" stroke="#B5AEB0" stroke-width="2" stroke-miterlimit="10" d="M100.014,473.601c0,0,9.287-5.913,14.412-5.003"/>
<path fill="none" stroke="#B5AEB0" stroke-width="2" stroke-miterlimit="10" d="M121.516,468.502c0,0,13.407,4.188,15.685,7.827"/>
<path fill="none" stroke="#B5AEB0" stroke-width="2" stroke-miterlimit="10" d="M144.426,463.03c0,0-11.388-3.184-21.067,0"/>
<path fill="none" stroke="#B5AEB0" stroke-width="2" stroke-miterlimit="10" d="M137.201,459.045c0,0,6.263-1.818,10.818,0"/>
<path fill="none" stroke="#B5AEB0" stroke-width="2" stroke-miterlimit="10" d="M134.638,422.659c0,0,11.672,1.107,13.38,2.146
	c1.709,1.037-1.708-1.039-1.708-1.039"/>
<path fill="none" stroke="#B5AEB0" stroke-width="2" stroke-miterlimit="10" d="M137.201,419.476c0,0,8.927-0.909,11.296,0"/>
<path fill="none" stroke="#B5AEB0" stroke-width="2" stroke-miterlimit="10" d="M137.201,386.729c0,0,11.957,0,13.666,2.729"/>
<path fill="none" stroke="#B5AEB0" stroke-width="2" stroke-miterlimit="10" d="M189.14,397.19c0,0,6.708,2.273,7.277,4.093
	c0.569,1.819-0.57-1.819-0.57-1.819"/>
<path fill="none" stroke="#B5AEB0" stroke-width="2" stroke-miterlimit="10" d="M182.182,425.097c0,0,9.394,2.566,10.676,5.295"/>
<path fill="none" stroke="#B5AEB0" stroke-width="2" stroke-miterlimit="10" d="M177.627,427.745c0,0,13.949,4.213,15.23,5.25
	c1.281,1.036-1.282-1.037-1.282-1.037"/>
<path fill="none" stroke="#B5AEB0" stroke-width="2" stroke-miterlimit="10" d="M173.072,465.413c0,0,12.743,3.544,12.35,5.638"/>
<line fill="none" stroke="#B5AEB0" stroke-width="2" stroke-miterlimit="10" x1="179.251" y1="472.415" x2="159.171" y2="463.03"/>
<path fill="none" stroke="#B5AEB0" stroke-width="2" stroke-miterlimit="10" d="M231.719,439.262c0,0,2.847,1.137,5.125,3.865"/>
<path fill="none" stroke="#B5AEB0" stroke-width="2" stroke-miterlimit="10" d="M218.623,459.045c0,0,7.403,3.186,8.542,6.368"/>
<path fill="none" stroke="#B5AEB0" stroke-width="2" stroke-miterlimit="10" d="M205.527,481.332c0,0,9.804,5.913,10.026,8.642"/>
<path fill="none" stroke="#B5AEB0" stroke-width="2" stroke-miterlimit="10" d="M194.338,478.726c0,0,17.463,6.927,24.854,19.039"/>
<path fill="none" stroke="#B5AEB0" stroke-width="2" stroke-miterlimit="10" d="M544.22,525.617c0,0-10.093-2.751-17.494,8.461
	l4.907,5.157"/>
<path fill="none" stroke="#B5AEB0" stroke-width="2" stroke-miterlimit="10" d="M522.618,553.211c0,0-1.803,4.217-8.636-3.97"/>
<path fill="none" stroke="#B5AEB0" stroke-width="2" stroke-miterlimit="10" d="M515.69,541.141c0,0-3.416,2.188-4.555,8.101"/>
<path fill="none" stroke="#B5AEB0" stroke-width="2" stroke-miterlimit="10" d="M403.203,380.768c0,0,3.827,21.15-7.195,18.93
	c-3.243,0.8-11.114,0.557-9.761-6.094c0,0-0.156-16.409,5.623-14.966C391.87,378.638,396.551,376.387,403.203,380.768z"/>
<path fill="none" stroke="#B5AEB0" stroke-width="2" stroke-miterlimit="10" d="M442.255,395.4c0,0,3.159,18.381-6.559,16.353
	c-2.872,0.663-9.824,0.379-8.558-5.376c0,0-0.316-16.058,5.125-12.93C432.264,393.447,436.423,391.539,442.255,395.4z"/>
<path fill="none" stroke="#B5AEB0" stroke-width="2" stroke-miterlimit="10" d="M363.811,400.333c0,0,3.27,17.546-6.454,15.573
	c-2.867,0.621-9.817,0.322-8.586-5.162c0,0-0.236-12.783,5.041-12.312C353.812,398.432,357.958,396.627,363.811,400.333z"/>
<path fill="none" stroke="#B5AEB0" stroke-width="2" stroke-miterlimit="10" d="M323.474,435.766c0,0,3.988,15.139-3.312,14.096
	c-2.042,0.748-7.158,0.979-6.753-3.913c0.198,1.669-3.217-11.2,2.572-11.142C315.981,434.807,318.854,432.934,323.474,435.766z"/>
<path fill="none" stroke="#B5AEB0" stroke-width="2" stroke-miterlimit="10" d="M442.745,423.255c0,0,0.063,6.923-2.782,7.327"/>
<path fill="none" stroke="#B5AEB0" stroke-width="2" stroke-miterlimit="10" d="M439.963,426.58c0,0-6.176-0.619-12.978,0"/>
<path fill="none" stroke="#B5AEB0" stroke-width="2" stroke-miterlimit="10" d="M425.304,423.255c0,0-0.994,6.013,0,7.327"/>
<path fill="none" stroke="#B5AEB0" stroke-width="2" stroke-miterlimit="10" d="M441.354,454.639c0,0,1.455,5.912-1.391,7.276"/>
<line fill="none" stroke="#B5AEB0" stroke-width="2" stroke-miterlimit="10" x1="439.963" y1="458.276" x2="424.862" y2="458.276"/>
<path fill="none" stroke="#B5AEB0" stroke-width="2" stroke-miterlimit="10" d="M424.862,452.705c0,0-5.966,3.752-1.981,9.21"/>
<path fill="none" stroke="#B5AEB0" stroke-width="2" stroke-miterlimit="10" d="M403.846,412.005c0,0,3.74,3.108,0,5.814"/>
<path fill="none" stroke="#B5AEB0" stroke-width="2" stroke-miterlimit="10" d="M386.091,412.005c0,0-4.206,3.562-1.928,5.814"/>
<line fill="none" stroke="#B5AEB0" stroke-width="2" stroke-miterlimit="10" x1="403.846" y1="415.068" x2="386.091" y2="415.068"/>
<path fill="none" stroke="#B5AEB0" stroke-width="2" stroke-miterlimit="10" d="M402.912,450.771c0,0,2.739,1.86,2.354,3.921
	c-0.232,1.242-0.656,2.558-1.42,3.584"/>
<path fill="none" stroke="#B5AEB0" stroke-width="2" stroke-miterlimit="10" d="M403.846,454.639c0,0-12.408-2.503-17.755-0.115"/>
<path fill="none" stroke="#B5AEB0" stroke-width="2" stroke-miterlimit="10" d="M384.789,450.271c0,0-2.222,3.344,0,7.04"/>
<path fill="none" stroke="#B5AEB0" stroke-width="2" stroke-miterlimit="10" d="M366.511,423.255c0,0,3.985,5.912,0,7.731"/>
<path fill="none" stroke="#B5AEB0" stroke-width="2" stroke-miterlimit="10" d="M366.095,428.297c0,0-14.077-1.756-16.242,1.109"/>
<path fill="none" stroke="#B5AEB0" stroke-width="2" stroke-miterlimit="10" d="M348.625,426.305c0,0-0.806,6.502,0,7.866"/>
<path fill="none" stroke="#B5AEB0" stroke-width="2" stroke-miterlimit="10" d="M367.396,453.491c0,0,2.088,8.879,0.886,8.424"/>
<path fill="none" stroke="#B5AEB0" stroke-width="2" stroke-miterlimit="10" d="M364.603,457.311c0,0-11.187-0.616-12.895,2.221"/>
<path fill="none" stroke="#B5AEB0" stroke-width="2" stroke-miterlimit="10" d="M348.625,457.253c0,0-2.514,3.298,0,6.48"/>
<path fill="none" stroke="#B5AEB0" stroke-width="2" stroke-miterlimit="10" d="M325.996,454.639c0,0,3.111,3.524,0,5.854"/>
<path fill="none" stroke="#B5AEB0" stroke-width="2" stroke-miterlimit="10" d="M323.815,457.712c0,0-2.679-1.709-5.987,0.564"/>
<path fill="none" stroke="#B5AEB0" stroke-width="2" stroke-miterlimit="10" d="M315.266,457.311c0,0-1.708,2.819,0,4.621"/>
<path fill="none" stroke="#B5AEB0" stroke-width="2" stroke-miterlimit="10" d="M331.209,479.743c0,0,2.847,2.639,0,5.368"/>
<path fill="none" stroke="#B5AEB0" stroke-width="2" stroke-miterlimit="10" d="M329.616,481.896c0,0-5.871,0.774-8.793,0.146"/>
<path fill="none" stroke="#B5AEB0" stroke-width="2" stroke-miterlimit="10" d="M318.574,480.013c0,0-1.248,2.369,0,5.099"/>
<path fill="none" stroke="#B5AEB0" stroke-width="2" stroke-miterlimit="10" d="M4.93,498.615c0,0,8.852-4.749,19.645,4.542
	l-3.062,5.998"/>
</svg>
