<?xml version="1.0" encoding="utf-8"?>
<!-- Generator: Adobe Illustrator 15.0.2, SVG Export Plug-In  -->
<!DOCTYPE svg PUBLIC "-//W3C//DTD SVG 1.1//EN" "http://www.w3.org/Graphics/SVG/1.1/DTD/svg11.dtd" [
	<!ENTITY ns_flows "http://ns.adobe.com/Flows/1.0/">
]>
<svg version="1.1"
	 xmlns="http://www.w3.org/2000/svg" xmlns:xlink="http://www.w3.org/1999/xlink" xmlns:a="http://ns.adobe.com/AdobeSVGViewerExtensions/3.0/"
	 x="0px" y="0px" width="700px" height="700px" viewBox="-215.202 -3.333 700 700"
	 overflow="visible" enable-background="new -215.202 -3.333 700 700" xml:space="preserve">
<defs>
</defs>
<path fill="none" stroke="#B3B8B3" stroke-miterlimit="10" d="M85.087,351.724c5.486,3.318,24.264,22.64,48.461,2.129
	c0,0,26.686,21.315,48.76-0.079"/>
<path fill="none" stroke="#B3B8B3" stroke-miterlimit="10" d="M132.734,355.851c-3.468,2.239-3.699,118.57-3.699,118.57
	s-2.5,10.75-2.002,28.575c0,0,7.001,117.924,1.501,149.969c-0.757,4.405,3.127,12.977,3.127,12.977c1.124,5.229,0,17.818,0,17.818
	c-13.881,13.54-31.641-11.167-31.641-11.167c-6.504-4.752,0.502-6.651,0.502-6.651c-1.501-2.852,5.003-2.379,5.003-2.379
	c-1.999-2.852,7.386-3.324,7.386-3.324c1.926-3.124,0.367-9.271,0.367-9.271c3.001-14.256-24.477-96.946-24.477-96.946
	c-14.723-42.771-0.039-86.256-0.039-86.256c0.994-9.266-18.754-98.092-18.754-98.092c-20.258-50.611,17.758-109.347,17.758-109.347
	c5.252-14.97-13.756-92.905-13.756-92.905"/>
<path fill="none" stroke="#B3B8B3" stroke-miterlimit="10" d="M135.735,355.437c-3.001,19.484,5.305,126.884,5.305,126.884
	c0.999,15.444-5.004,63.921-5.004,63.921c-0.499,18.057,3.002,106.31,3.002,106.31c-3.501,1.28-3.002,8.935-3.002,8.935
	c-0.969,5.529-1.378,4.358-4.375,9.507c1.626,5.228,3.376,10.69,3.376,10.69c10.004,9.263,15.007,0,15.007,0
	c3.002-0.717,15.344-12.594,15.344-12.594c4.84-4.751-3.001-4.751-3.001-4.751c0.838-4.276-2.838-4.751-2.838-4.751
	c-1.501-6.177-4.501,0-4.501,0c1.501-3.802-2.002-8.555-2.002-8.555c-2.003-4.276,0-10.695,0-10.695l27.386-109.778
	c0,0,4.128-32.079-4.126-62.732l14.338-81.264l1.824-16.633c22.846-32.731-16.162-112.394-16.162-112.394s4.71-49.635,8.254-59.879
	c0,0,3.502-12.591,6.003-23.521"/>
<path fill="none" stroke="#B3B8B3" stroke-miterlimit="10" d="M159.798,153.7c0,0-11.504,15.208,4.126,29.464"/>
<path fill="none" stroke="#B3B8B3" stroke-miterlimit="10" d="M108.527,153.7c0,0,12.004,19.485-3.002,29.464"/>
<path fill="none" stroke="#B3B8B3" stroke-miterlimit="10" d="M123.575,309.414c12.252,0,9.973,44.439,9.973,44.439
	s-2.514-40.682,12.526-44.439"/>
<path fill="none" stroke="#B3B8B3" stroke-miterlimit="10" d="M39.279,410.345l0.485-12.604c0.763-1.438,6.619-22.961,4.957-35.934"
	/>
<path fill="none" stroke="#B3B8B3" stroke-miterlimit="10" d="M112.475,79.649c0,0,5.597,27.701-38.921,31.076
	c0,0-28.491,4.635-27.9,36.177l-0.184,43.546c0,0,0.574,35.238,0,42.84c0,0-13.794,60.553-15.441,99.996
	c0,0-0.564,26.452-2.036,28.522c0,0-0.086,4.413-1.78,5.171c0,0-2.18,1.761-2.907,3.021c0,0-9.194,6.054-12.826,10.842
	c0,0-3.39,3.029-4.602,4.291c0,0-5.079,0.499-5.322,3.279c0,0-1.207,3.525,7.743,2.011c0,0,5.323-3.277,7.99-4.287
	c0,0,0.725,0.756,0,4.666c0,0-3.874,11.476-3.874,19.544c0,0-0.728,7.305,1.696,8.823c0,0,3.143,3.525,3.872-8.326
	c0,0,1.21-9.826,2.661-12.099c0,0,0.967,4.79,0.483,7.064c0,0-0.724,4.537-1.45,6.805c0,0-1.454,9.323-0.728,10.586
	c0.728,1.266,0.728,1.266,0.728,1.266s2.421,3.273,4.115-2.015c0,0,0.965-6.056,1.207-9.333c0,0,1.693-9.327,2.661-11.346
	l1.457-0.249c-7.831,29.601-0.723,26.362,0,24.059c0.706-2.253,1.205-2.113,1.205-2.113c0.972-3.532,3.147-22.959,3.147-22.959
	l1.213-0.25c0,0,0.381,34.359,4.597,8.136"/>
<path fill="none" stroke="#B3B8B3" stroke-miterlimit="10" d="M45.595,362.766c-4.965,16.031,28.172-116.797,27.959-117.919
	c0,0,4.002-47.525,5.252-62.359"/>
<path fill="none" stroke="#B3B8B3" stroke-miterlimit="10" d="M143.023,0.944c9.107,2.511,31.668,11.843,22.334,39.93
	c0,0,6-0.339,2.666,11.504c0,0-1.332,17.258-6.666,10.152c0,0-2.092,10.673-2.911,15.179"/>
<path fill="none" stroke="#B3B8B3" stroke-miterlimit="10" d="M111.358,90.279c0,0,3.666-16.919-0.668-26.056c0,0-6,5.076-7-11.167
	c0,0-6.666-13.536,2-12.183c-2.865-16.949,2.021-44.179,37.333-39.93"/>
<path fill="none" stroke="#B3B8B3" stroke-miterlimit="10" d="M230.369,412.308l-0.486-12.606
	c-0.762-1.436-6.618-22.959-4.957-35.932"/>
<path fill="none" stroke="#B3B8B3" stroke-miterlimit="10" d="M158.446,77.709c0,0-9.974,27.603,37.648,34.978
	c0,0,18.271,2.584,24.899,36.177l2.185,43.546c0,0,0.426,35.238,1,42.839c0,0,13.794,60.553,15.44,99.997
	c0,0,0.565,26.451,2.037,28.523c0,0,0.086,4.413,1.78,5.171c0,0,2.18,1.761,2.907,3.02c0,0,9.194,6.054,12.826,10.844
	c0,0,3.39,3.029,4.602,4.289c0,0,5.078,0.501,5.322,3.279c0,0,1.207,3.525-7.744,2.011c0,0-5.322-3.277-7.989-4.285
	c0,0-0.725,0.756,0,4.664c0,0,3.874,11.476,3.874,19.546c0,0,0.728,7.303-1.696,8.821c0,0-3.143,3.527-3.872-8.324
	c0,0-1.211-9.828-2.661-12.099c0,0-0.968,4.791-0.483,7.062c0,0,0.724,4.539,1.45,6.807c0,0,1.454,9.323,0.728,10.587
	c-0.728,1.263-0.728,1.263-0.728,1.263s-2.421,3.275-4.115-2.013c0,0-0.965-6.058-1.207-9.333c0,0-1.694-9.329-2.661-11.348
	l-1.457-0.247c7.831,29.599,0.723,26.362,0,24.057c-0.706-2.253-1.205-2.113-1.205-2.113c-0.973-3.529-3.147-22.959-3.147-22.959
	l-1.214-0.25c0,0-0.38,34.361-4.596,8.136"/>
<path fill="none" stroke="#B3B8B3" stroke-miterlimit="10" d="M225.054,364.727c0.906,23.312-29.171-116.796-28.959-117.919
	c0,0-7.002-47.524-8.253-62.358"/>
</svg>
