<?xml version="1.0" encoding="utf-8"?>
<!-- Generator: Adobe Illustrator 15.0.2, SVG Export Plug-In  -->
<!DOCTYPE svg PUBLIC "-//W3C//DTD SVG 1.1//EN" "http://www.w3.org/Graphics/SVG/1.1/DTD/svg11.dtd" [
	<!ENTITY ns_flows "http://ns.adobe.com/Flows/1.0/">
]>
<svg version="1.1"
	 xmlns="http://www.w3.org/2000/svg" xmlns:xlink="http://www.w3.org/1999/xlink" xmlns:a="http://ns.adobe.com/AdobeSVGViewerExtensions/3.0/"
	 x="0px" y="0px" width="700px" height="700px" viewBox="-219.945 -5.615 700 700"
	 overflow="visible" enable-background="new -219.945 -5.615 700 700" xml:space="preserve">
<defs>
</defs>
<path fill="none" stroke="#B3B8B3" stroke-miterlimit="10" d="M131.291,292.219c0,0-2.835-4.647-3.349,3.138
	c0,0,0.772,6.136,3.349,3.22"/>
<path fill="none" stroke="#B3B8B3" stroke-miterlimit="10" d="M151.375,644.152c-3.756,0,0,15.992,0,15.992
	s22.529,20.1,14.715,24.331"/>
<path fill="none" stroke="#B3B8B3" stroke-miterlimit="10" d="M77.748,212.358c0,0,9.794,44.5,4.536,59.102
	c0,0-36.047,73.704-15.771,123.072c0,0,17.763,70.228,16.767,79.267c0,0-14.695,42.414,0.04,84.133c0,0,27.502,80.657,24.497,94.564
	c0,0-4.506,19.469-10.514,20.165c0,0-9.762,5.883-6.758,11.82h0.75c0,0,29.289,10.43,33.043,0c0,0,3.005-28.509,0-35.463
	c0,0-0.809-77.834,1.336-89c0,0-0.584-44.501-5.09-63.97c0,0,7.175-18.774,5.09-29.898l0.443-101.136h6.546
	c0,0-4.571,110.175-0.064,112.26c0,0,0.75,15.993,5.258,20.861l-6.76,49.366c0,0,4.506,74.4,0.752,85.525l-2.253,19.469
	l3.003,34.767"/>
<path fill="none" stroke="#B3B8B3" stroke-miterlimit="10" d="M109.701,92.458c0,0-0.963,30.682-18.266,32.707
	c0,0,9.808-3.267-19.727,6.639c0,0-39.344-8.747-26.36,70.87c0,0,0.557,33.555,0,40.793c0,0-13.301,57.662-14.887,95.223
	c0,0-0.547,25.188-1.965,27.161"/>
<path fill="none" stroke="#B3B8B3" stroke-miterlimit="10" d="M76.421,209.175l-6.26,52.292
	C73.295,277.95,45.47,369.234,45.47,369.234"/>
<path fill="none" stroke="#B3B8B3" stroke-miterlimit="10" d="M182.166,212.358c-1.461,10.43-8.262,58.407-8.262,58.407
	s28.395,77.889,17.354,110.034l-3.004,15.817l-14.35,79.267c8.262,29.899,4.129,61.188,4.129,61.188l-27.41,107.08"/>
<path fill="none" stroke="#B3B8B3" stroke-miterlimit="10" d="M229.885,435.915c-1.816,2.602-5.705-22.311-5.705-22.311h-1.291l0,0
	v12.354v1.721c0,0-5.559,9.479-5.248-16.779c0,0-3.918-17.807-1.666-31.458l-6.734-18.519c0,0-20.943-66.751-23.947-97.604
	l-3.127-50.961"/>
<path fill="none" stroke="#B3B8B3" stroke-miterlimit="10" d="M229.885,435.915c2.33,0.814,3.371-1.461,3.371-1.461l-2.074-19.492
	l3.104,12.717l1.043,11.104c2.592,3.791,4.41,1.146,4.41,1.146c0.518-1.836-0.693-13.971-0.693-13.971l-1.383-13.978h1.035
	l3.633,18.952c0.258,3.521,2.852,3.249,2.852,3.249c3.883-0.271,0.262-22.201,0.262-22.201c-2.611-10.132-3.113-14.08-3.113-14.08
	c3.629,1.086,8.814,4.068,8.814,4.068c0.779,1.896,8.816,1.896,9.076,0c0.258-1.896-4.41-4.606-5.186-4.606
	c-0.777,0-4.408-3.248-5.188-4.063c3.076,3.2-1.934-4.216-18.803-17.562"/>
<path fill="none" stroke="#B3B8B3" stroke-miterlimit="10" d="M150.623,93.458c0,0,0,35.231,36.451,40.756
	c0,0,30.713,0,23.91,33.158c1.332,80.323,1.627,77.171,0.982,83.586c0,0,8.584,27.377,8.584,34.066
	c-0.262-6.422,11.639,91.608,10.494,90.712"/>
<path fill="none" stroke="#B3B8B3" stroke-miterlimit="10" d="M120.584,204.014c-4.596,21.555-31.541,14.446-31.541,14.446
	c-26.285-3.633-13.883-38.087-13.883-38.087"/>
<path fill="none" stroke="#B3B8B3" stroke-miterlimit="10" d="M182.027,183.3c0,0,0.465,1.429,0.994,3.729
	c2.133,9.289,5.309,32.779-16.852,33.689c0,0-27.287,5.894-30.75-15.841"/>
<path fill="none" stroke="#B3B8B3" stroke-miterlimit="10" d="M63.509,132.432c6.008-3.195,42.696,3.727,42.696,3.727l23.319,4.75
	l21.85-2.951c0,0,33.125-5.112,39.498-3.379"/>
<path fill="none" stroke="#B3B8B3" stroke-miterlimit="10" d="M114.594,485.619c0,0-9.781,4.172-14.287,0"/>
<path fill="none" stroke="#B3B8B3" stroke-miterlimit="10" d="M144.615,487.474c0,0,7.434,3.708,15.357-1.854"/>
<path fill="none" stroke="#B3B8B3" stroke-miterlimit="10" d="M115.989,680.31c0,0-11.152,12.352,4.596,6.953"/>
<path fill="none" stroke="#B3B8B3" stroke-miterlimit="10" d="M107.451,680.31c0,0-4.89,10.848,4.122,8.9"/>
<path fill="none" stroke="#B3B8B3" stroke-miterlimit="10" d="M100.307,680.31c0,0-3.809,7.955,5.818,8.335"/>
<path fill="none" stroke="#B3B8B3" stroke-miterlimit="10" d="M99.564,684.878c-8.368,4.565-6.015-4.568-6.015-4.568"/>
<path fill="none" stroke="#B3B8B3" stroke-miterlimit="10" d="M141.994,683.726c-0.004-0.003,9.109,10.325-9.256,4.173"/>
<path fill="none" stroke="#B3B8B3" stroke-miterlimit="10" d="M149.291,680.244c0,0,8.807,9.585-4.676,8.336"/>
<path fill="none" stroke="#B3B8B3" stroke-miterlimit="10" d="M156.969,680.31c0,0,9.752,9.435-6.346,6.947"/>
<path fill="none" stroke="#B3B8B3" stroke-miterlimit="10" d="M160.387,677.527c11.807,10.633-1.523,9.666,0.143,9.729"/>
<path fill="none" stroke="#B3B8B3" stroke-miterlimit="10" d="M97.055,56.931c-1.541-0.968-11.715-6.621-3.729,10.063
	c0,0,2.698,9.247,8.083,10.165L97.055,56.931z"/>
<path fill="none" stroke="#B3B8B3" stroke-miterlimit="10" d="M95.762,65.347c0,0-2.807-3.688,0-5.718c0,0,2.417,1.845,2.025,4.243
	c0,0-0.389,0.984-0.786,2.426c0,0,2.747,4.585,2.747,5.692l-1.961-0.736"/>
<path fill="none" stroke="#B3B8B3" stroke-miterlimit="10" d="M161.957,59.568c0,0,11.885-8.105,4.148,9.919
	c0,0-2.307,9.339-7.645,10.457L161.957,59.568z"/>
<path fill="none" stroke="#B3B8B3" stroke-miterlimit="10" d="M163.676,67.932c0,0,2.945-3.595,0.209-5.719
	c0,0-2.48,1.765-2.176,4.178c0,0,0.355,0.994,0.689,2.454c0,0-2.912,4.491-2.953,5.597l1.99-0.677"/>
<path fill="none" stroke="#B3B8B3" stroke-miterlimit="10" d="M135.562,50.978c0,0,15.648-2.043,18.295,1.512
	c0,0-2.451-0.726-4.43-0.481C149.428,52.009,134.398,53.527,135.562,50.978z"/>
<path fill="none" stroke="#B3B8B3" stroke-miterlimit="10" d="M122.188,50.549c-18.037-2.724-19.711,1.611-19.711,1.611
	s3.967-1.846,9.73-1.253c0,0,5.352,0.577,6.389,0.641C118.596,51.548,120.864,50.918,122.188,50.549"/>
<path fill="none" stroke="#B3B8B3" stroke-miterlimit="10" d="M120.842,59.071c0,0-4.291-5.485-12.732-1.468
	c0,0,2.143,4.934,11.82,1.549"/>
<path fill="none" stroke="#B3B8B3" stroke-miterlimit="10" d="M138.193,59.095c0.246-0.334,5.09-5.406,12.84-1.308
	c0,0-3.172,4.942-9.121,2.321L138.193,59.095z"/>
<path fill="#B2B6B2" stroke="#B3B8B3" stroke-miterlimit="10" d="M121.919,74.44c0,0-2.225,3.208,0.785,4.188"/>
<path fill="#B2B6B2" stroke="#B3B8B3" stroke-miterlimit="10" d="M124.141,78.628c0,0,1.572-0.429,1.963,0.708"/>
<path fill="#B2B6B2" stroke="#B3B8B3" stroke-miterlimit="10" d="M128.064,80.474c0,0,1.571,1.106,2.486,0"/>
<path fill="#B2B6B2" stroke="#B3B8B3" stroke-miterlimit="10" d="M131.598,79.336c0,0,2.484-1.565,2.742-0.708"/>
<path fill="#B2B6B2" stroke="#B3B8B3" stroke-miterlimit="10" d="M136.434,73.71c0,0,1.178,1.344,1.047,2.823"/>
<path fill="none" stroke="#B3B8B3" stroke-miterlimit="10" d="M140.621,86.871c0,0-6.148,6.111-9.023,5.765
	c0,0-3.27,0.751-6.475-0.6c0,0-5.95-2.952-6.604-5.165c0,0,2.876,0.617,4.186,0c0,0,3.137-1.654,3.399-1.503
	c0.262,0.148,3.203,0.766,3.203,0.766l2.812-0.777c0,0,2.35,0.899,3.725,0.899L140.621,86.871z"/>
<path fill="#B2B6B2" stroke="#B3B8B3" stroke-miterlimit="10" d="M139.967,86.871l-9.417,1.045c-1.57,0.675-2.486,0.307-2.486,0.307
	c-1.047-0.124-3.923-0.616-3.923-0.616s-2.081,0.93-5.095-0.272"/>
<path fill="none" stroke="#B3B8B3" stroke-miterlimit="10" d="M134.34,87.731c1.504-0.534,0-0.33,0-0.33"/>
<path fill="none" stroke="#B3B8B3" stroke-miterlimit="10" d="M143.975,56.283c0,0-3.93,1.54-0.342,3.941
	c0,0,2.824,1.457,3.844-1.116c0,0,0.943-1.88-1.02-2.825C146.457,56.283,144.771,55.858,143.975,56.283z"/>
<path fill="none" stroke="#B3B8B3" stroke-miterlimit="10" d="M113.336,56.27c0,0-3.854,1.425-0.334,3.647
	c0,0,2.764,1.351,3.767-1.033c0,0,0.923-1.738-1.003-2.614C115.766,56.27,114.117,55.875,113.336,56.27z"/>
<path fill="none" stroke="#B3B8B3" stroke-miterlimit="10" d="M162.352,58.861c-7.264,51.087-35.328,45.147-35.328,45.147
	c-27.666-6.346-30.412-50.991-30.412-50.991s-3.107-17.358,8.262-23.108c0,0,19.762-4.25,23.19-9.5c0,0,17.924,10.75,29.051,12.75
	C157.115,33.159,164.227,45.683,162.352,58.861z"/>
<path fill="none" stroke="#B3B8B3" stroke-miterlimit="10" d="M105.404,352.857c0,0,9.267,15.263,24.303,12.157"/>
<path fill="none" stroke="#B3B8B3" stroke-miterlimit="10" d="M106.493,56.132c0,0,5.021-4.461,14.635,0.158"/>
<path fill="none" stroke="#B3B8B3" stroke-miterlimit="10" d="M137.49,56.552c0,0,6.248-4.198,14.625-0.42"/>
<path fill="none" stroke="#B3B8B3" stroke-miterlimit="10" d="M83.807,126.977c-6.784-4.433-2.049-51.855-2.049-51.855
	c-4.543-38.288,12.894-61.212,12.894-61.212c9.108-19.5,33.869-11.5,33.869-11.5s18.288-8,30.686,8.75
	c0,0,24.768,32.112,18.205,69.806c0,0,3.727,49.053,1.105,50.624"/>
<path fill="none" stroke="#B3B8B3" stroke-miterlimit="10" d="M151.645,351.912c0,0-11.266,16.263-26.302,13.157"/>
<path fill="none" stroke="#B3B8B3" stroke-miterlimit="10" d="M39.279,417.176l0.485-12.605c0.763-1.438,6.619-22.961,4.957-35.934"
	/>
<path fill="none" stroke="#B3B8B3" stroke-miterlimit="10" d="M27.992,366.108c0,0-0.086,4.374-1.78,5.126
	c0,0-2.18,1.743-2.907,2.994c0,0-9.194,5.999-12.826,10.745c0,0-3.39,3.002-4.602,4.253c0,0-5.079,0.493-5.322,3.25
	c0,0-1.207,3.493,7.743,1.991c0,0,5.323-3.248,7.99-4.249c0,0,0.725,0.75,0,4.625c0,0-3.874,11.374-3.874,19.37
	c0,0-0.728,7.239,1.696,8.743c0,0,3.143,3.494,3.872-8.252c0,0,1.21-9.738,2.661-11.989c0,0,0.967,4.746,0.483,7.001
	c0,0-0.724,4.497-1.45,6.744c0,0-1.454,9.239-0.728,10.492c0.728,1.254,0.728,1.254,0.728,1.254s2.421,3.244,4.115-1.998
	c0,0,0.965-6,1.207-9.248c0,0,1.693-9.245,2.661-11.245l1.457-0.247c-7.831,29.337-0.723,26.128,0,23.844
	c0.706-2.232,1.205-2.095,1.205-2.095c0.972-3.5,3.147-22.754,3.147-22.754l1.213-0.248c0,0,0.381,34.053,4.597,8.064"/>
</svg>
