<?xml version="1.0" encoding="utf-8"?>
<!-- Generator: Adobe Illustrator 15.0.2, SVG Export Plug-In  -->
<!DOCTYPE svg PUBLIC "-//W3C//DTD SVG 1.1//EN" "http://www.w3.org/Graphics/SVG/1.1/DTD/svg11.dtd" [
	<!ENTITY ns_flows "http://ns.adobe.com/Flows/1.0/">
]>
<svg version="1.1"
	 xmlns="http://www.w3.org/2000/svg" xmlns:xlink="http://www.w3.org/1999/xlink" xmlns:a="http://ns.adobe.com/AdobeSVGViewerExtensions/3.0/"
	 x="0px" y="0px" width="700px" height="700px" viewBox="-44.336 -4.823 700 700"
	 overflow="visible" enable-background="new -44.336 -4.823 700 700" xml:space="preserve">
<defs>
</defs>
<path fill="none" stroke="#B3B8B3" stroke-miterlimit="10" d="M131.291,292.219c0,0-2.835-4.647-3.349,3.138
	c0,0,0.772,6.136,3.349,3.22"/>
<path fill="none" stroke="#B3B8B3" stroke-miterlimit="10" d="M151.375,644.153c-3.756,0,0,15.992,0,15.992
	s22.529,20.1,14.715,24.331"/>
<path fill="none" stroke="#B3B8B3" stroke-miterlimit="10" d="M77.748,212.359c0,0,9.794,44.5,4.536,59.102
	c0,0-36.047,73.704-15.771,123.072c0,0,17.763,70.228,16.767,79.267c0,0-14.695,42.414,0.04,84.133c0,0,27.502,80.657,24.497,94.564
	c0,0-4.506,19.469-10.514,20.165c0,0-9.762,5.883-6.758,11.82h0.75c0,0,29.289,10.43,33.043,0c0,0,3.005-28.509,0-35.463
	c0,0-0.809-77.834,1.336-89c0,0-0.584-44.501-5.09-63.97c0,0,7.175-18.774,5.09-29.898l0.443-101.136h6.546
	c0,0-4.571,110.175-0.064,112.26c0,0,0.75,15.993,5.258,20.861l-6.76,49.366c0,0,4.506,74.4,0.752,85.525l-2.253,19.469
	l3.003,34.767"/>
<path fill="none" stroke="#B3B8B3" stroke-miterlimit="10" d="M109.701,92.459c0,0-0.963,30.682-18.266,32.707
	c0,0,9.808-3.267-19.727,6.639c0,0-39.344-8.747-26.36,70.87c0,0,0.557,33.555,0,40.793c0,0-13.301,57.662-14.887,95.223
	c0,0-0.547,25.188-1.965,27.161"/>
<path fill="none" stroke="#B3B8B3" stroke-miterlimit="10" d="M76.421,209.175l-6.26,52.292
	C73.295,277.95,45.47,369.235,45.47,369.235"/>
<path fill="none" stroke="#B3B8B3" stroke-miterlimit="10" d="M182.166,212.359c-1.461,10.43-8.262,58.407-8.262,58.407
	s28.395,77.889,17.354,110.034l-3.004,15.817l-14.35,79.267c8.262,29.899,4.129,61.188,4.129,61.188l-27.41,107.08"/>
<path fill="none" stroke="#B3B8B3" stroke-miterlimit="10" d="M229.885,435.916c-1.816,2.602-5.705-22.311-5.705-22.311h-1.291l0,0
	v12.354v1.721c0,0-5.559,9.479-5.248-16.779c0,0-3.918-17.807-1.666-31.458l-6.734-18.519c0,0-20.943-66.751-23.947-97.604
	l-3.127-50.961"/>
<path fill="none" stroke="#B3B8B3" stroke-miterlimit="10" d="M229.885,435.916c2.33,0.814,3.371-1.461,3.371-1.461l-2.074-19.492
	l3.104,12.717l1.043,11.104c2.592,3.791,4.41,1.146,4.41,1.146c0.518-1.836-0.693-13.971-0.693-13.971l-1.383-13.978h1.035
	l3.633,18.952c0.258,3.521,2.852,3.249,2.852,3.249c3.883-0.271,0.262-22.201,0.262-22.201c-2.611-10.132-3.113-14.08-3.113-14.08
	c3.629,1.086,8.814,4.068,8.814,4.068c0.779,1.896,8.816,1.896,9.076,0c0.258-1.896-4.41-4.606-5.186-4.606
	c-0.777,0-4.408-3.248-5.188-4.063c3.076,3.2-1.934-4.216-18.803-17.562"/>
<path fill="none" stroke="#B3B8B3" stroke-miterlimit="10" d="M150.623,93.459c0,0,0,35.231,36.451,40.756
	c0,0,30.713,0,23.91,33.158c1.332,80.323,1.627,77.171,0.982,83.586c0,0,8.584,27.377,8.584,34.066
	c-0.262-6.422,11.639,91.608,10.494,90.712"/>
<path fill="none" stroke="#B3B8B3" stroke-miterlimit="10" d="M120.584,204.015c-4.596,21.555-31.541,14.446-31.541,14.446
	c-26.285-3.633-13.883-38.087-13.883-38.087"/>
<path fill="none" stroke="#B3B8B3" stroke-miterlimit="10" d="M182.027,183.301c0,0,0.465,1.429,0.994,3.729
	c2.133,9.289,5.309,32.779-16.852,33.689c0,0-27.287,5.894-30.75-15.841"/>
<path fill="none" stroke="#B3B8B3" stroke-miterlimit="10" d="M63.509,132.432c6.008-3.195,42.696,3.727,42.696,3.727l23.319,4.75
	l21.85-2.951c0,0,33.125-5.112,39.498-3.379"/>
<path fill="none" stroke="#B3B8B3" stroke-miterlimit="10" d="M114.594,485.62c0,0-9.781,4.172-14.287,0"/>
<path fill="none" stroke="#B3B8B3" stroke-miterlimit="10" d="M144.615,487.474c0,0,7.434,3.708,15.357-1.854"/>
<path fill="none" stroke="#B3B8B3" stroke-miterlimit="10" d="M115.989,680.31c0,0-11.152,12.352,4.596,6.953"/>
<path fill="none" stroke="#B3B8B3" stroke-miterlimit="10" d="M107.451,680.31c0,0-4.89,10.848,4.122,8.9"/>
<path fill="none" stroke="#B3B8B3" stroke-miterlimit="10" d="M100.307,680.31c0,0-3.809,7.955,5.818,8.335"/>
<path fill="none" stroke="#B3B8B3" stroke-miterlimit="10" d="M99.564,684.878c-8.368,4.565-6.015-4.568-6.015-4.568"/>
<path fill="none" stroke="#B3B8B3" stroke-miterlimit="10" d="M141.994,683.726c-0.004-0.003,9.109,10.325-9.256,4.173"/>
<path fill="none" stroke="#B3B8B3" stroke-miterlimit="10" d="M149.291,680.245c0,0,8.807,9.585-4.676,8.336"/>
<path fill="none" stroke="#B3B8B3" stroke-miterlimit="10" d="M156.969,680.31c0,0,9.752,9.435-6.346,6.947"/>
<path fill="none" stroke="#B3B8B3" stroke-miterlimit="10" d="M160.387,677.528c11.807,10.633-1.523,9.666,0.143,9.729"/>
<path fill="none" stroke="#B3B8B3" stroke-miterlimit="10" d="M97.055,56.932c-1.541-0.968-11.715-6.621-3.729,10.063
	c0,0,2.698,9.247,8.083,10.165L97.055,56.932z"/>
<path fill="none" stroke="#B3B8B3" stroke-miterlimit="10" d="M95.762,65.347c0,0-2.807-3.688,0-5.718c0,0,2.417,1.845,2.025,4.243
	c0,0-0.389,0.984-0.786,2.426c0,0,2.747,4.585,2.747,5.692l-1.961-0.736"/>
<path fill="none" stroke="#B3B8B3" stroke-miterlimit="10" d="M161.957,59.569c0,0,11.885-8.105,4.148,9.919
	c0,0-2.307,9.339-7.645,10.457L161.957,59.569z"/>
<path fill="none" stroke="#B3B8B3" stroke-miterlimit="10" d="M163.676,67.932c0,0,2.945-3.595,0.209-5.719
	c0,0-2.48,1.765-2.176,4.178c0,0,0.355,0.994,0.689,2.454c0,0-2.912,4.491-2.953,5.597l1.99-0.677"/>
<path fill="none" stroke="#B3B8B3" stroke-miterlimit="10" d="M135.562,50.979c0,0,15.648-2.043,18.295,1.512
	c0,0-2.451-0.726-4.43-0.481C149.428,52.01,134.398,53.527,135.562,50.979z"/>
<path fill="none" stroke="#B3B8B3" stroke-miterlimit="10" d="M122.188,50.55c-18.037-2.724-19.711,1.611-19.711,1.611
	s3.967-1.846,9.73-1.253c0,0,5.352,0.577,6.389,0.641C118.596,51.548,120.864,50.918,122.188,50.55"/>
<path fill="none" stroke="#B3B8B3" stroke-miterlimit="10" d="M120.842,59.071c0,0-4.291-5.485-12.732-1.468
	c0,0,2.143,4.934,11.82,1.549"/>
<path fill="none" stroke="#B3B8B3" stroke-miterlimit="10" d="M138.193,59.096c0.246-0.334,5.09-5.406,12.84-1.308
	c0,0-3.172,4.942-9.121,2.321L138.193,59.096z"/>
<path fill="#B2B6B2" stroke="#B3B8B3" stroke-miterlimit="10" d="M121.919,74.441c0,0-2.225,3.208,0.785,4.188"/>
<path fill="#B2B6B2" stroke="#B3B8B3" stroke-miterlimit="10" d="M124.141,78.629c0,0,1.572-0.429,1.963,0.708"/>
<path fill="#B2B6B2" stroke="#B3B8B3" stroke-miterlimit="10" d="M128.064,80.474c0,0,1.571,1.106,2.486,0"/>
<path fill="#B2B6B2" stroke="#B3B8B3" stroke-miterlimit="10" d="M131.598,79.336c0,0,2.484-1.565,2.742-0.708"/>
<path fill="#B2B6B2" stroke="#B3B8B3" stroke-miterlimit="10" d="M136.434,73.71c0,0,1.178,1.344,1.047,2.823"/>
<path fill="none" stroke="#B3B8B3" stroke-miterlimit="10" d="M140.621,86.871c0,0-6.148,6.111-9.023,5.765
	c0,0-3.27,0.751-6.475-0.6c0,0-5.95-2.952-6.604-5.165c0,0,2.876,0.617,4.186,0c0,0,3.137-1.654,3.399-1.503
	c0.262,0.148,3.203,0.766,3.203,0.766l2.812-0.777c0,0,2.35,0.899,3.725,0.899L140.621,86.871z"/>
<path fill="#B2B6B2" stroke="#B3B8B3" stroke-miterlimit="10" d="M139.967,86.871l-9.417,1.045c-1.57,0.675-2.486,0.307-2.486,0.307
	c-1.047-0.124-3.923-0.616-3.923-0.616s-2.081,0.93-5.095-0.272"/>
<path fill="none" stroke="#B3B8B3" stroke-miterlimit="10" d="M134.34,87.732c1.504-0.534,0-0.33,0-0.33"/>
<path fill="none" stroke="#B3B8B3" stroke-miterlimit="10" d="M143.975,56.284c0,0-3.93,1.54-0.342,3.941
	c0,0,2.824,1.457,3.844-1.116c0,0,0.943-1.88-1.02-2.825C146.457,56.284,144.771,55.859,143.975,56.284z"/>
<path fill="none" stroke="#B3B8B3" stroke-miterlimit="10" d="M113.336,56.27c0,0-3.854,1.425-0.334,3.647
	c0,0,2.764,1.351,3.767-1.033c0,0,0.923-1.738-1.003-2.614C115.766,56.27,114.117,55.875,113.336,56.27z"/>
<path fill="none" stroke="#B3B8B3" stroke-miterlimit="10" d="M162.352,58.861c-7.264,51.087-35.328,45.147-35.328,45.147
	c-27.666-6.346-30.412-50.991-30.412-50.991s-3.107-17.358,8.262-23.108c0,0,19.762-4.25,23.19-9.5c0,0,17.924,10.75,29.051,12.75
	C157.115,33.16,164.227,45.684,162.352,58.861z"/>
<path fill="none" stroke="#B3B8B3" stroke-miterlimit="10" d="M105.404,352.858c0,0,9.267,15.263,24.303,12.157"/>
<path fill="none" stroke="#B3B8B3" stroke-miterlimit="10" d="M106.493,56.132c0,0,5.021-4.461,14.635,0.158"/>
<path fill="none" stroke="#B3B8B3" stroke-miterlimit="10" d="M137.49,56.553c0,0,6.248-4.198,14.625-0.42"/>
<path fill="none" stroke="#B3B8B3" stroke-miterlimit="10" d="M83.807,126.977c-6.784-4.433-2.049-51.855-2.049-51.855
	C77.215,36.834,94.652,13.91,94.652,13.91c9.108-19.5,33.869-11.5,33.869-11.5s18.288-8,30.686,8.75
	c0,0,24.768,32.112,18.205,69.806c0,0,3.727,49.053,1.105,50.624"/>
<path fill="none" stroke="#B3B8B3" stroke-miterlimit="10" d="M151.645,351.913c0,0-11.266,16.263-26.302,13.157"/>
<path fill="none" stroke="#B3B8B3" stroke-miterlimit="10" d="M39.279,417.176l0.485-12.605c0.763-1.438,6.619-22.961,4.957-35.934"
	/>
<path fill="none" stroke="#B3B8B3" stroke-miterlimit="10" d="M27.992,366.109c0,0-0.086,4.374-1.78,5.126
	c0,0-2.18,1.743-2.907,2.994c0,0-9.194,5.999-12.826,10.745c0,0-3.39,3.002-4.602,4.253c0,0-5.079,0.493-5.322,3.25
	c0,0-1.207,3.493,7.743,1.991c0,0,5.323-3.248,7.99-4.249c0,0,0.725,0.75,0,4.625c0,0-3.874,11.374-3.874,19.37
	c0,0-0.728,7.239,1.696,8.743c0,0,3.143,3.494,3.872-8.252c0,0,1.21-9.738,2.661-11.989c0,0,0.967,4.746,0.483,7.001
	c0,0-0.724,4.497-1.45,6.744c0,0-1.454,9.239-0.728,10.492c0.728,1.254,0.728,1.254,0.728,1.254s2.421,3.244,4.115-1.998
	c0,0,0.965-6,1.207-9.248c0,0,1.693-9.245,2.661-11.245l1.457-0.247c-7.831,29.337-0.723,26.128,0,23.844
	c0.706-2.232,1.205-2.095,1.205-2.095c0.972-3.5,3.147-22.754,3.147-22.754l1.213-0.248c0,0,0.381,34.053,4.597,8.064"/>
<path fill="none" stroke="#B3B8B3" stroke-miterlimit="10" d="M401.527,358.801c5.486,3.318,24.264,22.64,48.461,2.129
	c0,0,26.686,21.315,48.76-0.079"/>
<path fill="none" stroke="#B3B8B3" stroke-miterlimit="10" d="M449.175,362.928c-3.468,2.239-3.699,118.57-3.699,118.57
	s-2.5,10.75-2.002,28.575c0,0,7.001,117.924,1.501,149.969c-0.757,4.405,3.127,12.977,3.127,12.977c1.124,5.229,0,17.818,0,17.818
	c-13.881,13.54-31.641-11.167-31.641-11.167c-6.504-4.752,0.502-6.651,0.502-6.651c-1.501-2.852,5.003-2.379,5.003-2.379
	c-1.999-2.852,7.386-3.324,7.386-3.324c1.926-3.124,0.367-9.271,0.367-9.271c3.001-14.256-24.477-96.946-24.477-96.946
	c-14.723-42.771-0.039-86.256-0.039-86.256c0.994-9.266-18.754-98.092-18.754-98.092c-20.258-50.611,17.758-109.347,17.758-109.347
	c5.252-14.97-13.756-92.905-13.756-92.905"/>
<path fill="none" stroke="#B3B8B3" stroke-miterlimit="10" d="M452.176,362.514c-3.001,19.484,5.305,126.884,5.305,126.884
	c0.999,15.444-5.004,63.921-5.004,63.921c-0.499,18.057,3.002,106.31,3.002,106.31c-3.501,1.28-3.002,8.935-3.002,8.935
	c-0.969,5.529-1.378,4.358-4.375,9.507c1.626,5.228,3.376,10.69,3.376,10.69c10.004,9.263,15.007,0,15.007,0
	c3.002-0.717,15.344-12.594,15.344-12.594c4.84-4.751-3.001-4.751-3.001-4.751c0.838-4.276-2.838-4.751-2.838-4.751
	c-1.501-6.177-4.501,0-4.501,0c1.501-3.802-2.002-8.555-2.002-8.555c-2.003-4.276,0-10.695,0-10.695l27.386-109.778
	c0,0,4.128-32.079-4.126-62.732l14.338-81.264l1.824-16.633c22.846-32.731-16.162-112.394-16.162-112.394s4.71-49.635,8.254-59.879
	c0,0,3.502-12.591,6.003-23.521"/>
<path fill="none" stroke="#B3B8B3" stroke-miterlimit="10" d="M476.238,160.777c0,0-11.504,15.208,4.126,29.464"/>
<path fill="none" stroke="#B3B8B3" stroke-miterlimit="10" d="M424.968,160.777c0,0,12.004,19.485-3.002,29.464"/>
<path fill="none" stroke="#B3B8B3" stroke-miterlimit="10" d="M440.016,316.491c12.252,0,9.973,44.439,9.973,44.439
	s-2.514-40.682,12.526-44.439"/>
<path fill="none" stroke="#B3B8B3" stroke-miterlimit="10" d="M355.72,417.422l0.485-12.604c0.763-1.438,6.619-22.961,4.957-35.934"
	/>
<path fill="none" stroke="#B3B8B3" stroke-miterlimit="10" d="M428.915,86.727c0,0,5.597,27.701-38.921,31.076
	c0,0-28.491,4.635-27.9,36.177l-0.184,43.546c0,0,0.574,35.238,0,42.84c0,0-13.794,60.553-15.441,99.996
	c0,0-0.564,26.452-2.036,28.522c0,0-0.086,4.413-1.78,5.171c0,0-2.18,1.761-2.907,3.021c0,0-9.194,6.054-12.826,10.842
	c0,0-3.39,3.029-4.602,4.291c0,0-5.079,0.499-5.322,3.279c0,0-1.207,3.525,7.743,2.011c0,0,5.323-3.277,7.99-4.287
	c0,0,0.725,0.756,0,4.666c0,0-3.874,11.476-3.874,19.544c0,0-0.728,7.305,1.696,8.823c0,0,3.143,3.525,3.872-8.326
	c0,0,1.21-9.826,2.661-12.099c0,0,0.967,4.79,0.483,7.064c0,0-0.724,4.537-1.45,6.805c0,0-1.454,9.323-0.728,10.586
	c0.728,1.266,0.728,1.266,0.728,1.266s2.421,3.273,4.115-2.015c0,0,0.965-6.056,1.207-9.333c0,0,1.693-9.327,2.661-11.346
	l1.457-0.249c-7.831,29.601-0.723,26.362,0,24.059c0.706-2.253,1.205-2.113,1.205-2.113c0.972-3.532,3.147-22.959,3.147-22.959
	l1.213-0.25c0,0,0.381,34.359,4.597,8.136"/>
<path fill="none" stroke="#B3B8B3" stroke-miterlimit="10" d="M362.035,369.843c-4.965,16.031,28.172-116.797,27.959-117.919
	c0,0,4.002-47.525,5.252-62.359"/>
<path fill="none" stroke="#B3B8B3" stroke-miterlimit="10" d="M459.464,8.021c9.107,2.511,31.668,11.843,22.334,39.93
	c0,0,6-0.339,2.666,11.504c0,0-1.332,17.258-6.666,10.152c0,0-2.092,10.673-2.911,15.179"/>
<path fill="none" stroke="#B3B8B3" stroke-miterlimit="10" d="M427.799,97.356c0,0,3.666-16.919-0.668-26.056c0,0-6,5.076-7-11.167
	c0,0-6.666-13.536,2-12.183c-2.865-16.949,2.021-44.179,37.333-39.93"/>
<path fill="none" stroke="#B3B8B3" stroke-miterlimit="10" d="M546.81,419.385l-0.486-12.606
	c-0.762-1.436-6.618-22.959-4.957-35.932"/>
<path fill="none" stroke="#B3B8B3" stroke-miterlimit="10" d="M474.887,84.787c0,0-9.974,27.603,37.648,34.978
	c0,0,18.271,2.584,24.899,36.177l2.185,43.546c0,0,0.426,35.238,1,42.839c0,0,13.794,60.553,15.44,99.997
	c0,0,0.565,26.451,2.037,28.523c0,0,0.086,4.413,1.78,5.171c0,0,2.18,1.761,2.907,3.02c0,0,9.194,6.054,12.826,10.844
	c0,0,3.39,3.029,4.602,4.289c0,0,5.078,0.501,5.322,3.279c0,0,1.207,3.525-7.744,2.011c0,0-5.322-3.277-7.989-4.285
	c0,0-0.725,0.756,0,4.664c0,0,3.874,11.476,3.874,19.546c0,0,0.728,7.303-1.696,8.821c0,0-3.143,3.527-3.872-8.324
	c0,0-1.211-9.828-2.661-12.099c0,0-0.968,4.791-0.483,7.062c0,0,0.724,4.539,1.45,6.807c0,0,1.454,9.323,0.728,10.587
	c-0.728,1.263-0.728,1.263-0.728,1.263s-2.421,3.275-4.115-2.013c0,0-0.965-6.058-1.207-9.333c0,0-1.694-9.329-2.661-11.348
	l-1.457-0.247c7.831,29.599,0.723,26.362,0,24.057c-0.706-2.253-1.205-2.113-1.205-2.113c-0.973-3.529-3.147-22.959-3.147-22.959
	l-1.214-0.25c0,0-0.38,34.361-4.596,8.136"/>
<path fill="none" stroke="#B3B8B3" stroke-miterlimit="10" d="M541.494,371.804c0.906,23.312-29.171-116.796-28.959-117.919
	c0,0-7.002-47.524-8.253-62.358"/>
</svg>
