<?xml version="1.0" encoding="utf-8"?>
<!-- Generator: Adobe Illustrator 15.0.2, SVG Export Plug-In  -->
<!DOCTYPE svg PUBLIC "-//W3C//DTD SVG 1.1//EN" "http://www.w3.org/Graphics/SVG/1.1/DTD/svg11.dtd" [
	<!ENTITY ns_flows "http://ns.adobe.com/Flows/1.0/">
]>
<svg version="1.1"
	 xmlns="http://www.w3.org/2000/svg" xmlns:xlink="http://www.w3.org/1999/xlink" xmlns:a="http://ns.adobe.com/AdobeSVGViewerExtensions/3.0/"
	 x="0px" y="0px" width="700px" height="700px" viewBox="-192.715 -2.047 700 700"
	 overflow="visible" enable-background="new -192.715 -2.047 700 700" xml:space="preserve">
<defs>
</defs>
<path fill="none" stroke="#B3B8B3" stroke-miterlimit="10" d="M82.275,172.964c0,0,56.664-52.326,111.689,2.269"/>
<path fill="none" stroke="#B3B8B3" stroke-miterlimit="10" d="M84.184,184.461c0,0,54.664-53.341,109.689,1.253"/>
<path fill="none" stroke="#B3B8B3" stroke-miterlimit="10" d="M176.337,629.714C176.337,629.714,174.3,638.426,176.337,629.714
	c2.038-8.715-2.963-22.907-2.963-22.907c-7.678-5.024,17.427-104.978,17.427-104.978s4.991-26.148-6.428-35.303"/>
<path fill="none" stroke="#B3B8B3" stroke-miterlimit="10" d="M26.842,398.744c0,0,10.543-40.783,18.636-53.317"/>
<path fill="none" stroke="#B3B8B3" stroke-miterlimit="10" d="M45.478,345.427c0,0,18.921-126.72,22.667-139.759"/>
<path fill="none" stroke="#B3B8B3" stroke-miterlimit="10" d="M46.314,259.159c0,0,16.279-29.279,21.31-51.392"/>
<text transform="matrix(0.9806 0 0 1 119.1523 518.0229)" fill="#010101" font-family="'MyriadPro-Regular'" font-size="12.1357">L4</text>
<text transform="matrix(0.9806 0 0 1 149.1133 480.8843)" fill="#010101" font-family="'MyriadPro-Regular'" font-size="12.1357">L3</text>
<text transform="matrix(0.9806 0 0 1 133.5781 280.4722)" fill="#010101" font-family="'MyriadPro-Regular'" font-size="12.1357">L2</text>
<text transform="matrix(0.9806 0 0 1 134.2285 266.8447)" fill="#010101" font-family="'MyriadPro-Regular'" font-size="12.1357">L1</text>
<text transform="matrix(0.9806 0 0 1 130.9941 250.6055)" fill="#010101" font-family="'MyriadPro-Regular'" font-size="12.1357">T12</text>
<text transform="matrix(0.9806 0 0 1 131.5781 239.7188)" fill="#010101" font-family="'MyriadPro-Regular'" font-size="12.1357">T11</text>
<text transform="matrix(0.9806 0 0 1 130.9941 227.9961)" fill="#010101" font-family="'MyriadPro-Regular'" font-size="12.1357">T10</text>
<text transform="matrix(0.9806 0 0 1 135.2285 215.9893)" fill="#010101" font-family="'MyriadPro-Regular'" font-size="12.1357">T9</text>
<text transform="matrix(0.9806 0 0 1 133.5781 204.0547)" fill="#010101" font-family="'MyriadPro-Regular'" font-size="12.1357">T8</text>
<text transform="matrix(0.9806 0 0 1 133.5781 181.5166)" fill="#010101" font-family="'MyriadPro-Regular'" font-size="12.1357">T6</text>
<text transform="matrix(0.9806 0 0 1 295.9414 267.3145)" fill="#010101" font-family="'MyriadPro-Regular'" font-size="12.1357">S1</text>
<text transform="matrix(0.9806 0 0 1 101.373 446.6235)" fill="#010101" font-family="'MyriadPro-Regular'" font-size="12.1357">S2</text>
<text transform="matrix(0.9806 0 0 1 169.3438 450.5415)" fill="#010101" font-family="'MyriadPro-Regular'" font-size="12.1357">S2</text>
<text transform="matrix(0.9806 0 0 1 158.1816 338.0859)" fill="#010101" font-family="'MyriadPro-Regular'" font-size="12.1357">S3</text>
<text transform="matrix(0.9806 0 0 1 133.7949 354.3237)" fill="#010101" font-family="'MyriadPro-Regular'" font-size="12.1357">S4</text>
<text transform="matrix(0.9806 0 0 1 45.4775 433.8608)" fill="#010101" font-family="'MyriadPro-Regular'" font-size="12.1357">S5</text>
<text transform="matrix(0.9806 0 0 1 126.9102 682.4937)" fill="#010101" font-family="'MyriadPro-Regular'" font-size="12.1357">S1</text>
<text transform="matrix(0.9806 0 0 1 70.3057 618.9458)" fill="#010101" font-family="'MyriadPro-Regular'" font-size="12.1357">L5</text>
<text transform="matrix(0.9806 0 0 1 204.8184 663.6948)" fill="#010101" font-family="'MyriadPro-Regular'" font-size="12.1357">L5</text>
<path fill="none" stroke="#B3B8B3" stroke-miterlimit="10" d="M45.478,410.345l0.485-12.604c0.763-1.438,6.619-22.961,4.957-35.934"
	/>
<path fill="none" stroke="#B3B8B3" stroke-miterlimit="10" d="M118.673,79.649c0,0,5.597,27.701-38.921,31.076
	c0,0-28.491,4.635-27.9,36.177l-0.184,43.546c0,0,0.574,35.238,0,42.839c0,0-13.794,60.553-15.441,99.997
	c0,0-0.564,26.452-2.036,28.522c0,0-0.086,4.413-1.78,5.171c0,0-2.18,1.761-2.907,3.021c0,0-9.194,6.054-12.826,10.842
	c0,0-3.39,3.029-4.602,4.291c0,0-5.079,0.499-5.322,3.279c0,0-1.207,3.525,7.743,2.011c0,0,5.323-3.277,7.99-4.287
	c0,0,0.725,0.756,0,4.666c0,0-3.874,11.476-3.874,19.544c0,0-0.728,7.305,1.696,8.823c0,0,3.143,3.525,3.872-8.326
	c0,0,1.21-9.826,2.661-12.099c0,0,0.967,4.79,0.483,7.064c0,0-0.724,4.537-1.45,6.805c0,0-1.454,9.323-0.728,10.586
	c0.728,1.266,0.728,1.266,0.728,1.266s2.421,3.273,4.115-2.015c0,0,0.965-6.056,1.207-9.333c0,0,1.693-9.327,2.661-11.346
	l1.457-0.249c-7.831,29.601-0.723,26.362,0,24.059c0.706-2.253,1.205-2.113,1.205-2.113c0.972-3.532,3.147-22.959,3.147-22.959
	l1.213-0.25c0,0,0.381,34.359,4.597,8.136"/>
<path fill="none" stroke="#B3B8B3" stroke-miterlimit="10" d="M51.793,362.766c-4.965,16.031,28.172-116.797,27.959-117.919
	c0,0,4.002-47.525,5.252-62.359"/>
<path fill="none" stroke="#B3B8B3" stroke-miterlimit="10" d="M91.328,351.317c5.486,3.368,24.264,22.983,48.461,2.161
	c0,0,26.686,21.639,48.76-0.081"/>
<path fill="none" stroke="#B3B8B3" stroke-miterlimit="10" d="M138.976,355.506c-3.468,2.273-3.699,120.369-3.699,120.369
	s-2.5,10.913-2.002,29.01c0,0,7.001,119.713,1.501,152.244c-0.757,4.472,3.127,13.174,3.127,13.174c1.124,5.308,0,18.089,0,18.089
	c-13.881,13.744-31.641-11.338-31.641-11.338c-6.504-4.824,0.502-6.751,0.502-6.751c-1.501-2.895,5.003-2.415,5.003-2.415
	c-1.999-2.895,7.386-3.375,7.386-3.375c1.926-3.172,0.367-9.412,0.367-9.412c3.001-14.472-24.477-98.416-24.477-98.416
	c-14.723-43.421-0.039-87.565-0.039-87.565c0.994-9.406-18.754-99.58-18.754-99.58c-20.258-51.38,17.758-111.006,17.758-111.006
	c5.252-15.197-13.756-94.315-13.756-94.315"/>
<path fill="none" stroke="#B3B8B3" stroke-miterlimit="10" d="M196.804,171.034c-2.501,11.096-6.003,23.878-6.003,23.878
	c-3.544,10.399-8.254,60.788-8.254,60.788s36.363,76.632,16.162,114.1l-1.824,16.886l-8.814,94.201"/>
<path fill="none" stroke="#B3B8B3" stroke-miterlimit="10" d="M141.977,355.085c-3.001,19.78,4.852,101.997,4.852,101.997
	s-2.172,39.808,2.286,44.991"/>
<path fill="none" stroke="#B3B8B3" stroke-miterlimit="10" d="M118.391,73.084c0,0,5.332,1.693,11-2.03c0,0,6.334-4.737,7.666-7.444
	c0,0,6.332-2.707,10.667,0c0,0,5,7.107,6.334,7.444c4.523,1.772,3.479,4.071,11.502,2.414l0,0"/>
<path fill="none" stroke="#B3B8B3" stroke-miterlimit="10" d="M149.222,0.944c9.107,2.511,31.668,11.843,22.334,39.93
	c0,0,6-0.339,2.666,11.504c0,0-1.332,17.258-6.666,10.152c0,0-2.092,10.673-2.911,15.179"/>
<path fill="none" stroke="#B3B8B3" stroke-miterlimit="10" d="M117.557,90.279c0,0,3.666-16.919-0.668-26.056c0,0-6,5.076-7-11.167
	c0,0-6.666-13.536,2-12.183c-2.865-16.949,2.021-44.179,37.333-39.93"/>
<text transform="matrix(0.985 0 0 1 136.5566 80.8037)" fill="#010101" font-family="'MyriadPro-Regular'" font-size="12.1821">C3</text>
<text transform="matrix(0.985 0 0 1 135.4238 42.397)" fill="#010101" font-family="'MyriadPro-Regular'" font-size="12.1821">C2</text>
<path fill="none" stroke="#B3B8B3" stroke-miterlimit="10" d="M79.734,111.729c0,0,20.988,6.092,34.322-8.459
	c0,0,4.844-3.634,12.422-5.899c8.936-2.671,21.671-3.439,34.747,5.899c0,0,5.498,10.829,29.498,7.445"/>
<text transform="matrix(0.985 0 0 1 133.5781 108.2314)" fill="#010101" font-family="'MyriadPro-Regular'" font-size="12.1821">C4</text>
<path fill="none" stroke="#B3B8B3" stroke-miterlimit="10" d="M58.21,126.842c0,0,139.722,5.075,157.694-1.015"/>
<path fill="none" stroke="#B3B8B3" stroke-miterlimit="10" d="M76.789,259.55c0,0-17.021-52.609-4.672-104.805
	c0,0,23.03-39.062,62.414-16.938c0,0,7.344,5.096,27.703-6.785c0,0,40.719-4.621,49.397,35.13c0,0,5.535,74.685-6.812,93.007"/>
<path fill="none" stroke="#B3B8B3" stroke-miterlimit="10" d="M116.444,130.857c0,0,15.028-14.854,23.348-13.838
	c0,0,9.99,0.676,23.821,12.521"/>
<text transform="matrix(0.985 0 0 1 133.5781 126.8428)" fill="#010101" font-family="'MyriadPro-Regular'" font-size="12.1821">C5</text>
<text transform="matrix(0.985 0 0 1 133.5781 138.0093)" fill="#010101" font-family="'MyriadPro-Regular'" font-size="12.1821">C6</text>
<text transform="matrix(0.985 0 0 1 84.2119 153.4604)" fill="#010101" font-family="'MyriadPro-Regular'" font-size="12.1821">T2</text>
<path fill="none" stroke="#B3B8B3" stroke-miterlimit="10" d="M114.463,109.585c0,0,8.334,37.899-11.332,48.728"/>
<path fill="none" stroke="#B3B8B3" stroke-miterlimit="10" d="M168.03,111.107c0,0-15.332,32.147,10.668,50.759"/>
<text transform="matrix(0.985 0 0 1 133.5781 148.1426)" fill="#010101" font-family="'MyriadPro-Regular'" font-size="12.1821">T3</text>
<text transform="matrix(0.985 0 0 1 133.5781 161.8662)" fill="#010101" font-family="'MyriadPro-Regular'" font-size="12.1821">T4</text>
<path fill="none" stroke="#B3B8B3" stroke-miterlimit="10" d="M86.823,194.103c12.012,0.531,15.303-7.124,24.013-14.202
	c9.495-7.717,20.469-9.608,32.699-9.052c10.714,0.487,21.552,5.134,30.171,10.829c7.324,4.839,8.153,11.147,17.095,13.233"/>
<g>
	<text transform="matrix(0.985 0 0 1 133.5781 172.4023)" fill="#010101" font-family="'MyriadPro-Regular'" font-size="12.1821">T5</text>
</g>
<path fill="none" stroke="#B3B8B3" stroke-miterlimit="10" d="M89.986,204.86c11.318,0.532,14.419-7.124,22.626-14.201
	c8.947-7.717,19.288-9.608,30.812-9.052c10.096,0.487,20.308,5.134,28.43,10.829c6.901,4.839,7.683,11.146,16.108,13.232"/>
<path fill="none" stroke="#B3B8B3" stroke-miterlimit="10" d="M92.289,218.007c10.83,0.531,14.797-7.124,22.649-14.202
	c8.562-7.717,18.455-9.608,29.482-9.052c9.658,0.487,19.43,5.134,27.201,10.829c6.604,4.839,7.352,11.146,15.413,13.232"/>
<text transform="matrix(0.985 0 0 1 133.5781 191.7026)" fill="#010101" font-family="'MyriadPro-Regular'" font-size="12.1821">T7</text>
<path fill="none" stroke="#B3B8B3" stroke-miterlimit="10" d="M94.656,229.48c10.402,0.531,14.213-7.124,21.755-14.202
	c8.224-7.717,17.728-9.608,28.319-9.052c9.276,0.487,18.663,5.135,26.128,10.829c6.342,4.838,7.061,11.146,14.805,13.231"/>
<path fill="none" stroke="#B3B8B3" stroke-miterlimit="10" d="M94.176,240.644c10.311,0.531,14.087-7.124,21.562-14.202
	c8.15-7.717,17.568-9.608,28.066-9.052c9.194,0.487,18.497,5.134,25.896,10.829c6.286,4.838,6.998,11.146,14.673,13.231"/>
<text transform="matrix(0.985 0 0 1 183.2959 152.8086)" fill="#010101" font-family="'MyriadPro-Regular'" font-size="12.1821">T2</text>
<path fill="none" stroke="#B3B8B3" stroke-miterlimit="10" d="M93.967,252.013c10.188,0.531,13.918-7.124,21.305-14.202
	c8.053-7.717,17.359-9.608,27.732-9.052c9.083,0.487,18.275,5.134,25.585,10.829c6.211,4.838,6.915,11.146,14.498,13.231"/>
<path fill="none" stroke="#B3B8B3" stroke-miterlimit="10" d="M90.064,264.088c10.811,0.531,14.771-7.124,22.61-14.202
	c8.546-7.717,18.423-9.608,29.432-9.052c9.64,0.487,19.396,5.134,27.152,10.829c6.592,4.838,8.34,11.146,16.387,13.231"/>
<path fill="none" stroke="#B3B8B3" stroke-miterlimit="10" d="M84.438,278.113c12.271,0.531,16.767-7.124,25.664-14.202
	c9.699-7.717,20.91-9.608,33.404-9.052c10.942,0.487,22.015,5.134,30.819,10.829c7.482,4.838,9.467,11.146,18.6,13.231"/>
<path fill="none" stroke="#B3B8B3" stroke-miterlimit="10" d="M73.051,314.081c13.859,1.643,24.494-14.098,31.734-24.377
	c3.982-5.654,8.305-11.3,13.987-15.405c5.671-4.096,12.278-4.63,18.847-4.988c9.701-0.528,22.811,4.93,29.996,11.763
	c3.868,3.677,6.244,9.297,9.307,13.835c3.12,4.625,6.88,9.211,11.032,12.592c3.82,3.107,11.656,9.603,16.355,10.57"/>
<path fill="none" stroke="#B3B8B3" stroke-miterlimit="10" d="M92.289,446.624c0,0,1.475-100.197,3.475-105.612
	c0,0,9.333-51.096,40.333-58.879c0,0,31.272-8.745,47.904,58.879l5.662,119.379"/>
<path fill="none" stroke="#B3B8B3" stroke-miterlimit="10" d="M136.067,314.176c6.666,2.902,3,39.255,3,39.255s0.334-38.24,5-39.255
	"/>
<path fill="none" stroke="#B3B8B3" stroke-miterlimit="10" d="M136.229,391.254c0,0-11.306,20.128-21.931,12.599
	c-2.559-1.812-5.319-5.107-8.23-10.492c0,0-31.334-46.36,3.666-77.831c0,0,29.667-25.717,64.667,9.137c0,0,16.333,22.334,3,57.188
	c0,0-11.954,34.948-35.621,9.231"/>
<path fill="none" stroke="#B3B8B3" stroke-miterlimit="10" d="M138.702,345.843c-9.837-3.175-3.138-23.831,4.847-17.083
	C149.261,333.587,145.488,348.032,138.702,345.843z"/>
<path fill="none" stroke="#B3B8B3" stroke-miterlimit="10" d="M138.171,359.156c-14.506-5.975-4.627-44.843,7.147-32.146
	C153.742,336.092,148.18,363.276,138.171,359.156z"/>
<path fill="none" stroke="#B3B8B3" stroke-miterlimit="10" d="M116.352,311.647c7.224-8.059,16.101-15.913,27.354-12.895
	c4.635,1.243,8.063,4.713,11.979,7.818c3.005,2.383,5.012,7.619,8.47,8.731"/>
<path fill="none" stroke="#B3B8B3" stroke-miterlimit="10" d="M116.067,311.13c4.086-7.865,11.668-24.024,22.017-24.026
	c12.352-0.002,16.749,11.427,19.649,15.664c3.891,7.798,5.104,10.529,6.421,12.534"/>
<path fill="none" stroke="#B3B8B3" stroke-miterlimit="10" d="M156.829,483.921c0,0-10.001,19.415-10.001,22.461"/>
<path fill="none" stroke="#B3B8B3" stroke-miterlimit="10" d="M152.005,623.429c0,0,17-26.396,24.332,6.43
	c0,0-5.4,17.369-1.106,20.617c0,0,7.108,28.113,2.774,34.541"/>
<path fill="none" stroke="#B3B8B3" stroke-miterlimit="10" d="M157.337,663.697c0,0,5.668-0.339,10,8.121l1.668-8.123"/>
<path fill="none" stroke="#B3B8B3" stroke-miterlimit="10" d="M152.005,682.985c0,0,3.5,1.216,5.916,3.187s3.75,4.693-0.584,7.707"
	/>
<path fill="none" stroke="#B3B8B3" stroke-miterlimit="10" d="M157.921,686.171c10.918-3.242,20.084-1.154,20.084-1.154
	s0.334,6.429-2,6.429c0,0-3.668,1.693-6.668,0c0,0-3,1.844-4.666,0.753c-1.666-1.09-2.666,1.441-4.666,0.345
	c-2-1.098-4.666,6.738-10,0.282c0,0-2.335-3.781-0.334-10.872c2-7.088,0.666-1.675,0.666-1.675s-2.999-19.289-1.332-23.35
	c0,0,0.998-2.706,2.666-5.752l0.334-27.748c0,0-4.495-7.412-0.668-17.259l-2.223-36.144c0,0-5.548-46.639-2.286-63.645"/>
<path fill="none" stroke="#B3B8B3" stroke-miterlimit="10" d="M164.671,692.199c0,0,0.838-6.767-1.5-6.767"/>
<path fill="none" stroke="#B3B8B3" stroke-miterlimit="10" d="M169.337,691.446c0,0,0.238-6.889-2.207-6.746"/>
<path fill="none" stroke="#B3B8B3" stroke-miterlimit="10" d="M173.671,691.446c0,0-0.668-2.844,0-6.167"/>
<path fill="none" stroke="#B3B8B3" stroke-miterlimit="10" d="M160.169,636.963c0,0,5.502,7.105,10.836,0"/>
<path fill="none" stroke="#B3B8B3" stroke-miterlimit="10" d="M173.097,618.946c0,0-9.986-17.258-7.445-25.38
	c0,0,24.419-91.361,22.419-112.68"/>
<path fill="none" stroke="#B3B8B3" stroke-miterlimit="10" d="M155.729,618.584c0,0,9.145-45.617,7.334-114.298
	c-0.719-27.279-2.959-70.639-8.393-103.78"/>
<path fill="none" stroke="#B3B8B3" stroke-miterlimit="10" d="M160.228,488.089c-8.7,8.319-7.264,6.853-13.399,18.293"/>
<path fill="none" stroke="#B3B8B3" stroke-miterlimit="10" d="M161.211,556.451c0,0,7.501,7.892,14.051,1.307"/>
<path fill="none" stroke="#B3B8B3" stroke-miterlimit="10" d="M151.671,651.177c0,0,15,17.773,12.803,33.529"/>
<text transform="matrix(0.985 0 0 1 149.1133 540.8608)" fill="#010101" font-family="'MyriadPro-Regular'" font-size="12.1821">L4</text>
<text transform="matrix(0.985 0 0 1 160.168 652.1929)" fill="#010101" font-family="'MyriadPro-Regular'" font-size="12.1821">S1</text>
<text transform="matrix(0.985 0 0 1 192.3379 602.7866)" fill="#010101" font-family="'MyriadPro-Regular'" font-size="12.1821">L5</text>
<line fill="#FFFFFF" stroke="#010101" stroke-miterlimit="10" x1="169.343" y1="602.787" x2="192.337" y2="599.741"/>
<path fill="none" stroke="#B3B8B3" stroke-miterlimit="10" d="M112.885,668.053c-2.398-3.405-1.744-0.775-1.744-0.775
	s16.135,31.464,13.301,0.775c0,0-0.306-47.416-3.424-53.206c0,0-20.282-68.165-19.629-74.6"/>
<path fill="none" stroke="#B3B8B3" stroke-miterlimit="10" d="M133.274,504.885c0,0-7.095-7.478-14.122-14.104
	c0,0-3.078-80.211,2.759-85.053"/>
<path fill="none" stroke="#B3B8B3" stroke-miterlimit="10" d="M119.152,490.782c0,0,8.827,147.77,10.863,153.349
	c0,0,1.63,15.139,4.889,17.929"/>
<path fill="none" stroke="#B3B8B3" stroke-miterlimit="10" d="M95.004,469.12c0,0,0.558,58.641,6.385,71.128
	c0,0,10.592,9.797,20.334-7.673"/>
<line fill="none" stroke="#010101" stroke-miterlimit="10" x1="158.182" y1="676.376" x2="198.709" y2="662.178"/>
<line fill="#FFFFFF" stroke="#010101" stroke-miterlimit="10" x1="86.823" y1="618.188" x2="119.917" y2="631.385"/>
<text transform="matrix(0.985 0 0 1 189.6621 351.3169)" fill="#010101" font-family="'MyriadPro-Regular'" font-size="12.1821">L2</text>
<text transform="matrix(0.985 0 0 1 79.7344 346.3975)" fill="#010101" font-family="'MyriadPro-Regular'" font-size="12.1821">L2</text>
<text transform="matrix(0.985 0 0 1 164.6934 316.0029)" fill="#010101" font-family="'MyriadPro-Regular'" font-size="12.1821">L3</text>
<text transform="matrix(0.985 0 0 1 104.6406 315.3018)" fill="#010101" font-family="'MyriadPro-Regular'" font-size="12.1821">L3</text>
<text transform="matrix(0.9806 0 0 1 107.4404 338.0854)" fill="#010101" font-family="'MyriadPro-Regular'" font-size="12.1357">S3</text>
<line fill="#FFFFFF" stroke="#010101" stroke-miterlimit="10" x1="136.067" y1="338.086" x2="62.799" y2="425.581"/>
<text transform="matrix(0.9806 0 0 1 121.7227 480.8843)" fill="#010101" font-family="'MyriadPro-Regular'" font-size="12.1357">L3</text>
<line fill="none" stroke="#010101" stroke-miterlimit="10" x1="149.265" y1="304.774" x2="292.673" y2="281.406"/>
<line fill="none" stroke="#010101" stroke-miterlimit="10" x1="150.601" y1="296.954" x2="292.526" y2="267.315"/>
<text transform="matrix(0.985 0 0 1 295.9414 284.4048)" fill="#010101" font-family="'MyriadPro-Regular'" font-size="12.1821">S2</text>
<path fill="none" stroke="#B3B8B3" stroke-miterlimit="10" d="M35.315,401.522c0,0,10.495-51.297,10.162-56.095
	c0,0,6.242,21.353,5.315,18.355"/>
<text transform="matrix(0.985 0 0 1 70.3057 215.9893)" fill="#010101" font-family="'MyriadPro-Regular'" font-size="12.1821">T2</text>
<text transform="matrix(0.985 0 0 1 56.9688 287.1055)" fill="#010101" font-family="'MyriadPro-Regular'" font-size="12.1821">T1</text>
<text transform="matrix(0.985 0 0 1 3.0527 355.9663)" fill="#010101" font-family="'MyriadPro-Regular'" font-size="12.1821">C8</text>
<text transform="matrix(0.985 0 0 1 3.0527 373.4741)" fill="#010101" font-family="'MyriadPro-Regular'" font-size="12.1821">C6</text>
<text transform="matrix(0.985 0 0 1 0 413.4604)" fill="#010101" font-family="'MyriadPro-Regular'" font-size="12.1821">C7</text>
<line fill="#FFFFFF" stroke="#010101" stroke-miterlimit="10" x1="22.486" y1="355.085" x2="45.478" y2="379.125"/>
<line fill="none" stroke="#010101" stroke-miterlimit="10" x1="18.456" y1="371.077" x2="26.842" y2="379.125"/>
<line fill="none" stroke="#010101" stroke-miterlimit="10" x1="15.402" y1="401.522" x2="33.982" y2="392.566"/>
<path fill="none" stroke="#B3B8B3" stroke-miterlimit="10" d="M255.203,400.707c0,0-10.543-40.785-18.636-53.319"/>
<path fill="none" stroke="#B3B8B3" stroke-miterlimit="10" d="M236.567,347.388c0,0-19.922-125.704-23.668-138.743
	c0,0,14.903,47.043,21.799,48.062"/>
<path fill="none" stroke="#B3B8B3" stroke-miterlimit="10" d="M236.567,412.308l-0.486-12.606
	c-0.762-1.436-6.618-22.959-4.957-35.932"/>
<path fill="none" stroke="#B3B8B3" stroke-miterlimit="10" d="M164.645,77.709c0,0-9.974,27.603,37.648,34.978
	c0,0,18.271,2.584,24.899,36.177l2.185,43.546c0,0,0.426,35.238,1,42.839c0,0,13.794,60.553,15.44,99.997
	c0,0,0.565,26.451,2.037,28.523c0,0,0.086,4.413,1.78,5.171c0,0,2.18,1.761,2.907,3.02c0,0,9.194,6.054,12.826,10.844
	c0,0,3.39,3.029,4.602,4.289c0,0,5.078,0.501,5.322,3.279c0,0,1.207,3.525-7.744,2.011c0,0-5.322-3.277-7.989-4.285
	c0,0-0.725,0.756,0,4.664c0,0,3.874,11.476,3.874,19.546c0,0,0.728,7.303-1.696,8.821c0,0-3.143,3.527-3.872-8.324
	c0,0-1.211-9.828-2.661-12.099c0,0-0.968,4.791-0.483,7.062c0,0,0.724,4.539,1.45,6.807c0,0,1.454,9.323,0.728,10.587
	c-0.728,1.263-0.728,1.263-0.728,1.263s-2.421,3.275-4.115-2.013c0,0-0.965-6.058-1.207-9.333c0,0-1.694-9.329-2.661-11.348
	l-1.457-0.247c7.831,29.599,0.723,26.362,0,24.057c-0.706-2.253-1.205-2.113-1.205-2.113c-0.973-3.529-3.147-22.959-3.147-22.959
	l-1.214-0.25c0,0-0.38,34.361-4.596,8.136"/>
<path fill="none" stroke="#B3B8B3" stroke-miterlimit="10" d="M231.252,364.727c0.906,23.312-29.171-116.796-28.959-117.918
	c0,0-7.002-47.525-8.253-62.359"/>
<path fill="none" stroke="#B3B8B3" stroke-miterlimit="10" d="M246.729,403.485c0,0-10.495-51.299-10.162-56.097
	c0,0-6.242,21.353-5.315,18.355"/>
<text transform="matrix(0.985 0 0 1 278.5527 353.4312)" fill="#010101" font-family="'MyriadPro-Regular'" font-size="12.1821">C8</text>
<text transform="matrix(0.985 0 0 1 278.5527 375.4351)" fill="#010101" font-family="'MyriadPro-Regular'" font-size="12.1821">C6</text>
<text transform="matrix(0.985 0 0 1 281.4531 413.4604)" fill="#010101" font-family="'MyriadPro-Regular'" font-size="12.1821">C7</text>
<line fill="none" stroke="#010101" stroke-miterlimit="10" x1="275.347" y1="408.417" x2="248.062" y2="395.322"/>
<line fill="none" stroke="#010101" stroke-miterlimit="10" x1="255.203" y1="381.833" x2="275.347" y2="373.9"/>
<line fill="none" stroke="#010101" stroke-miterlimit="10" x1="238.944" y1="381.137" x2="275.347" y2="355.085"/>
<text transform="matrix(0.985 0 0 1 198.709 215.9888)" fill="#010101" font-family="'MyriadPro-Regular'" font-size="12.1821">T2</text>
<text transform="matrix(0.985 0 0 1 210.3086 148.1426)" fill="#010101" font-family="'MyriadPro-Regular'" font-size="12.1821">C5</text>
<text transform="matrix(0.985 0 0 1 56.8115 148.1426)" fill="#010101" font-family="'MyriadPro-Regular'" font-size="12.1821">C5</text>
</svg>
