<?xml version="1.0" encoding="utf-8"?>
<!-- Generator: Adobe Illustrator 15.0.2, SVG Export Plug-In  -->
<!DOCTYPE svg PUBLIC "-//W3C//DTD SVG 1.1//EN" "http://www.w3.org/Graphics/SVG/1.1/DTD/svg11.dtd" [
	<!ENTITY ns_flows "http://ns.adobe.com/Flows/1.0/">
]>
<svg version="1.1"
	 xmlns="http://www.w3.org/2000/svg" xmlns:xlink="http://www.w3.org/1999/xlink" xmlns:a="http://ns.adobe.com/AdobeSVGViewerExtensions/3.0/"
	 x="0px" y="0px" width="700px" height="700px" viewBox="-212.041 -1.719 700 700"
	 overflow="visible" enable-background="new -212.041 -1.719 700 700" xml:space="preserve">
<defs>
</defs>
<text transform="matrix(0.9482 0 0 1 136.959 132.3018)" fill="#010101" font-family="'MyriadPro-Regular'" font-size="12.0652">C3</text>
<text transform="matrix(0.9482 0 0 1 76.3198 146.4932)" fill="#010101" font-family="'MyriadPro-Regular'" font-size="12.0652">C4</text>
<path fill="none" stroke="#B3B8B3" stroke-miterlimit="10" d="M123.749,105.644c0,0,14.163,28.717,40.542-0.861"/>
<path fill="none" stroke="#B3B8B3" stroke-miterlimit="10" d="M146.741,289.146c0,0-2.704-4.673-3.194,3.155
	c0,0,0.737,6.17,3.194,3.238"/>
<path fill="none" stroke="#B3B8B3" stroke-miterlimit="10" d="M141.166,366.994h4.333c0,0,3.62,111.73,7.915,113.828l-2.01,20.018
	l-3.363,64.338"/>
<path fill="none" stroke="#B3B8B3" stroke-miterlimit="10" d="M94.099,213.509c0,0,9.337,44.742,4.324,59.423
	c0,0-34.365,74.104-15.035,123.741"/>
<path fill="none" stroke="#B3B8B3" stroke-miterlimit="10" d="M124.561,92.958c0,0-0.954,31.126-18.074,33.18
	c0,0,9.705-3.314-19.52,6.736c0,0-38.931-8.874-26.083,71.896c0,0,0.551,34.041,0,41.384c0,0-13.161,58.498-14.729,96.603
	c0,0-0.542,25.552-1.945,27.552"/>
<path fill="none" stroke="#B3B8B3" stroke-miterlimit="10" d="M193.645,213.509c-1.393,10.486-7.876,58.725-7.876,58.725
	s27.07,78.311,16.544,110.633l-2.863,15.902l-13.681,79.697c4.241,25.574,2.983,61.521,2.983,61.521l-24.461,97.381"/>
<path fill="none" stroke="#B3B8B3" stroke-miterlimit="10" d="M239.139,438.281c-1.732,2.615-5.439-22.432-5.439-22.432h-1.231l0,0
	v12.42v1.729c0,0-5.298,9.533-5.002-16.869c0,0-3.736-17.902-1.589-31.629l-6.421-18.619c0,0-19.966-67.114-22.829-98.133
	l-2.982-51.238"/>
<path fill="none" stroke="#B3B8B3" stroke-miterlimit="10" d="M239.139,438.281c2.221,0.818,3.213-1.469,3.213-1.469l-1.978-19.598
	l2.96,12.783l0.993,11.166c2.472,3.812,4.204,1.152,4.204,1.152c0.494-1.846-0.66-14.047-0.66-14.047l-1.318-14.053h0.986
	l3.463,19.055c0.246,3.541,2.72,3.268,2.72,3.268c3.702-0.273,0.249-22.322,0.249-22.322c-2.49-10.188-2.969-14.158-2.969-14.158
	c3.461,1.092,8.404,4.092,8.404,4.092c0.743,1.906,8.404,1.906,8.652,0c0.246-1.906-4.203-4.631-4.943-4.631
	s-4.202-3.268-4.945-4.086c2.932,3.219-1.843-4.24-17.926-17.658"/>
<path fill="none" stroke="#B3B8B3" stroke-miterlimit="10" d="M163.574,93.963c0,0,0,35.422,34.75,40.978c0,0,29.28,0,22.796,33.338
	c1.27,80.759,1.552,77.591,0.937,84.04c0,0,8.183,27.526,8.183,34.251c-0.25-6.457,11.096,92.107,10.005,91.205"/>
<path fill="none" stroke="#B3B8B3" stroke-miterlimit="10" d="M134.937,205.12c-4.381,21.672-30.07,14.525-30.07,14.525
	c-25.058-3.654-13.236-38.293-13.236-38.293"/>
<path fill="none" stroke="#B3B8B3" stroke-miterlimit="10" d="M193.514,184.293c0,0,0.443,1.438,0.947,3.75
	c2.033,9.34,5.061,32.958-16.065,33.872c0,0-26.013,5.927-29.314-15.926"/>
<path fill="none" stroke="#B3B8B3" stroke-miterlimit="10" d="M80.524,133.148c5.728-3.213,40.705,3.748,40.705,3.748l22.232,4.776
	l20.83-2.967c0,0,31.58-5.14,37.655-3.397"/>
<path fill="none" stroke="#B3B8B3" stroke-miterlimit="10" d="M112.505,57.238c-1.469-0.974-11.168-6.656-3.555,10.118
	c0,0,2.573,9.297,7.706,10.221L112.505,57.238z"/>
<path fill="none" stroke="#B3B8B3" stroke-miterlimit="10" d="M111.272,65.699c0,0-2.675-3.708,0-5.75c0,0,2.305,1.855,1.931,4.266
	c0,0-0.371,0.989-0.75,2.439c0,0,2.619,4.61,2.619,5.723l-1.869-0.739"/>
<path fill="none" stroke="#B3B8B3" stroke-miterlimit="10" d="M174.38,59.889c0,0,11.329-8.149,3.954,9.974
	c0,0-2.199,9.39-7.288,10.513L174.38,59.889z"/>
<path fill="none" stroke="#B3B8B3" stroke-miterlimit="10" d="M176.019,68.298c0,0,2.807-3.615,0.199-5.75
	c0,0-2.364,1.774-2.075,4.201c0,0,0.34,0.999,0.658,2.466c0,0-2.777,4.516-2.815,5.627l1.897-0.68"/>
<path fill="none" stroke="#B3B8B3" stroke-miterlimit="10" d="M149.217,51.253c0,0,14.918-2.055,17.441,1.52
	c0,0-2.338-0.73-4.223-0.484C162.436,52.289,148.105,53.815,149.217,51.253z"/>
<path fill="none" stroke="#B3B8B3" stroke-miterlimit="10" d="M136.465,50.821c-17.195-2.739-18.791,1.619-18.791,1.619
	s3.782-1.855,9.276-1.259c0,0,5.102,0.581,6.091,0.644C133.042,51.825,135.203,51.192,136.465,50.821"/>
<path fill="none" stroke="#B3B8B3" stroke-miterlimit="10" d="M135.183,59.389c0,0-4.091-5.515-12.139-1.477
	c0,0,2.043,4.961,11.27,1.558"/>
<path fill="none" stroke="#B3B8B3" stroke-miterlimit="10" d="M151.725,59.414c0.234-0.335,4.852-5.435,12.24-1.315
	c0,0-3.024,4.97-8.695,2.334L151.725,59.414z"/>
<path fill="#B2B6B2" stroke="#B3B8B3" stroke-miterlimit="10" d="M136.209,74.842c0,0-2.121,3.225,0.749,4.211"/>
<path fill="#B2B6B2" stroke="#B3B8B3" stroke-miterlimit="10" d="M138.328,79.053c0,0,1.499-0.431,1.872,0.711"/>
<path fill="#B2B6B2" stroke="#B3B8B3" stroke-miterlimit="10" d="M142.067,80.908c0,0,1.498,1.113,2.37,0"/>
<path fill="#B2B6B2" stroke="#B3B8B3" stroke-miterlimit="10" d="M145.437,79.764c0,0,2.368-1.574,2.614-0.711"/>
<path fill="#B2B6B2" stroke="#B3B8B3" stroke-miterlimit="10" d="M150.047,74.108c0,0,1.122,1.351,0.998,2.839"/>
<path fill="none" stroke="#B3B8B3" stroke-miterlimit="10" d="M154.039,87.34c0,0-5.862,6.143-8.603,5.796
	c0,0-3.118,0.755-6.173-0.604c0,0-5.673-2.968-6.296-5.193c0,0,2.742,0.62,3.99,0c0,0,2.99-1.663,3.241-1.512
	c0.249,0.149,3.053,0.771,3.053,0.771l2.682-0.781c0,0,2.24,0.905,3.551,0.905L154.039,87.34z"/>
<path fill="#B2B6B2" stroke="#B3B8B3" stroke-miterlimit="10" d="M153.414,87.34l-8.977,1.051c-1.496,0.679-2.37,0.309-2.37,0.309
	c-0.997-0.125-3.74-0.619-3.74-0.619s-1.984,0.935-4.857-0.274"/>
<path fill="none" stroke="#B3B8B3" stroke-miterlimit="10" d="M148.051,88.206c1.434-0.537,0-0.332,0-0.332"/>
<path fill="none" stroke="#B3B8B3" stroke-miterlimit="10" d="M157.236,56.586c0,0-3.748,1.548-0.326,3.962
	c0,0,2.691,1.465,3.664-1.123c0,0,0.9-1.89-0.973-2.84C159.602,56.586,157.996,56.159,157.236,56.586z"/>
<path fill="none" stroke="#B3B8B3" stroke-miterlimit="10" d="M128.027,56.573c0,0-3.674,1.433-0.319,3.667
	c0,0,2.635,1.358,3.591-1.039c0,0,0.88-1.747-0.956-2.628C130.343,56.573,128.771,56.176,128.027,56.573z"/>
<path fill="none" stroke="#B3B8B3" stroke-miterlimit="10" d="M174.756,59.178c-6.926,51.365-33.68,45.393-33.68,45.393
	c-26.375-6.381-28.994-51.268-28.994-51.268s-2.962-17.453,7.876-23.233c0,0,18.84-4.274,22.108-9.552
	c0,0,17.089,10.808,27.696,12.819C169.764,33.337,176.543,45.928,174.756,59.178z"/>
<path fill="none" stroke="#B3B8B3" stroke-miterlimit="10" d="M40.976,378.958c0,0,3.234-6.541,4.125-15.756"/>
<path fill="none" stroke="#B3B8B3" stroke-miterlimit="10" d="M124.453,336.816c0,0,4.846,32.453,19.18,29.408
	c0,0,11.688,2.592,13.366-28.126"/>
<path fill="none" stroke="#B3B8B3" stroke-miterlimit="10" d="M121.503,56.434c0,0,4.786-4.484,13.952,0.159"/>
<path fill="none" stroke="#B3B8B3" stroke-miterlimit="10" d="M151.055,56.857c0,0,5.956-4.22,13.942-0.423"/>
<path fill="none" stroke="#B3B8B3" stroke-miterlimit="10" d="M99.875,127.664c-6.467-4.458-1.953-52.137-1.953-52.137
	c-4.332-38.496,12.292-61.545,12.292-61.545C118.897-5.624,142.503,2.42,142.503,2.42s17.435-8.043,29.255,8.797
	c0,0,23.611,32.288,17.355,70.186c0,0,3.553,49.319,1.055,50.898"/>
<text transform="matrix(0.8331 0 0 1 70.8052 64.5674)" fill="#010101" font-family="'MyriadPro-Regular'" font-size="12.1214">CN V</text>
<text transform="matrix(0.8331 0 0 1 76.8877 91.6548)" fill="#010101" font-family="'MyriadPro-Regular'" font-size="12.1214">C2</text>
<line fill="#FFFFFF" stroke="#010101" stroke-miterlimit="10" x1="99.656" y1="91.657" x2="129.411" y2="102.908"/>
<line fill="#FFFFFF" stroke="#010101" stroke-miterlimit="10" x1="96.567" y1="62.863" x2="127.172" y2="76.591"/>
<path fill="none" stroke="#B3B8B3" stroke-miterlimit="10" d="M43.621,437.201c1.732,2.615,5.439-22.432,5.439-22.432h1.232l0,0
	v12.422v1.729c0,0,5.298,9.531,5.002-16.871c0,0,3.736-17.902,1.588-31.627l6.421-18.619c0,0,19.966-67.115,22.829-98.134
	l4.889-53.249"/>
<path fill="none" stroke="#B3B8B3" stroke-miterlimit="10" d="M43.621,437.201c-2.221,0.818-3.213-1.469-3.213-1.469l1.978-19.598
	l-2.959,12.785l-0.993,11.166c-2.472,3.812-4.205,1.15-4.205,1.15c-0.494-1.846,0.66-14.045,0.66-14.045l1.318-14.055H35.22
	l-3.463,19.057c-0.246,3.539-2.72,3.266-2.72,3.266c-3.702-0.273-0.249-22.322-0.249-22.322c2.49-10.186,2.968-14.156,2.968-14.156
	c-3.46,1.092-8.403,4.09-8.403,4.09c-0.744,1.908-8.405,1.908-8.653,0c-0.247-1.906,4.204-4.631,4.943-4.631
	c0.74,0,4.202-3.266,4.946-4.086c-2.933,3.219,1.842-4.238,17.924-17.656"/>
<text transform="matrix(0.9482 0 0 1 191.1699 146.4937)" fill="#010101" font-family="'MyriadPro-Regular'" font-size="12.0652">C4</text>
<path fill="none" stroke="#B3B8B3" stroke-miterlimit="10" d="M64.362,149.167c0,0,3.727,4.272,33.414,0
	c0,0,9.391,0.105,13.783,0.949c0,0,32.567,13.934,61.952,0.845c0,0,5.444-2.948,22.867-1.793c0,0,15.812,3.635,24.494,0l0,0"/>
<path fill="none" stroke="#B3B8B3" stroke-miterlimit="10" d="M148.041,561.498v76.072c0,0-2.201,2.691-1.926,5.383v5.082
	c0,0-7.707,19.732-2.478,21.824c0,0,10.183,5.082,15.961,7.475c0,0,9.358,15.547,14.587,12.557c0,0-1.926,7.271,12.385,6.027
	c0,0,2.479,0.25,2.479-3.934c0,0,4.953,2.988,6.052-0.898c1.104-3.885,0-1.494,0-1.494s1.257-1.492,0.491-4.484l0.246-4.783
	c0,0,0.09-4.785-5.965-6.58c0,0-5.504-2.391-7.156-4.781c0,0-11.008-5.979-16.236-17.941c0,0-3.578-12.855-1.927-17.041"/>
<path fill="none" stroke="#B3B8B3" stroke-miterlimit="10" d="M189.598,676.734c0,0,6.367,0.213,6.24,5.82"/>
<path fill="none" stroke="#B3B8B3" stroke-miterlimit="10" d="M195.795,686.197l-1.793-1.131c0,0-1.102-5.801-4.404-5.422"/>
<path fill="none" stroke="#B3B8B3" stroke-miterlimit="10" d="M195.101,689.591l-1.099-0.631c0,0-2.477-7.303-9.082-9.316"/>
<path fill="none" stroke="#B3B8B3" stroke-miterlimit="10" d="M187.988,695.369l1.609-4.881c0,0-1.926-1.998-8.531-7.572"/>
<path fill="none" stroke="#B3B8B3" stroke-miterlimit="10" d="M179.577,496.859c0,0-4.677,18.535-17.062-11.064"/>
<path fill="none" stroke="#B3B8B3" stroke-miterlimit="10" d="M189.729,517.621c0,0-10.865,17.699-14.166,19.191
	c0,0-8.639,8.969-10.649,8.375c0,0-10.983,9.219-14.013,14.004c-3.027,4.787-2.859-0.252-2.859-0.252"/>
<path fill="none" stroke="#B3B8B3" stroke-miterlimit="10" d="M146.115,648.035c0,0,12.658,17.436,13.483,29.299"/>
<path fill="none" stroke="#B3B8B3" stroke-miterlimit="10" d="M189.598,679.644c0,0-15.137-6.494-15.962-10.381
	c0,0-9.906-11.062-10.731-17.342c0,0-2.174-10.861,1.252-15.896"/>
<path fill="none" stroke="#B3B8B3" stroke-miterlimit="10" d="M164.913,545.187c0,0,3.526,5.082-0.757,28.104
	c0,0-7.966,89.541-7.966,90.738"/>
<text transform="matrix(0.8897 0 0 1 151.0508 592.8823)" fill="#010101" font-family="'MyriadPro-Regular'" font-size="11.3514">L4</text>
<text transform="matrix(0.8897 0 0 1 167.3066 575.5522)" fill="#010101" font-family="'MyriadPro-Regular'" font-size="11.3514">L5</text>
<text transform="matrix(0.8331 0 0 1 64.3628 657.8335)" fill="#010101" font-family="'MyriadPro-Regular'" font-size="12.1214">S1</text>
<line fill="#FFFFFF" stroke="#010101" stroke-miterlimit="10" x1="144.027" y1="680.835" x2="154.484" y2="665.99"/>
<line fill="none" stroke="#010101" stroke-miterlimit="10" x1="128.533" y1="669.865" x2="140.096" y2="682.818"/>
<text transform="matrix(0.8897 0 0 1 200.4258 657.8374)" fill="#010101" font-family="'MyriadPro-Regular'" font-size="11.3514">S1</text>
<line fill="#FFFFFF" stroke="#010101" stroke-miterlimit="10" x1="183.542" y1="672.25" x2="200.424" y2="660.902"/>
<path fill="none" stroke="#B3B8B3" stroke-miterlimit="10" d="M141.166,366.994c0,0-3.62,111.73-7.916,113.828l2.011,20.018
	l-1.153,60.658"/>
<path fill="none" stroke="#B3B8B3" stroke-miterlimit="10" d="M83.45,396.757l12.931,81.709
	c-4.241,25.574-2.984,61.521-2.984,61.521l24.462,97.381"/>
<path fill="none" stroke="#B3B8B3" stroke-miterlimit="10" d="M134.108,561.498v76.072c0,0,2.201,2.691,1.925,5.383v5.082
	c0,0,7.707,19.732,2.478,21.824c0,0-10.183,5.082-15.961,7.475c0,0-9.359,15.547-14.587,12.557c0,0,1.925,7.271-12.384,6.027
	c0,0-2.479,0.25-2.479-3.934c0,0-4.953,2.988-6.051-0.898c-1.104-3.885,0-1.494,0-1.494s-1.257-1.492-0.491-4.484l-0.246-4.783
	c0,0-0.089-4.785,5.964-6.58c0,0,5.504-2.391,7.156-4.781c0,0,11.008-5.979,16.237-17.941c0,0,3.579-12.855,1.927-17.041"/>
<path fill="none" stroke="#B3B8B3" stroke-miterlimit="10" d="M92.551,676.734c0,0-6.366,0.213-6.24,5.82"/>
<path fill="none" stroke="#B3B8B3" stroke-miterlimit="10" d="M86.354,686.197l1.793-1.131c0,0,1.101-5.801,4.404-5.422"/>
<path fill="none" stroke="#B3B8B3" stroke-miterlimit="10" d="M87.049,689.591l1.099-0.631c0,0,2.476-7.303,9.083-9.316"/>
<path fill="none" stroke="#B3B8B3" stroke-miterlimit="10" d="M94.16,695.369l-1.608-4.881c0,0,1.927-1.998,8.531-7.572"/>
<path fill="none" stroke="#B3B8B3" stroke-miterlimit="10" d="M102.573,496.859c0,0,4.677,18.535,17.061-11.064"/>
<path fill="none" stroke="#B3B8B3" stroke-miterlimit="10" d="M92.42,517.621c0,0,10.865,17.699,14.167,19.191
	c0,0,8.638,8.969,10.648,8.375c0,0,10.983,9.219,14.013,14.004c3.026,4.787,2.86-0.252,2.86-0.252"/>
<path fill="none" stroke="#B3B8B3" stroke-miterlimit="10" d="M136.034,648.035c0,0-12.657,17.436-13.483,29.299"/>
<path fill="none" stroke="#B3B8B3" stroke-miterlimit="10" d="M92.551,679.644c0,0,15.136-6.494,15.963-10.381
	c0,0,9.906-11.062,10.731-17.342c0,0,2.175-10.861-1.251-15.896"/>
<path fill="none" stroke="#B3B8B3" stroke-miterlimit="10" d="M117.235,545.187c0,0-3.526,5.082,0.758,28.104
	c0,0,7.966,89.541,7.966,90.738"/>
<text transform="matrix(0.8897 0 0 1 122.5503 595.9526)" fill="#010101" font-family="'MyriadPro-Regular'" font-size="11.3514">L4</text>
<text transform="matrix(0.8897 0 0 1 97.98 575.5522)" fill="#010101" font-family="'MyriadPro-Regular'" font-size="11.3514">L5</text>
<text transform="matrix(0.8897 0 0 1 136.2065 692.8882)" fill="#010101" font-family="'MyriadPro-Regular'" font-size="11.3514">S1</text>
<line fill="#FFFFFF" stroke="#010101" stroke-miterlimit="10" x1="98.606" y1="672.25" x2="81.726" y2="660.902"/>
<path fill="none" stroke="#B3B8B3" stroke-miterlimit="10" d="M101.879,478.937c0,0,4.695-19.795,18.448-8.621"/>
<path fill="none" stroke="#B3B8B3" stroke-miterlimit="10" d="M160.161,470.869c0,0,13.317-12.77,17.445,7.984"/>
<path fill="none" stroke="#B3B8B3" stroke-miterlimit="10" d="M94.7,468.609c0,0,12.661-26.814,16.513-28.092
	c0,0,18.439-14.049,22.017-33.205c0,0,6.984-40.498,8.128-41.137c1.146-0.639-0.511,4.105-0.511,4.105"/>
<path fill="none" stroke="#B3B8B3" stroke-miterlimit="10" d="M188.21,464.246c0,0-4.323-11.18-7.351-15.33l-15.686-17.879
	c0,0-8.258-9.123-10.735-19.727c0,0-3.577-11.242-5.779-21.139l-3.854-20.611c0,0.143-1.173-2.566-1.173-2.566"/>
<text transform="matrix(0.8331 0 0 1 116.6577 454.9038)" fill="#010101" font-family="'MyriadPro-Regular'" font-size="12.1214">L3</text>
<text transform="matrix(0.8331 0 0 1 157 454.9038)" fill="#010101" font-family="'MyriadPro-Regular'" font-size="12.1214">L3</text>
<path fill="none" stroke="#B3B8B3" stroke-miterlimit="10" d="M52.237,292.634c0,0,12.937-12.45,15.964-40.225
	c0,0,9.356-42.896,11.282-44.595c0,0-4.678-53.663,20.917-58.132"/>
<path fill="none" stroke="#B3B8B3" stroke-miterlimit="10" d="M88.695,240.18c0,0-7.995-6.073-9.922-33.632
	c0,0-3.303,52.953-5.504,55.478c0,0-12.667,71.088-15.418,82.581c-2.752,11.495-0.969,35.815-0.969,35.815"/>
<path fill="none" stroke="#B3B8B3" stroke-miterlimit="10" d="M35.278,413.265c0.549-25.221,20.929-60.93,20.929-60.93"/>
<path fill="none" stroke="#B3B8B3" stroke-miterlimit="10" d="M56.044,354.158c0,0-12.463,56.549-13.659,61.977"/>
<text transform="matrix(0.8331 0 0 1 0 366.1069)" fill="#010101" font-family="'MyriadPro-Regular'" font-size="12.1214">C7</text>
<line fill="#FFFFFF" stroke="#010101" stroke-miterlimit="10" x1="12.206" y1="368.91" x2="41.069" y2="391.945"/>
<text transform="matrix(0.8331 0 0 1 16.0601 340.2847)" fill="#010101" font-family="'MyriadPro-Regular'" font-size="12.1214">C8</text>
<line fill="#FFFFFF" stroke="#010101" stroke-miterlimit="10" x1="26.637" y1="347.501" x2="54.455" y2="379.853"/>
<text transform="matrix(0.8331 0 0 1 54.4556 300.9868)" fill="#010101" font-family="'MyriadPro-Regular'" font-size="12.1214">C6</text>
<text transform="matrix(0.8331 0 0 1 72.5049 273.9438)" fill="#010101" font-family="'MyriadPro-Regular'" font-size="12.1214">T1</text>
<text transform="matrix(0.8331 0 0 1 100.6548 396.7593)" fill="#010101" font-family="'MyriadPro-Regular'" font-size="12.1214">L2</text>
<text transform="matrix(0.8331 0 0 1 171.2188 396.6733)" fill="#010101" font-family="'MyriadPro-Regular'" font-size="12.1214">L2</text>
<path fill="none" stroke="#B3B8B3" stroke-miterlimit="10" d="M231.705,291.196c0,0-12.936-12.45-15.964-40.225
	c0,0-9.356-42.896-11.282-44.595c0,0,4.678-53.663-20.917-58.133"/>
<path fill="none" stroke="#B3B8B3" stroke-miterlimit="10" d="M195.246,238.741c0,0,7.996-6.073,9.924-33.631
	c0,0,3.303,52.954,5.504,55.477c0,0,12.666,71.089,15.418,82.581c2.752,11.494,0.97,35.814,0.97,35.814"/>
<path fill="none" stroke="#B3B8B3" stroke-miterlimit="10" d="M246.664,413.826c-0.549-25.221-18.929-62.93-18.929-62.93"/>
<path fill="none" stroke="#B3B8B3" stroke-miterlimit="10" d="M227.898,352.72c0,0,12.463,64.178,13.658,69.604"/>
<text transform="matrix(0.8331 0 0 1 267.8848 364.6694)" fill="#010101" font-family="'MyriadPro-Regular'" font-size="12.1214">C7</text>
<line fill="#FFFFFF" stroke="#010101" stroke-miterlimit="10" x1="271.736" y1="367.47" x2="242.873" y2="390.509"/>
<text transform="matrix(0.8331 0 0 1 257.3047 342.6631)" fill="#010101" font-family="'MyriadPro-Regular'" font-size="12.1214">C8</text>
<line fill="#FFFFFF" stroke="#010101" stroke-miterlimit="10" x1="257.305" y1="346.062" x2="229.487" y2="378.414"/>
<text transform="matrix(0.8331 0 0 1 216.3926 298.7451)" fill="#010101" font-family="'MyriadPro-Regular'" font-size="12.1214">C6</text>
<text transform="matrix(0.8331 0 0 1 200.4248 274.8711)" fill="#010101" font-family="'MyriadPro-Regular'" font-size="12.1214">T1</text>
<path fill="none" stroke="#B3B8B3" stroke-miterlimit="10" d="M195.539,210.298c14.041-32.884-6.234-43.418-6.234-43.418
	c-11.107-6.066-26.423,0-26.423,0c-16.216,6.705-45.334-0.958-45.334-0.958c-20.416-5.108-27.322,5.109-27.322,5.109
	c-13.811,12.771,0.044,43.399,0.044,43.399"/>
<text transform="matrix(0.8331 0 0 1 138.5796 167.4302)" fill="#010101" font-family="'MyriadPro-Regular'" font-size="12.1214">T2</text>
<text transform="matrix(0.8331 0 0 1 138.5796 181.1147)" fill="#010101" font-family="'MyriadPro-Regular'" font-size="12.1214">T3</text>
<path fill="none" stroke="#B3B8B3" stroke-miterlimit="10" d="M89.961,201.25c0,0,12.959,5.43,29.233,0.001
	c0,0,38.012-0.958,47.187,0c0,0,24.902,6.42,29.514,0"/>
<text transform="matrix(0.8331 0 0 1 138.5796 195.2749)" fill="#010101" font-family="'MyriadPro-Regular'" font-size="12.1214">T4</text>
<path fill="none" stroke="#B3B8B3" stroke-miterlimit="10" d="M191.869,221.15c-1.676,2.235-22.846,4.371-22.846,4.371
	c-7.647-1.377-25.89-2.456-25.89-2.456c-4.775-0.638-28.415,2.456-28.415,2.456l-18.279-2.185"/>
<path fill="none" stroke="#B3B8B3" stroke-miterlimit="10" d="M193.514,184.293c-10.33-6.065-31.528-2.303-31.528-2.303
	c-15.082,6.705-42.167-0.958-42.167-0.958c-18.99-5.108-28.797,5.108-28.797,5.108"/>
<text transform="matrix(0.8331 0 0 1 137.2085 214.106)" fill="#010101" font-family="'MyriadPro-Regular'" font-size="12.1214">T5</text>
<path fill="none" stroke="#B3B8B3" stroke-miterlimit="10" d="M97.931,228.017c0,0,42.924,16.283,93.013,0"/>
<text transform="matrix(0.8331 0 0 1 138.5796 231.6353)" fill="#010101" font-family="'MyriadPro-Regular'" font-size="12.1214">T6</text>
<path fill="none" stroke="#B3B8B3" stroke-miterlimit="10" d="M99.457,239.782c0,0,41.517,16.283,89.961,0"/>
<text transform="matrix(0.8331 0 0 1 138.5796 245.8999)" fill="#010101" font-family="'MyriadPro-Regular'" font-size="12.1214">T7</text>
<path fill="none" stroke="#B3B8B3" stroke-miterlimit="10" d="M100.164,254.545c0,0,41.517,16.283,89.961,0"/>
<path fill="none" stroke="#B3B8B3" stroke-miterlimit="10" d="M98.901,271.253c0,0,39.61,16.283,88.054,0"/>
<text transform="matrix(0.8331 0 0 1 139.2637 257.9868)" fill="#010101" font-family="'MyriadPro-Regular'" font-size="12.1214">T8</text>
<text transform="matrix(0.8331 0 0 1 139.2637 274.8711)" fill="#010101" font-family="'MyriadPro-Regular'" font-size="12.1214">T9</text>
<path fill="none" stroke="#B3B8B3" stroke-miterlimit="10" d="M90.328,293.084c0,0,45.361,16.284,100.842,0"/>
<text transform="matrix(0.8331 0 0 1 138.3276 296.3286)" fill="#010101" font-family="'MyriadPro-Regular'" font-size="12.1214">T10</text>
<path fill="none" stroke="#B3B8B3" stroke-miterlimit="10" d="M85.337,312.613c0,0,50.443,16.283,112.138,0"/>
<text transform="matrix(0.8331 0 0 1 137.208 313.5698)" fill="#010101" font-family="'MyriadPro-Regular'" font-size="12.1214">T11</text>
<path fill="none" stroke="#B3B8B3" stroke-miterlimit="10" d="M80.937,330.742c0,0,53.911,16.283,119.848,0"/>
<text transform="matrix(0.8331 0 0 1 136.2075 334.3594)" fill="#010101" font-family="'MyriadPro-Regular'" font-size="12.1214">T12</text>
<path fill="none" stroke="#B3B8B3" stroke-miterlimit="10" d="M78.555,344.606c0,0,19.011,1.193,27.684,13.06
	c0,0,23.538,15.393,35.119,8.51"/>
<path fill="none" stroke="#B3B8B3" stroke-miterlimit="10" d="M203.197,345.032c0,0-16.15,1.192-24.822,13.059
	c0,0-23.539,15.393-35.119,8.508"/>
<text transform="matrix(0.8331 0 0 1 106.2388 352.3354)" fill="#010101" font-family="'MyriadPro-Regular'" font-size="12.1214">L1</text>
<text transform="matrix(0.8331 0 0 1 165.9219 352.9644)" fill="#010101" font-family="'MyriadPro-Regular'" font-size="12.1214">L1</text>
<text transform="matrix(0.9482 0 0 1 136.9585 353.2065)" font-family="'MyriadPro-Regular'" font-size="12.0652">S2</text>
<text transform="matrix(0.8331 0 0 1 80.5249 214.4307)" fill="#010101" font-family="'MyriadPro-Regular'" font-size="12.1214">T2</text>
<text transform="matrix(0.8331 0 0 1 193.6455 214.4307)" fill="#010101" font-family="'MyriadPro-Regular'" font-size="12.1214">T2</text>
</svg>
