<?xml version="1.0" encoding="utf-8"?>
<!-- Generator: Adobe Illustrator 15.0.2, SVG Export Plug-In  -->
<!DOCTYPE svg PUBLIC "-//W3C//DTD SVG 1.1//EN" "http://www.w3.org/Graphics/SVG/1.1/DTD/svg11.dtd" [
	<!ENTITY ns_flows "http://ns.adobe.com/Flows/1.0/">
]>
<svg version="1.1"
	 xmlns="http://www.w3.org/2000/svg" xmlns:xlink="http://www.w3.org/1999/xlink" xmlns:a="http://ns.adobe.com/AdobeSVGViewerExtensions/3.0/"
	 x="0px" y="0px" width="700px" height="700px" viewBox="-20.844 -0.782 700 700"
	 overflow="visible" enable-background="new -20.844 -0.782 700 700" xml:space="preserve">
<defs>
</defs>
<text transform="matrix(0.9482 0 0 1 136.959 135.3379)" fill="#010101" font-family="'MyriadPro-Regular'" font-size="12.0652">C3</text>
<text transform="matrix(0.9482 0 0 1 76.3198 149.5293)" fill="#010101" font-family="'MyriadPro-Regular'" font-size="12.0652">C4</text>
<path fill="none" stroke="#B3B8B3" stroke-miterlimit="10" d="M123.749,108.68c0,0,14.163,28.717,40.541-0.861"/>
<path fill="none" stroke="#B3B8B3" stroke-miterlimit="10" d="M146.741,292.183c0,0-2.704-4.673-3.193,3.155
	c0,0,0.736,6.17,3.193,3.238"/>
<path fill="none" stroke="#B3B8B3" stroke-miterlimit="10" d="M141.166,370.031h4.333c0,0,3.62,111.73,7.916,113.826l-2.012,20.018
	l-3.363,64.338"/>
<path fill="none" stroke="#B3B8B3" stroke-miterlimit="10" d="M94.099,216.545c0,0,9.337,44.742,4.324,59.423
	c0,0-34.365,74.105-15.035,123.742"/>
<path fill="none" stroke="#B3B8B3" stroke-miterlimit="10" d="M124.561,95.995c0,0-0.954,31.126-18.074,33.18
	c0,0,9.705-3.314-19.52,6.736c0,0-38.931-8.874-26.083,71.896c0,0,0.551,34.041,0,41.384c0,0-13.161,58.498-14.729,96.603
	c0,0-0.542,25.553-1.945,27.553"/>
<path fill="none" stroke="#B3B8B3" stroke-miterlimit="10" d="M193.646,216.545c-1.393,10.486-7.877,58.725-7.877,58.725
	s27.07,78.312,16.545,110.632l-2.865,15.904l-13.68,79.697c4.242,25.572,2.984,61.52,2.984,61.52l-24.463,97.381"/>
<path fill="none" stroke="#B3B8B3" stroke-miterlimit="10" d="M239.139,441.316c-1.731,2.617-5.438-22.432-5.438-22.432h-1.232l0,0
	v12.42v1.73c0,0-5.298,9.531-5.002-16.869c0,0-3.736-17.904-1.588-31.629l-6.422-18.619c0,0-19.967-67.115-22.829-98.134
	l-2.981-51.238"/>
<path fill="none" stroke="#B3B8B3" stroke-miterlimit="10" d="M239.139,441.316c2.222,0.818,3.213-1.469,3.213-1.469l-1.978-19.598
	l2.959,12.785l0.994,11.166c2.472,3.812,4.205,1.152,4.205,1.152c0.493-1.848-0.661-14.049-0.661-14.049l-1.318-14.053h0.986
	l3.464,19.055c0.245,3.541,2.719,3.268,2.719,3.268c3.701-0.273,0.249-22.322,0.249-22.322c-2.489-10.186-2.968-14.156-2.968-14.156
	c3.459,1.092,8.402,4.09,8.402,4.09c0.744,1.908,8.405,1.908,8.653,0c0.247-1.906-4.204-4.631-4.944-4.631s-4.201-3.266-4.945-4.084
	c2.933,3.217-1.842-4.24-17.924-17.658"/>
<path fill="none" stroke="#B3B8B3" stroke-miterlimit="10" d="M163.573,97c0,0,0,35.422,34.751,40.978c0,0,29.28,0,22.796,33.338
	c1.27,80.759,1.551,77.591,0.937,84.04c0,0,8.183,27.526,8.183,34.251c-0.25-6.457,11.096,92.106,10.006,91.206"/>
<path fill="none" stroke="#B3B8B3" stroke-miterlimit="10" d="M134.937,208.156c-4.381,21.672-30.07,14.525-30.07,14.525
	c-25.058-3.654-13.236-38.293-13.236-38.293"/>
<path fill="none" stroke="#B3B8B3" stroke-miterlimit="10" d="M193.515,187.329c0,0,0.442,1.438,0.945,3.75
	c2.034,9.34,5.062,32.958-16.064,33.872c0,0-26.014,5.927-29.314-15.926"/>
<path fill="none" stroke="#B3B8B3" stroke-miterlimit="10" d="M80.524,136.185c5.728-3.213,40.705,3.748,40.705,3.748l22.231,4.776
	l20.83-2.967c0,0,31.582-5.14,37.656-3.397"/>
<path fill="none" stroke="#B3B8B3" stroke-miterlimit="10" d="M112.505,60.274c-1.469-0.974-11.168-6.656-3.555,10.118
	c0,0,2.573,9.297,7.706,10.221L112.505,60.274z"/>
<path fill="none" stroke="#B3B8B3" stroke-miterlimit="10" d="M111.272,68.735c0,0-2.675-3.708,0-5.75c0,0,2.305,1.855,1.931,4.266
	c0,0-0.371,0.989-0.75,2.439c0,0,2.619,4.61,2.619,5.723l-1.869-0.739"/>
<path fill="none" stroke="#B3B8B3" stroke-miterlimit="10" d="M174.38,62.925c0,0,11.33-8.149,3.953,9.974
	c0,0-2.198,9.39-7.287,10.513L174.38,62.925z"/>
<path fill="none" stroke="#B3B8B3" stroke-miterlimit="10" d="M176.019,71.334c0,0,2.807-3.615,0.199-5.75
	c0,0-2.365,1.774-2.076,4.201c0,0,0.341,0.999,0.659,2.466c0,0-2.777,4.516-2.815,5.627l1.897-0.68"/>
<path fill="none" stroke="#B3B8B3" stroke-miterlimit="10" d="M149.217,54.289c0,0,14.918-2.055,17.441,1.52
	c0,0-2.338-0.73-4.224-0.484C162.435,55.325,148.106,56.851,149.217,54.289z"/>
<path fill="none" stroke="#B3B8B3" stroke-miterlimit="10" d="M136.465,53.857c-17.195-2.739-18.791,1.619-18.791,1.619
	s3.782-1.855,9.276-1.259c0,0,5.102,0.581,6.091,0.644C133.042,54.861,135.203,54.229,136.465,53.857"/>
<path fill="none" stroke="#B3B8B3" stroke-miterlimit="10" d="M135.183,62.425c0,0-4.091-5.515-12.139-1.477
	c0,0,2.043,4.961,11.27,1.558"/>
<path fill="none" stroke="#B3B8B3" stroke-miterlimit="10" d="M151.725,62.45c0.233-0.335,4.852-5.435,12.24-1.315
	c0,0-3.024,4.97-8.694,2.334L151.725,62.45z"/>
<path fill="#B2B6B2" stroke="#B3B8B3" stroke-miterlimit="10" d="M136.209,77.878c0,0-2.121,3.225,0.749,4.211"/>
<path fill="#B2B6B2" stroke="#B3B8B3" stroke-miterlimit="10" d="M138.328,82.089c0,0,1.499-0.431,1.872,0.711"/>
<path fill="#B2B6B2" stroke="#B3B8B3" stroke-miterlimit="10" d="M142.067,83.944c0,0,1.498,1.113,2.371,0"/>
<path fill="#B2B6B2" stroke="#B3B8B3" stroke-miterlimit="10" d="M145.437,82.8c0,0,2.369-1.574,2.614-0.711"/>
<path fill="#B2B6B2" stroke="#B3B8B3" stroke-miterlimit="10" d="M150.047,77.144c0,0,1.122,1.351,0.998,2.839"/>
<path fill="none" stroke="#B3B8B3" stroke-miterlimit="10" d="M154.038,90.376c0,0-5.861,6.143-8.602,5.796
	c0,0-3.117,0.755-6.173-0.604c0,0-5.673-2.968-6.296-5.193c0,0,2.742,0.62,3.99,0c0,0,2.99-1.663,3.241-1.512
	c0.249,0.149,3.054,0.771,3.054,0.771l2.68-0.781c0,0,2.241,0.905,3.553,0.905L154.038,90.376z"/>
<path fill="#B2B6B2" stroke="#B3B8B3" stroke-miterlimit="10" d="M153.415,90.376l-8.977,1.051
	c-1.498,0.679-2.371,0.309-2.371,0.309c-0.998-0.125-3.74-0.619-3.74-0.619s-1.984,0.935-4.857-0.274"/>
<path fill="none" stroke="#B3B8B3" stroke-miterlimit="10" d="M148.051,91.242c1.435-0.537,0-0.332,0-0.332"/>
<path fill="none" stroke="#B3B8B3" stroke-miterlimit="10" d="M157.236,59.623c0,0-3.747,1.548-0.325,3.962
	c0,0,2.691,1.465,3.664-1.123c0,0,0.898-1.89-0.973-2.84C159.603,59.623,157.996,59.195,157.236,59.623z"/>
<path fill="none" stroke="#B3B8B3" stroke-miterlimit="10" d="M128.027,59.609c0,0-3.674,1.433-0.319,3.667
	c0,0,2.635,1.358,3.591-1.039c0,0,0.88-1.747-0.956-2.628C130.343,59.609,128.771,59.212,128.027,59.609z"/>
<path fill="none" stroke="#B3B8B3" stroke-miterlimit="10" d="M174.756,62.214c-6.925,51.365-33.68,45.393-33.68,45.393
	c-26.375-6.381-28.993-51.268-28.993-51.268s-2.962-17.453,7.876-23.233c0,0,18.84-4.274,22.108-9.552
	c0,0,17.089,10.808,27.696,12.819C169.764,36.373,176.542,48.964,174.756,62.214z"/>
<path fill="none" stroke="#B3B8B3" stroke-miterlimit="10" d="M40.976,381.996c0,0,3.234-6.541,4.125-15.758"/>
<path fill="none" stroke="#B3B8B3" stroke-miterlimit="10" d="M124.453,339.852c0,0,4.846,32.452,19.181,29.409
	c0,0,11.688,2.592,13.365-28.127"/>
<path fill="none" stroke="#B3B8B3" stroke-miterlimit="10" d="M121.503,59.47c0,0,4.786-4.484,13.952,0.159"/>
<path fill="none" stroke="#B3B8B3" stroke-miterlimit="10" d="M151.054,59.893c0,0,5.957-4.22,13.943-0.423"/>
<path fill="none" stroke="#B3B8B3" stroke-miterlimit="10" d="M99.875,130.7c-6.467-4.458-1.953-52.137-1.953-52.137
	c-4.332-38.496,12.292-61.545,12.292-61.545c8.683-19.605,32.289-11.562,32.289-11.562s17.434-8.043,29.256,8.797
	c0,0,23.61,32.288,17.354,70.186c0,0,3.554,49.319,1.055,50.898"/>
<text transform="matrix(0.8331 0 0 1 70.8052 67.6035)" fill="#010101" font-family="'MyriadPro-Regular'" font-size="12.1214">CN V</text>
<text transform="matrix(0.8331 0 0 1 76.8877 94.6909)" fill="#010101" font-family="'MyriadPro-Regular'" font-size="12.1214">C2</text>
<line fill="#FFFFFF" stroke="#010101" stroke-miterlimit="10" x1="99.656" y1="94.693" x2="129.411" y2="105.944"/>
<line fill="#FFFFFF" stroke="#010101" stroke-miterlimit="10" x1="96.567" y1="65.899" x2="127.172" y2="79.627"/>
<path fill="none" stroke="#B3B8B3" stroke-miterlimit="10" d="M43.621,440.238c1.732,2.615,5.439-22.432,5.439-22.432h1.232l0,0
	v12.422v1.729c0,0,5.298,9.531,5.002-16.871c0,0,3.736-17.902,1.588-31.629l6.421-18.619c0,0,19.966-67.114,22.829-98.133
	l4.889-53.249"/>
<path fill="none" stroke="#B3B8B3" stroke-miterlimit="10" d="M43.621,440.238c-2.221,0.818-3.213-1.469-3.213-1.469l1.978-19.598
	l-2.959,12.785l-0.993,11.166c-2.472,3.811-4.205,1.15-4.205,1.15c-0.494-1.846,0.66-14.045,0.66-14.045l1.318-14.055H35.22
	l-3.463,19.055c-0.246,3.541-2.72,3.268-2.72,3.268c-3.702-0.273-0.249-22.322-0.249-22.322c2.49-10.186,2.968-14.158,2.968-14.158
	c-3.46,1.092-8.403,4.092-8.403,4.092c-0.744,1.906-8.405,1.906-8.653,0c-0.247-1.906,4.204-4.631,4.943-4.631
	c0.74,0,4.202-3.266,4.946-4.086c-2.933,3.219,1.842-4.238,17.924-17.658"/>
<text transform="matrix(0.9482 0 0 1 191.1699 149.5298)" fill="#010101" font-family="'MyriadPro-Regular'" font-size="12.0652">C4</text>
<path fill="none" stroke="#B3B8B3" stroke-miterlimit="10" d="M64.362,152.203c0,0,3.727,4.272,33.414,0
	c0,0,9.391,0.105,13.783,0.949c0,0,32.567,13.934,61.951,0.845c0,0,5.445-2.948,22.867-1.793c0,0,15.814,3.635,24.496,0l0,0"/>
<path fill="none" stroke="#B3B8B3" stroke-miterlimit="10" d="M148.04,564.533v76.074c0,0-2.201,2.689-1.925,5.381v5.082
	c0,0-7.707,19.732-2.478,21.826c0,0,10.182,5.082,15.961,7.475c0,0,9.359,15.545,14.587,12.555c0,0-1.925,7.273,12.385,6.029
	c0,0,2.478,0.248,2.478-3.934c0,0,4.954,2.986,6.053-0.9c1.104-3.885,0-1.492,0-1.492s1.256-1.494,0.492-4.486l0.245-4.783
	c0,0,0.089-4.783-5.964-6.578c0,0-5.506-2.391-7.156-4.781c0,0-11.009-5.979-16.236-17.943c0,0-3.578-12.854-1.928-17.039"/>
<path fill="none" stroke="#B3B8B3" stroke-miterlimit="10" d="M189.598,679.771c0,0,6.367,0.211,6.24,5.82"/>
<path fill="none" stroke="#B3B8B3" stroke-miterlimit="10" d="M195.794,689.232l-1.793-1.131c0,0-1.1-5.799-4.403-5.42"/>
<path fill="none" stroke="#B3B8B3" stroke-miterlimit="10" d="M195.101,692.628l-1.1-0.631c0,0-2.477-7.303-9.082-9.316"/>
<path fill="none" stroke="#B3B8B3" stroke-miterlimit="10" d="M187.989,698.404l1.608-4.881c0,0-1.927-1.996-8.532-7.572"/>
<path fill="none" stroke="#B3B8B3" stroke-miterlimit="10" d="M179.577,499.894c0,0-4.678,18.535-17.062-11.064"/>
<path fill="none" stroke="#B3B8B3" stroke-miterlimit="10" d="M189.728,520.656c0,0-10.863,17.699-14.165,19.193
	c0,0-8.639,8.969-10.649,8.373c0,0-10.983,9.221-14.013,14.006c-3.026,4.787-2.86-0.254-2.86-0.254"/>
<path fill="none" stroke="#B3B8B3" stroke-miterlimit="10" d="M146.115,651.07c0,0,12.657,17.438,13.483,29.301"/>
<path fill="none" stroke="#B3B8B3" stroke-miterlimit="10" d="M189.598,682.681c0,0-15.136-6.496-15.962-10.383
	c0,0-9.906-11.062-10.732-17.342c0,0-2.174-10.861,1.253-15.896"/>
<path fill="none" stroke="#B3B8B3" stroke-miterlimit="10" d="M164.913,548.222c0,0,3.526,5.082-0.757,28.104
	c0,0-7.966,89.543-7.966,90.74"/>
<text transform="matrix(0.8897 0 0 1 151.0508 595.9175)" fill="#010101" font-family="'MyriadPro-Regular'" font-size="11.3514">L4</text>
<text transform="matrix(0.8897 0 0 1 167.3062 578.5894)" fill="#010101" font-family="'MyriadPro-Regular'" font-size="11.3514">L5</text>
<text transform="matrix(0.8331 0 0 1 64.3628 660.8706)" fill="#010101" font-family="'MyriadPro-Regular'" font-size="12.1214">S1</text>
<line fill="#FFFFFF" stroke="#010101" stroke-miterlimit="10" x1="144.026" y1="683.871" x2="154.485" y2="669.027"/>
<line fill="none" stroke="#010101" stroke-miterlimit="10" x1="128.533" y1="672.902" x2="140.096" y2="685.853"/>
<text transform="matrix(0.8897 0 0 1 200.4258 660.8745)" fill="#010101" font-family="'MyriadPro-Regular'" font-size="11.3514">S1</text>
<line fill="#FFFFFF" stroke="#010101" stroke-miterlimit="10" x1="183.542" y1="675.285" x2="200.425" y2="663.937"/>
<path fill="none" stroke="#B3B8B3" stroke-miterlimit="10" d="M141.166,370.031c0,0-3.62,111.73-7.916,113.826l2.011,20.018
	l-1.153,60.658"/>
<path fill="none" stroke="#B3B8B3" stroke-miterlimit="10" d="M83.45,399.794l12.931,81.709c-4.241,25.572-2.984,61.52-2.984,61.52
	l24.462,97.381"/>
<path fill="none" stroke="#B3B8B3" stroke-miterlimit="10" d="M134.108,564.533v76.074c0,0,2.201,2.689,1.925,5.381v5.082
	c0,0,7.707,19.732,2.478,21.826c0,0-10.183,5.082-15.961,7.475c0,0-9.359,15.545-14.587,12.555c0,0,1.925,7.273-12.384,6.029
	c0,0-2.479,0.248-2.479-3.934c0,0-4.953,2.986-6.051-0.9c-1.104-3.885,0-1.492,0-1.492s-1.257-1.494-0.491-4.486l-0.246-4.783
	c0,0-0.089-4.783,5.964-6.578c0,0,5.504-2.391,7.156-4.781c0,0,11.008-5.979,16.237-17.943c0,0,3.579-12.854,1.927-17.039"/>
<path fill="none" stroke="#B3B8B3" stroke-miterlimit="10" d="M92.551,679.771c0,0-6.366,0.211-6.24,5.82"/>
<path fill="none" stroke="#B3B8B3" stroke-miterlimit="10" d="M86.354,689.232l1.793-1.131c0,0,1.101-5.799,4.404-5.42"/>
<path fill="none" stroke="#B3B8B3" stroke-miterlimit="10" d="M87.049,692.628l1.099-0.631c0,0,2.476-7.303,9.083-9.316"/>
<path fill="none" stroke="#B3B8B3" stroke-miterlimit="10" d="M94.16,698.404l-1.608-4.881c0,0,1.927-1.996,8.531-7.572"/>
<path fill="none" stroke="#B3B8B3" stroke-miterlimit="10" d="M102.573,499.894c0,0,4.677,18.535,17.061-11.064"/>
<path fill="none" stroke="#B3B8B3" stroke-miterlimit="10" d="M92.42,520.656c0,0,10.865,17.699,14.167,19.193
	c0,0,8.638,8.969,10.648,8.373c0,0,10.983,9.221,14.013,14.006c3.026,4.787,2.86-0.254,2.86-0.254"/>
<path fill="none" stroke="#B3B8B3" stroke-miterlimit="10" d="M136.034,651.07c0,0-12.657,17.438-13.483,29.301"/>
<path fill="none" stroke="#B3B8B3" stroke-miterlimit="10" d="M92.551,682.681c0,0,15.136-6.496,15.963-10.383
	c0,0,9.906-11.062,10.731-17.342c0,0,2.175-10.861-1.251-15.896"/>
<path fill="none" stroke="#B3B8B3" stroke-miterlimit="10" d="M117.235,548.222c0,0-3.526,5.082,0.758,28.104
	c0,0,7.966,89.543,7.966,90.74"/>
<text transform="matrix(0.8897 0 0 1 122.5503 598.9897)" fill="#010101" font-family="'MyriadPro-Regular'" font-size="11.3514">L4</text>
<text transform="matrix(0.8897 0 0 1 97.98 578.5894)" fill="#010101" font-family="'MyriadPro-Regular'" font-size="11.3514">L5</text>
<text transform="matrix(0.8897 0 0 1 136.2065 695.9233)" fill="#010101" font-family="'MyriadPro-Regular'" font-size="11.3514">S1</text>
<line fill="#FFFFFF" stroke="#010101" stroke-miterlimit="10" x1="98.606" y1="675.285" x2="81.726" y2="663.937"/>
<path fill="none" stroke="#B3B8B3" stroke-miterlimit="10" d="M101.879,481.974c0,0,4.695-19.795,18.448-8.621"/>
<path fill="none" stroke="#B3B8B3" stroke-miterlimit="10" d="M160.161,473.906c0,0,13.316-12.77,17.445,7.982"/>
<path fill="none" stroke="#B3B8B3" stroke-miterlimit="10" d="M94.7,471.644c0,0,12.661-26.814,16.513-28.092
	c0,0,18.439-14.047,22.017-33.203c0,0,6.983-40.5,8.128-41.139c1.146-0.637-0.511,4.105-0.511,4.105"/>
<path fill="none" stroke="#B3B8B3" stroke-miterlimit="10" d="M188.21,467.283c0,0-4.324-11.18-7.352-15.33l-15.686-17.879
	c0,0-8.257-9.123-10.734-19.727c0,0-3.578-11.242-5.779-21.139l-3.854-20.611c0,0.141-1.172-2.566-1.172-2.566"/>
<text transform="matrix(0.8331 0 0 1 116.6577 457.939)" fill="#010101" font-family="'MyriadPro-Regular'" font-size="12.1214">L3</text>
<text transform="matrix(0.8331 0 0 1 156.9995 457.939)" fill="#010101" font-family="'MyriadPro-Regular'" font-size="12.1214">L3</text>
<path fill="none" stroke="#B3B8B3" stroke-miterlimit="10" d="M52.237,295.67c0,0,12.937-12.45,15.964-40.225
	c0,0,9.356-42.896,11.282-44.595c0,0-4.678-53.663,20.917-58.132"/>
<path fill="none" stroke="#B3B8B3" stroke-miterlimit="10" d="M88.695,243.216c0,0-7.995-6.073-9.922-33.632
	c0,0-3.303,52.953-5.504,55.478c0,0-12.667,71.088-15.418,82.581c-2.752,11.494-0.969,35.814-0.969,35.814"/>
<path fill="none" stroke="#B3B8B3" stroke-miterlimit="10" d="M35.278,416.3c0.549-25.219,20.929-60.93,20.929-60.93"/>
<path fill="none" stroke="#B3B8B3" stroke-miterlimit="10" d="M56.044,357.195c0,0-12.463,56.549-13.659,61.977"/>
<text transform="matrix(0.8331 0 0 1 0 369.144)" fill="#010101" font-family="'MyriadPro-Regular'" font-size="12.1214">C7</text>
<line fill="#FFFFFF" stroke="#010101" stroke-miterlimit="10" x1="12.206" y1="371.945" x2="41.069" y2="394.982"/>
<text transform="matrix(0.8331 0 0 1 16.0601 343.3208)" fill="#010101" font-family="'MyriadPro-Regular'" font-size="12.1214">C8</text>
<line fill="#FFFFFF" stroke="#010101" stroke-miterlimit="10" x1="26.637" y1="350.537" x2="54.455" y2="382.888"/>
<text transform="matrix(0.8331 0 0 1 54.4556 304.0229)" fill="#010101" font-family="'MyriadPro-Regular'" font-size="12.1214">C6</text>
<text transform="matrix(0.8331 0 0 1 72.5049 276.98)" fill="#010101" font-family="'MyriadPro-Regular'" font-size="12.1214">T1</text>
<text transform="matrix(0.8331 0 0 1 100.6548 399.7964)" fill="#010101" font-family="'MyriadPro-Regular'" font-size="12.1214">L2</text>
<text transform="matrix(0.8331 0 0 1 171.2188 399.7104)" fill="#010101" font-family="'MyriadPro-Regular'" font-size="12.1214">L2</text>
<path fill="none" stroke="#B3B8B3" stroke-miterlimit="10" d="M231.705,294.232c0,0-12.937-12.45-15.964-40.225
	c0,0-9.357-42.896-11.282-44.595c0,0,4.678-53.663-20.917-58.133"/>
<path fill="none" stroke="#B3B8B3" stroke-miterlimit="10" d="M195.247,241.777c0,0,7.995-6.073,9.923-33.631
	c0,0,3.303,52.954,5.504,55.477c0,0,12.666,71.089,15.418,82.581c2.753,11.495,0.97,35.815,0.97,35.815"/>
<path fill="none" stroke="#B3B8B3" stroke-miterlimit="10" d="M246.664,416.863c-0.549-25.221-18.929-62.93-18.929-62.93"/>
<path fill="none" stroke="#B3B8B3" stroke-miterlimit="10" d="M227.899,355.755c0,0,12.463,64.178,13.658,69.605"/>
<text transform="matrix(0.8331 0 0 1 267.8843 367.7046)" fill="#010101" font-family="'MyriadPro-Regular'" font-size="12.1214">C7</text>
<line fill="#FFFFFF" stroke="#010101" stroke-miterlimit="10" x1="271.736" y1="370.507" x2="242.874" y2="393.544"/>
<text transform="matrix(0.8331 0 0 1 257.3052 345.6992)" fill="#010101" font-family="'MyriadPro-Regular'" font-size="12.1214">C8</text>
<line fill="#FFFFFF" stroke="#010101" stroke-miterlimit="10" x1="257.306" y1="349.098" x2="229.487" y2="381.449"/>
<text transform="matrix(0.8331 0 0 1 216.3926 301.7812)" fill="#010101" font-family="'MyriadPro-Regular'" font-size="12.1214">C6</text>
<text transform="matrix(0.8331 0 0 1 200.4248 277.9072)" fill="#010101" font-family="'MyriadPro-Regular'" font-size="12.1214">T1</text>
<path fill="none" stroke="#B3B8B3" stroke-miterlimit="10" d="M195.54,213.334c14.04-32.884-6.236-43.418-6.236-43.418
	c-11.107-6.066-26.422,0-26.422,0c-16.216,6.705-45.334-0.958-45.334-0.958c-20.416-5.108-27.322,5.109-27.322,5.109
	c-13.811,12.771,0.044,43.399,0.044,43.399"/>
<text transform="matrix(0.8331 0 0 1 138.5796 170.4663)" fill="#010101" font-family="'MyriadPro-Regular'" font-size="12.1214">T2</text>
<text transform="matrix(0.8331 0 0 1 138.5796 184.1509)" fill="#010101" font-family="'MyriadPro-Regular'" font-size="12.1214">T3</text>
<path fill="none" stroke="#B3B8B3" stroke-miterlimit="10" d="M89.961,204.287c0,0,12.959,5.43,29.233,0.001
	c0,0,38.012-0.958,47.186,0c0,0,24.902,6.42,29.516,0"/>
<text transform="matrix(0.8331 0 0 1 138.5796 198.311)" fill="#010101" font-family="'MyriadPro-Regular'" font-size="12.1214">T4</text>
<path fill="none" stroke="#B3B8B3" stroke-miterlimit="10" d="M191.87,224.187c-1.678,2.235-22.846,4.371-22.846,4.371
	c-7.648-1.377-25.891-2.456-25.891-2.456c-4.775-0.638-28.415,2.456-28.415,2.456l-18.279-2.185"/>
<path fill="none" stroke="#B3B8B3" stroke-miterlimit="10" d="M193.515,187.329c-10.332-6.065-31.529-2.303-31.529-2.303
	c-15.082,6.705-42.167-0.958-42.167-0.958c-18.99-5.108-28.797,5.108-28.797,5.108"/>
<text transform="matrix(0.8331 0 0 1 137.2085 217.1421)" fill="#010101" font-family="'MyriadPro-Regular'" font-size="12.1214">T5</text>
<path fill="none" stroke="#B3B8B3" stroke-miterlimit="10" d="M97.931,231.053c0,0,42.925,16.283,93.013,0"/>
<text transform="matrix(0.8331 0 0 1 138.5796 234.6714)" fill="#010101" font-family="'MyriadPro-Regular'" font-size="12.1214">T6</text>
<path fill="none" stroke="#B3B8B3" stroke-miterlimit="10" d="M99.457,242.818c0,0,41.517,16.283,89.962,0"/>
<text transform="matrix(0.8331 0 0 1 138.5796 248.936)" fill="#010101" font-family="'MyriadPro-Regular'" font-size="12.1214">T7</text>
<path fill="none" stroke="#B3B8B3" stroke-miterlimit="10" d="M100.164,257.581c0,0,41.517,16.283,89.962,0"/>
<path fill="none" stroke="#B3B8B3" stroke-miterlimit="10" d="M98.901,274.289c0,0,39.61,16.283,88.054,0"/>
<text transform="matrix(0.8331 0 0 1 139.2642 261.0229)" fill="#010101" font-family="'MyriadPro-Regular'" font-size="12.1214">T8</text>
<text transform="matrix(0.8331 0 0 1 139.2642 277.9072)" fill="#010101" font-family="'MyriadPro-Regular'" font-size="12.1214">T9</text>
<path fill="none" stroke="#B3B8B3" stroke-miterlimit="10" d="M90.328,296.121c0,0,45.361,16.284,100.841,0"/>
<text transform="matrix(0.8331 0 0 1 138.3276 299.3647)" fill="#010101" font-family="'MyriadPro-Regular'" font-size="12.1214">T10</text>
<path fill="none" stroke="#B3B8B3" stroke-miterlimit="10" d="M85.337,315.649c0,0,50.443,16.283,112.138,0"/>
<text transform="matrix(0.8331 0 0 1 137.208 316.606)" fill="#010101" font-family="'MyriadPro-Regular'" font-size="12.1214">T11</text>
<path fill="none" stroke="#B3B8B3" stroke-miterlimit="10" d="M80.937,333.778c0,0,53.911,16.284,119.848,0"/>
<text transform="matrix(0.8331 0 0 1 136.2075 337.3955)" fill="#010101" font-family="'MyriadPro-Regular'" font-size="12.1214">T12</text>
<path fill="none" stroke="#B3B8B3" stroke-miterlimit="10" d="M78.555,347.642c0,0,19.011,1.193,27.684,13.059
	c0,0,23.538,15.395,35.119,8.51"/>
<path fill="none" stroke="#B3B8B3" stroke-miterlimit="10" d="M203.197,348.068c0,0-16.15,1.192-24.823,13.058
	c0,0-23.538,15.395-35.119,8.51"/>
<text transform="matrix(0.8331 0 0 1 106.2388 355.3726)" fill="#010101" font-family="'MyriadPro-Regular'" font-size="12.1214">L1</text>
<text transform="matrix(0.8331 0 0 1 165.9224 356.0015)" fill="#010101" font-family="'MyriadPro-Regular'" font-size="12.1214">L1</text>
<text transform="matrix(0.9482 0 0 1 136.9585 356.2437)" font-family="'MyriadPro-Regular'" font-size="12.0652">S2</text>
<text transform="matrix(0.8331 0 0 1 80.5249 217.4668)" fill="#010101" font-family="'MyriadPro-Regular'" font-size="12.1214">T2</text>
<text transform="matrix(0.8331 0 0 1 193.6455 217.4668)" fill="#010101" font-family="'MyriadPro-Regular'" font-size="12.1214">T2</text>
<path fill="none" stroke="#B3B8B3" stroke-miterlimit="10" d="M408.289,172.964c0,0,56.664-52.326,111.689,2.269"/>
<path fill="none" stroke="#B3B8B3" stroke-miterlimit="10" d="M410.197,184.461c0,0,54.664-53.341,109.689,1.253"/>
<path fill="none" stroke="#B3B8B3" stroke-miterlimit="10" d="M502.35,629.714C502.35,629.714,500.313,638.426,502.35,629.714
	c2.038-8.715-2.963-22.907-2.963-22.907c-7.678-5.024,17.427-104.978,17.427-104.978s4.991-26.148-6.428-35.303"/>
<path fill="none" stroke="#B3B8B3" stroke-miterlimit="10" d="M352.855,398.744c0,0,10.543-40.783,18.636-53.317"/>
<path fill="none" stroke="#B3B8B3" stroke-miterlimit="10" d="M371.491,345.427c0,0,18.921-126.72,22.667-139.759"/>
<path fill="none" stroke="#B3B8B3" stroke-miterlimit="10" d="M372.328,259.159c0,0,16.279-29.279,21.31-51.392"/>
<text transform="matrix(0.9806 0 0 1 445.1655 518.0229)" fill="#010101" font-family="'MyriadPro-Regular'" font-size="12.1357">L4</text>
<text transform="matrix(0.9806 0 0 1 475.1265 480.8843)" fill="#010101" font-family="'MyriadPro-Regular'" font-size="12.1357">L3</text>
<text transform="matrix(0.9806 0 0 1 459.5913 280.4722)" fill="#010101" font-family="'MyriadPro-Regular'" font-size="12.1357">L2</text>
<text transform="matrix(0.9806 0 0 1 460.2417 266.8447)" fill="#010101" font-family="'MyriadPro-Regular'" font-size="12.1357">L1</text>
<text transform="matrix(0.9806 0 0 1 457.0073 250.6055)" fill="#010101" font-family="'MyriadPro-Regular'" font-size="12.1357">T12</text>
<text transform="matrix(0.9806 0 0 1 457.5913 239.7188)" fill="#010101" font-family="'MyriadPro-Regular'" font-size="12.1357">T11</text>
<text transform="matrix(0.9806 0 0 1 457.0073 227.9961)" fill="#010101" font-family="'MyriadPro-Regular'" font-size="12.1357">T10</text>
<text transform="matrix(0.9806 0 0 1 461.2417 215.9893)" fill="#010101" font-family="'MyriadPro-Regular'" font-size="12.1357">T9</text>
<text transform="matrix(0.9806 0 0 1 459.5913 204.0547)" fill="#010101" font-family="'MyriadPro-Regular'" font-size="12.1357">T8</text>
<text transform="matrix(0.9806 0 0 1 459.5913 181.5166)" fill="#010101" font-family="'MyriadPro-Regular'" font-size="12.1357">T6</text>
<text transform="matrix(0.9806 0 0 1 621.9546 267.3145)" fill="#010101" font-family="'MyriadPro-Regular'" font-size="12.1357">S1</text>
<text transform="matrix(0.9806 0 0 1 427.3862 446.6235)" fill="#010101" font-family="'MyriadPro-Regular'" font-size="12.1357">S2</text>
<text transform="matrix(0.9806 0 0 1 495.3569 450.5415)" fill="#010101" font-family="'MyriadPro-Regular'" font-size="12.1357">S2</text>
<text transform="matrix(0.9806 0 0 1 484.1948 338.0859)" fill="#010101" font-family="'MyriadPro-Regular'" font-size="12.1357">S3</text>
<text transform="matrix(0.9806 0 0 1 459.8081 354.3237)" fill="#010101" font-family="'MyriadPro-Regular'" font-size="12.1357">S4</text>
<text transform="matrix(0.9806 0 0 1 371.4907 433.8608)" fill="#010101" font-family="'MyriadPro-Regular'" font-size="12.1357">S5</text>
<text transform="matrix(0.9806 0 0 1 452.9233 682.4937)" fill="#010101" font-family="'MyriadPro-Regular'" font-size="12.1357">S1</text>
<text transform="matrix(0.9806 0 0 1 396.3188 618.9458)" fill="#010101" font-family="'MyriadPro-Regular'" font-size="12.1357">L5</text>
<text transform="matrix(0.9806 0 0 1 530.8315 663.6948)" fill="#010101" font-family="'MyriadPro-Regular'" font-size="12.1357">L5</text>
<path fill="none" stroke="#B3B8B3" stroke-miterlimit="10" d="M371.491,410.345l0.485-12.604c0.763-1.438,6.619-22.961,4.957-35.934
	"/>
<path fill="none" stroke="#B3B8B3" stroke-miterlimit="10" d="M444.686,79.649c0,0,5.597,27.701-38.921,31.076
	c0,0-28.491,4.635-27.9,36.177l-0.184,43.546c0,0,0.574,35.238,0,42.839c0,0-13.794,60.553-15.441,99.997
	c0,0-0.564,26.452-2.036,28.522c0,0-0.086,4.413-1.78,5.171c0,0-2.18,1.761-2.907,3.021c0,0-9.194,6.054-12.826,10.842
	c0,0-3.39,3.029-4.602,4.291c0,0-5.079,0.499-5.322,3.279c0,0-1.207,3.525,7.743,2.011c0,0,5.323-3.277,7.99-4.287
	c0,0,0.725,0.756,0,4.666c0,0-3.874,11.476-3.874,19.544c0,0-0.728,7.305,1.696,8.823c0,0,3.143,3.525,3.872-8.326
	c0,0,1.21-9.826,2.661-12.099c0,0,0.967,4.79,0.483,7.064c0,0-0.724,4.537-1.45,6.805c0,0-1.454,9.323-0.728,10.586
	c0.728,1.266,0.728,1.266,0.728,1.266s2.421,3.273,4.115-2.015c0,0,0.965-6.056,1.207-9.333c0,0,1.693-9.327,2.661-11.346
	l1.457-0.249c-7.831,29.601-0.723,26.362,0,24.059c0.706-2.253,1.205-2.113,1.205-2.113c0.972-3.532,3.147-22.959,3.147-22.959
	l1.213-0.25c0,0,0.381,34.359,4.597,8.136"/>
<path fill="none" stroke="#B3B8B3" stroke-miterlimit="10" d="M377.806,362.766c-4.965,16.031,28.172-116.797,27.959-117.919
	c0,0,4.002-47.525,5.252-62.359"/>
<path fill="none" stroke="#B3B8B3" stroke-miterlimit="10" d="M417.341,351.317c5.486,3.368,24.264,22.983,48.461,2.161
	c0,0,26.686,21.639,48.76-0.081"/>
<path fill="none" stroke="#B3B8B3" stroke-miterlimit="10" d="M464.989,355.506c-3.468,2.273-3.699,120.369-3.699,120.369
	s-2.5,10.913-2.002,29.01c0,0,7.001,119.713,1.501,152.244c-0.757,4.472,3.127,13.174,3.127,13.174c1.124,5.308,0,18.089,0,18.089
	c-13.881,13.744-31.641-11.338-31.641-11.338c-6.504-4.824,0.502-6.751,0.502-6.751c-1.501-2.895,5.003-2.415,5.003-2.415
	c-1.999-2.895,7.386-3.375,7.386-3.375c1.926-3.172,0.367-9.412,0.367-9.412c3.001-14.472-24.477-98.416-24.477-98.416
	c-14.723-43.421-0.039-87.565-0.039-87.565c0.994-9.406-18.754-99.58-18.754-99.58c-20.258-51.38,17.758-111.006,17.758-111.006
	c5.252-15.197-13.756-94.315-13.756-94.315"/>
<path fill="none" stroke="#B3B8B3" stroke-miterlimit="10" d="M522.817,171.034c-2.501,11.096-6.003,23.878-6.003,23.878
	c-3.544,10.399-8.254,60.788-8.254,60.788s36.363,76.632,16.162,114.1l-1.824,16.886l-8.814,94.201"/>
<path fill="none" stroke="#B3B8B3" stroke-miterlimit="10" d="M467.99,355.085c-3.001,19.78,4.852,101.997,4.852,101.997
	s-2.172,39.808,2.286,44.991"/>
<path fill="none" stroke="#B3B8B3" stroke-miterlimit="10" d="M444.404,73.084c0,0,5.332,1.693,11-2.03c0,0,6.334-4.737,7.666-7.444
	c0,0,6.332-2.707,10.667,0c0,0,5,7.107,6.334,7.444c4.523,1.772,3.479,4.071,11.502,2.414l0,0"/>
<path fill="none" stroke="#B3B8B3" stroke-miterlimit="10" d="M475.235,0.944c9.107,2.511,31.668,11.843,22.334,39.93
	c0,0,6-0.339,2.666,11.504c0,0-1.332,17.258-6.666,10.152c0,0-2.092,10.673-2.911,15.179"/>
<path fill="none" stroke="#B3B8B3" stroke-miterlimit="10" d="M443.57,90.279c0,0,3.666-16.919-0.668-26.056c0,0-6,5.076-7-11.167
	c0,0-6.666-13.536,2-12.183c-2.865-16.949,2.021-44.179,37.333-39.93"/>
<text transform="matrix(0.985 0 0 1 462.5698 80.8037)" fill="#010101" font-family="'MyriadPro-Regular'" font-size="12.1821">C3</text>
<text transform="matrix(0.985 0 0 1 461.437 42.397)" fill="#010101" font-family="'MyriadPro-Regular'" font-size="12.1821">C2</text>
<path fill="none" stroke="#B3B8B3" stroke-miterlimit="10" d="M405.748,111.729c0,0,20.988,6.092,34.322-8.459
	c0,0,4.844-3.634,12.422-5.899c8.936-2.671,21.671-3.439,34.747,5.899c0,0,5.498,10.829,29.498,7.445"/>
<text transform="matrix(0.985 0 0 1 459.5913 108.2314)" fill="#010101" font-family="'MyriadPro-Regular'" font-size="12.1821">C4</text>
<path fill="none" stroke="#B3B8B3" stroke-miterlimit="10" d="M384.223,126.842c0,0,139.722,5.075,157.694-1.015"/>
<path fill="none" stroke="#B3B8B3" stroke-miterlimit="10" d="M402.802,259.55c0,0-17.021-52.609-4.672-104.805
	c0,0,23.03-39.062,62.414-16.938c0,0,7.344,5.096,27.703-6.785c0,0,40.719-4.621,49.397,35.13c0,0,5.535,74.685-6.812,93.007"/>
<path fill="none" stroke="#B3B8B3" stroke-miterlimit="10" d="M442.458,130.857c0,0,15.028-14.854,23.348-13.838
	c0,0,9.99,0.676,23.821,12.521"/>
<text transform="matrix(0.985 0 0 1 459.5913 126.8428)" fill="#010101" font-family="'MyriadPro-Regular'" font-size="12.1821">C5</text>
<text transform="matrix(0.985 0 0 1 459.5913 138.0093)" fill="#010101" font-family="'MyriadPro-Regular'" font-size="12.1821">C6</text>
<text transform="matrix(0.985 0 0 1 410.2251 153.4604)" fill="#010101" font-family="'MyriadPro-Regular'" font-size="12.1821">T2</text>
<path fill="none" stroke="#B3B8B3" stroke-miterlimit="10" d="M440.476,109.585c0,0,8.334,37.899-11.332,48.728"/>
<path fill="none" stroke="#B3B8B3" stroke-miterlimit="10" d="M494.043,111.107c0,0-15.332,32.147,10.668,50.759"/>
<text transform="matrix(0.985 0 0 1 459.5913 148.1426)" fill="#010101" font-family="'MyriadPro-Regular'" font-size="12.1821">T3</text>
<text transform="matrix(0.985 0 0 1 459.5913 161.8662)" fill="#010101" font-family="'MyriadPro-Regular'" font-size="12.1821">T4</text>
<path fill="none" stroke="#B3B8B3" stroke-miterlimit="10" d="M412.836,194.103c12.012,0.531,15.303-7.124,24.013-14.202
	c9.495-7.717,20.469-9.608,32.699-9.052c10.714,0.487,21.552,5.134,30.171,10.829c7.324,4.839,8.153,11.147,17.095,13.233"/>
<g>
	<text transform="matrix(0.985 0 0 1 459.5913 172.4023)" fill="#010101" font-family="'MyriadPro-Regular'" font-size="12.1821">T5</text>
</g>
<path fill="none" stroke="#B3B8B3" stroke-miterlimit="10" d="M416,204.86c11.318,0.532,14.419-7.124,22.626-14.201
	c8.947-7.717,19.288-9.608,30.812-9.052c10.096,0.487,20.308,5.134,28.43,10.829c6.901,4.839,7.683,11.146,16.108,13.232"/>
<path fill="none" stroke="#B3B8B3" stroke-miterlimit="10" d="M418.302,218.007c10.83,0.531,14.797-7.124,22.649-14.202
	c8.562-7.717,18.455-9.608,29.482-9.052c9.658,0.487,19.43,5.134,27.201,10.829c6.604,4.839,7.352,11.146,15.413,13.232"/>
<text transform="matrix(0.985 0 0 1 459.5913 191.7026)" fill="#010101" font-family="'MyriadPro-Regular'" font-size="12.1821">T7</text>
<path fill="none" stroke="#B3B8B3" stroke-miterlimit="10" d="M420.669,229.48c10.402,0.531,14.213-7.124,21.755-14.202
	c8.224-7.717,17.728-9.608,28.319-9.052c9.276,0.487,18.663,5.135,26.128,10.829c6.342,4.838,7.061,11.146,14.805,13.231"/>
<path fill="none" stroke="#B3B8B3" stroke-miterlimit="10" d="M420.189,240.644c10.311,0.531,14.087-7.124,21.562-14.202
	c8.15-7.717,17.568-9.608,28.066-9.052c9.194,0.487,18.497,5.134,25.896,10.829c6.286,4.838,6.998,11.146,14.673,13.231"/>
<text transform="matrix(0.985 0 0 1 509.3091 152.8086)" fill="#010101" font-family="'MyriadPro-Regular'" font-size="12.1821">T2</text>
<path fill="none" stroke="#B3B8B3" stroke-miterlimit="10" d="M419.98,252.013c10.188,0.531,13.918-7.124,21.305-14.202
	c8.053-7.717,17.359-9.608,27.732-9.052c9.083,0.487,18.275,5.134,25.585,10.829c6.211,4.838,6.915,11.146,14.498,13.231"/>
<path fill="none" stroke="#B3B8B3" stroke-miterlimit="10" d="M416.078,264.088c10.811,0.531,14.771-7.124,22.61-14.202
	c8.546-7.717,18.423-9.608,29.432-9.052c9.64,0.487,19.396,5.134,27.152,10.829c6.592,4.838,8.34,11.146,16.387,13.231"/>
<path fill="none" stroke="#B3B8B3" stroke-miterlimit="10" d="M410.451,278.113c12.271,0.531,16.767-7.124,25.664-14.202
	c9.699-7.717,20.91-9.608,33.404-9.052c10.942,0.487,22.015,5.134,30.819,10.829c7.482,4.838,9.467,11.146,18.6,13.231"/>
<path fill="none" stroke="#B3B8B3" stroke-miterlimit="10" d="M399.064,314.081c13.859,1.643,24.494-14.098,31.734-24.377
	c3.982-5.654,8.305-11.3,13.987-15.405c5.671-4.096,12.278-4.63,18.847-4.988c9.701-0.528,22.811,4.93,29.996,11.763
	c3.868,3.677,6.244,9.297,9.307,13.835c3.12,4.625,6.88,9.211,11.032,12.592c3.82,3.107,11.656,9.603,16.355,10.57"/>
<path fill="none" stroke="#B3B8B3" stroke-miterlimit="10" d="M418.302,446.624c0,0,1.475-100.197,3.475-105.612
	c0,0,9.333-51.096,40.333-58.879c0,0,31.272-8.745,47.904,58.879l5.662,119.379"/>
<path fill="none" stroke="#B3B8B3" stroke-miterlimit="10" d="M462.081,314.176c6.666,2.902,3,39.255,3,39.255s0.334-38.24,5-39.255
	"/>
<path fill="none" stroke="#B3B8B3" stroke-miterlimit="10" d="M462.242,391.254c0,0-11.306,20.128-21.931,12.599
	c-2.559-1.812-5.319-5.107-8.23-10.492c0,0-31.334-46.36,3.666-77.831c0,0,29.667-25.717,64.667,9.137c0,0,16.333,22.334,3,57.188
	c0,0-11.954,34.948-35.621,9.231"/>
<path fill="none" stroke="#B3B8B3" stroke-miterlimit="10" d="M464.715,345.843c-9.837-3.175-3.138-23.831,4.847-17.083
	C475.274,333.587,471.501,348.032,464.715,345.843z"/>
<path fill="none" stroke="#B3B8B3" stroke-miterlimit="10" d="M464.184,359.156c-14.506-5.975-4.627-44.843,7.147-32.146
	C479.755,336.092,474.193,363.276,464.184,359.156z"/>
<path fill="none" stroke="#B3B8B3" stroke-miterlimit="10" d="M442.365,311.647c7.224-8.059,16.101-15.913,27.354-12.895
	c4.635,1.243,8.063,4.713,11.979,7.818c3.005,2.383,5.012,7.619,8.47,8.731"/>
<path fill="none" stroke="#B3B8B3" stroke-miterlimit="10" d="M442.081,311.13c4.086-7.865,11.668-24.024,22.017-24.026
	c12.352-0.002,16.749,11.427,19.649,15.664c3.891,7.798,5.104,10.529,6.421,12.534"/>
<path fill="none" stroke="#B3B8B3" stroke-miterlimit="10" d="M482.842,483.921c0,0-10.001,19.415-10.001,22.461"/>
<path fill="none" stroke="#B3B8B3" stroke-miterlimit="10" d="M478.018,623.429c0,0,17-26.396,24.332,6.43
	c0,0-5.4,17.369-1.106,20.617c0,0,7.108,28.113,2.774,34.541"/>
<path fill="none" stroke="#B3B8B3" stroke-miterlimit="10" d="M483.35,663.697c0,0,5.668-0.339,10,8.121l1.668-8.123"/>
<path fill="none" stroke="#B3B8B3" stroke-miterlimit="10" d="M478.018,682.985c0,0,3.5,1.216,5.916,3.187s3.75,4.693-0.584,7.707"
	/>
<path fill="none" stroke="#B3B8B3" stroke-miterlimit="10" d="M483.934,686.171c10.918-3.242,20.084-1.154,20.084-1.154
	s0.334,6.429-2,6.429c0,0-3.668,1.693-6.668,0c0,0-3,1.844-4.666,0.753c-1.666-1.09-2.666,1.441-4.666,0.345
	c-2-1.098-4.666,6.738-10,0.282c0,0-2.335-3.781-0.334-10.872c2-7.088,0.666-1.675,0.666-1.675s-2.999-19.289-1.332-23.35
	c0,0,0.998-2.706,2.666-5.752l0.334-27.748c0,0-4.495-7.412-0.668-17.259l-2.223-36.144c0,0-5.548-46.639-2.286-63.645"/>
<path fill="none" stroke="#B3B8B3" stroke-miterlimit="10" d="M490.684,692.199c0,0,0.838-6.767-1.5-6.767"/>
<path fill="none" stroke="#B3B8B3" stroke-miterlimit="10" d="M495.35,691.446c0,0,0.238-6.889-2.207-6.746"/>
<path fill="none" stroke="#B3B8B3" stroke-miterlimit="10" d="M499.684,691.446c0,0-0.668-2.844,0-6.167"/>
<path fill="none" stroke="#B3B8B3" stroke-miterlimit="10" d="M486.182,636.963c0,0,5.502,7.105,10.836,0"/>
<path fill="none" stroke="#B3B8B3" stroke-miterlimit="10" d="M499.11,618.946c0,0-9.986-17.258-7.445-25.38
	c0,0,24.419-91.361,22.419-112.68"/>
<path fill="none" stroke="#B3B8B3" stroke-miterlimit="10" d="M481.743,618.584c0,0,9.145-45.617,7.334-114.298
	c-0.719-27.279-2.959-70.639-8.393-103.78"/>
<path fill="none" stroke="#B3B8B3" stroke-miterlimit="10" d="M486.241,488.089c-8.7,8.319-7.264,6.853-13.399,18.293"/>
<path fill="none" stroke="#B3B8B3" stroke-miterlimit="10" d="M487.224,556.451c0,0,7.501,7.892,14.051,1.307"/>
<path fill="none" stroke="#B3B8B3" stroke-miterlimit="10" d="M477.684,651.177c0,0,15,17.773,12.803,33.529"/>
<text transform="matrix(0.985 0 0 1 475.1265 540.8608)" fill="#010101" font-family="'MyriadPro-Regular'" font-size="12.1821">L4</text>
<text transform="matrix(0.985 0 0 1 486.1812 652.1929)" fill="#010101" font-family="'MyriadPro-Regular'" font-size="12.1821">S1</text>
<text transform="matrix(0.985 0 0 1 518.3511 602.7866)" fill="#010101" font-family="'MyriadPro-Regular'" font-size="12.1821">L5</text>
<line fill="#FFFFFF" stroke="#010101" stroke-miterlimit="10" x1="495.356" y1="602.787" x2="518.35" y2="599.741"/>
<path fill="none" stroke="#B3B8B3" stroke-miterlimit="10" d="M438.898,668.053c-2.398-3.405-1.744-0.775-1.744-0.775
	s16.135,31.464,13.301,0.775c0,0-0.306-47.416-3.424-53.206c0,0-20.282-68.165-19.629-74.6"/>
<path fill="none" stroke="#B3B8B3" stroke-miterlimit="10" d="M459.288,504.885c0,0-7.095-7.478-14.122-14.104
	c0,0-3.078-80.211,2.759-85.053"/>
<path fill="none" stroke="#B3B8B3" stroke-miterlimit="10" d="M445.166,490.782c0,0,8.827,147.77,10.863,153.349
	c0,0,1.63,15.139,4.889,17.929"/>
<path fill="none" stroke="#B3B8B3" stroke-miterlimit="10" d="M421.017,469.12c0,0,0.558,58.641,6.385,71.128
	c0,0,10.592,9.797,20.334-7.673"/>
<line fill="none" stroke="#010101" stroke-miterlimit="10" x1="484.195" y1="676.376" x2="524.722" y2="662.178"/>
<line fill="#FFFFFF" stroke="#010101" stroke-miterlimit="10" x1="412.836" y1="618.188" x2="445.93" y2="631.385"/>
<text transform="matrix(0.985 0 0 1 515.6753 351.3169)" fill="#010101" font-family="'MyriadPro-Regular'" font-size="12.1821">L2</text>
<text transform="matrix(0.985 0 0 1 405.7476 346.3975)" fill="#010101" font-family="'MyriadPro-Regular'" font-size="12.1821">L2</text>
<text transform="matrix(0.985 0 0 1 490.7065 316.0029)" fill="#010101" font-family="'MyriadPro-Regular'" font-size="12.1821">L3</text>
<text transform="matrix(0.985 0 0 1 430.6538 315.3018)" fill="#010101" font-family="'MyriadPro-Regular'" font-size="12.1821">L3</text>
<text transform="matrix(0.9806 0 0 1 433.4536 338.0854)" fill="#010101" font-family="'MyriadPro-Regular'" font-size="12.1357">S3</text>
<line fill="#FFFFFF" stroke="#010101" stroke-miterlimit="10" x1="462.081" y1="338.086" x2="388.812" y2="425.581"/>
<text transform="matrix(0.9806 0 0 1 447.7358 480.8843)" fill="#010101" font-family="'MyriadPro-Regular'" font-size="12.1357">L3</text>
<line fill="none" stroke="#010101" stroke-miterlimit="10" x1="475.278" y1="304.774" x2="618.686" y2="281.406"/>
<line fill="none" stroke="#010101" stroke-miterlimit="10" x1="476.614" y1="296.954" x2="618.54" y2="267.315"/>
<text transform="matrix(0.985 0 0 1 621.9546 284.4048)" fill="#010101" font-family="'MyriadPro-Regular'" font-size="12.1821">S2</text>
<path fill="none" stroke="#B3B8B3" stroke-miterlimit="10" d="M361.329,401.522c0,0,10.495-51.297,10.162-56.095
	c0,0,6.242,21.353,5.315,18.355"/>
<text transform="matrix(0.985 0 0 1 396.3188 215.9893)" fill="#010101" font-family="'MyriadPro-Regular'" font-size="12.1821">T2</text>
<text transform="matrix(0.985 0 0 1 382.9819 287.1055)" fill="#010101" font-family="'MyriadPro-Regular'" font-size="12.1821">T1</text>
<text transform="matrix(0.985 0 0 1 329.0659 355.9663)" fill="#010101" font-family="'MyriadPro-Regular'" font-size="12.1821">C8</text>
<text transform="matrix(0.985 0 0 1 329.0659 373.4741)" fill="#010101" font-family="'MyriadPro-Regular'" font-size="12.1821">C6</text>
<text transform="matrix(0.985 0 0 1 326.0132 413.4604)" fill="#010101" font-family="'MyriadPro-Regular'" font-size="12.1821">C7</text>
<line fill="#FFFFFF" stroke="#010101" stroke-miterlimit="10" x1="348.5" y1="355.085" x2="371.491" y2="379.125"/>
<line fill="none" stroke="#010101" stroke-miterlimit="10" x1="344.469" y1="371.077" x2="352.855" y2="379.125"/>
<line fill="none" stroke="#010101" stroke-miterlimit="10" x1="341.416" y1="401.522" x2="359.996" y2="392.566"/>
<path fill="none" stroke="#B3B8B3" stroke-miterlimit="10" d="M581.216,400.707c0,0-10.543-40.785-18.636-53.319"/>
<path fill="none" stroke="#B3B8B3" stroke-miterlimit="10" d="M562.581,347.388c0,0-19.922-125.704-23.668-138.743
	c0,0,14.903,47.043,21.799,48.062"/>
<path fill="none" stroke="#B3B8B3" stroke-miterlimit="10" d="M562.581,412.308l-0.486-12.606
	c-0.762-1.436-6.618-22.959-4.957-35.932"/>
<path fill="none" stroke="#B3B8B3" stroke-miterlimit="10" d="M490.658,77.709c0,0-9.974,27.603,37.648,34.978
	c0,0,18.271,2.584,24.899,36.177l2.185,43.546c0,0,0.426,35.238,1,42.839c0,0,13.794,60.553,15.44,99.997
	c0,0,0.565,26.451,2.037,28.523c0,0,0.086,4.413,1.78,5.171c0,0,2.18,1.761,2.907,3.02c0,0,9.194,6.054,12.826,10.844
	c0,0,3.39,3.029,4.602,4.289c0,0,5.078,0.501,5.322,3.279c0,0,1.207,3.525-7.744,2.011c0,0-5.322-3.277-7.989-4.285
	c0,0-0.725,0.756,0,4.664c0,0,3.874,11.476,3.874,19.546c0,0,0.728,7.303-1.696,8.821c0,0-3.143,3.527-3.872-8.324
	c0,0-1.211-9.828-2.661-12.099c0,0-0.968,4.791-0.483,7.062c0,0,0.724,4.539,1.45,6.807c0,0,1.454,9.323,0.728,10.587
	c-0.728,1.263-0.728,1.263-0.728,1.263s-2.421,3.275-4.115-2.013c0,0-0.965-6.058-1.207-9.333c0,0-1.694-9.329-2.661-11.348
	l-1.457-0.247c7.831,29.599,0.723,26.362,0,24.057c-0.706-2.253-1.205-2.113-1.205-2.113c-0.973-3.529-3.147-22.959-3.147-22.959
	l-1.214-0.25c0,0-0.38,34.361-4.596,8.136"/>
<path fill="none" stroke="#B3B8B3" stroke-miterlimit="10" d="M557.265,364.727c0.906,23.312-29.171-116.796-28.959-117.918
	c0,0-7.002-47.525-8.253-62.359"/>
<path fill="none" stroke="#B3B8B3" stroke-miterlimit="10" d="M572.743,403.485c0,0-10.495-51.299-10.162-56.097
	c0,0-6.242,21.353-5.315,18.355"/>
<text transform="matrix(0.985 0 0 1 604.5659 353.4312)" fill="#010101" font-family="'MyriadPro-Regular'" font-size="12.1821">C8</text>
<text transform="matrix(0.985 0 0 1 604.5659 375.4351)" fill="#010101" font-family="'MyriadPro-Regular'" font-size="12.1821">C6</text>
<text transform="matrix(0.985 0 0 1 607.4663 413.4604)" fill="#010101" font-family="'MyriadPro-Regular'" font-size="12.1821">C7</text>
<line fill="none" stroke="#010101" stroke-miterlimit="10" x1="601.36" y1="408.417" x2="574.076" y2="395.322"/>
<line fill="none" stroke="#010101" stroke-miterlimit="10" x1="581.216" y1="381.833" x2="601.36" y2="373.9"/>
<line fill="none" stroke="#010101" stroke-miterlimit="10" x1="564.958" y1="381.137" x2="601.36" y2="355.085"/>
<text transform="matrix(0.985 0 0 1 524.7222 215.9888)" fill="#010101" font-family="'MyriadPro-Regular'" font-size="12.1821">T2</text>
<text transform="matrix(0.985 0 0 1 536.3218 148.1426)" fill="#010101" font-family="'MyriadPro-Regular'" font-size="12.1821">C5</text>
<text transform="matrix(0.985 0 0 1 382.8247 148.1426)" fill="#010101" font-family="'MyriadPro-Regular'" font-size="12.1821">C5</text>
</svg>
