<?xml version="1.0" encoding="utf-8"?>
<!-- Generator: Adobe Illustrator 15.0.2, SVG Export Plug-In  -->
<!DOCTYPE svg PUBLIC "-//W3C//DTD SVG 1.1//EN" "http://www.w3.org/Graphics/SVG/1.1/DTD/svg11.dtd" [
	<!ENTITY ns_flows "http://ns.adobe.com/Flows/1.0/">
]>
<svg version="1.1"
	 xmlns="http://www.w3.org/2000/svg" xmlns:xlink="http://www.w3.org/1999/xlink" xmlns:a="http://ns.adobe.com/AdobeSVGViewerExtensions/3.0/"
	 x="0px" y="0px" width="700px" height="700px" viewBox="-88.206 -7.205 700 700"
	 overflow="visible" enable-background="new -88.206 -7.205 700 700" xml:space="preserve">
<defs>
</defs>
<path fill="none" stroke="#A0989A" stroke-width="3" stroke-miterlimit="10" d="M248.74,42.661c0,0,6.949-42.022,41.121-41.147
	c0,0,36.768-0.013,35.894,45.219"/>
<path fill="none" stroke="#A0989A" stroke-width="3" stroke-miterlimit="10" d="M255.885,65.431c0,0,26.771,42.842,55.775,1.282
	c29.003-41.561,0,0,0,0l0,0"/>
<path fill="none" stroke="#A0989A" stroke-width="3" stroke-miterlimit="10" d="M215.178,140.782c0,0-5.011,73.608,14.275,79.23
	c0,0,33.979-17.004,35.389,0c0,0,1.695,15.252-3.701,24.882c0,0,2.428,16.634-19.431,9.63c0,0-20.237-5.175-31.991,10.545
	c0,0-8.648,16.672,0.741,20.573h11.577l1.897,7.502"/>
<path fill="none" stroke="#A0989A" stroke-width="3" stroke-miterlimit="10" d="M350.552,139.907c0,0-16.839,79.766-33.497,78.808
	c0,0-31.258-13.048-30.526,0c0,0-9.83,38.437,8.583,37.562c0,0,4.46,5.252,21.943-5.254c-4.742,0.944,29.974-7.072,28.945,6.567
	c1.221,2.335,4.843,18.831-11.991,18.831c0,0-8.471,8.349-7.381,15.819"/>
<line fill="none" stroke="#A0989A" stroke-width="3" stroke-miterlimit="10" x1="386.356" y1="309.668" x2="368.891" y2="343.823"/>
<line fill="none" stroke="#A0989A" stroke-width="3" stroke-miterlimit="10" x1="372.154" y1="362.151" x2="372.154" y2="373.106"/>
<path fill="none" stroke="#A0989A" stroke-width="3" stroke-miterlimit="10" d="M367.44,392.642c0,0-2.318,6.868,4.714,13.604
	c0,0,13.325,4.519,16.241-11.094c2.919-15.615,0,0,0,0"/>
<ellipse fill="none" stroke="#A0989A" stroke-width="3" stroke-miterlimit="10" cx="252.688" cy="54.176" rx="13.876" ry="10.631"/>
<path fill="none" stroke="#A0989A" stroke-width="3" stroke-miterlimit="10" d="M331.348,55.363c0,5.561-7.154,10.944-14.781,10.944
	c-7.625,0-13.809-4.507-13.809-10.068c0-5.56,7.156-10.068,14.78-10.068C325.166,46.171,331.348,49.804,331.348,55.363z"/>
<path fill="none" stroke="#A0989A" stroke-width="3" stroke-miterlimit="10" d="M236.798,98.266c0,5.559-7.249,10.939-14.975,10.939
	s-13.99-4.506-13.99-10.064s7.249-10.063,14.975-10.063C230.535,89.078,236.798,92.708,236.798,98.266z"/>
<path fill="none" stroke="#A0989A" stroke-width="3" stroke-miterlimit="10" d="M278.821,106.284
	c0,6.599-7.211,12.989-14.899,12.989c-7.686,0-13.917-5.35-13.917-11.95c0-6.6,7.212-11.95,14.897-11.95
	C272.588,95.374,278.821,99.684,278.821,106.284z"/>
<path fill="none" stroke="#A0989A" stroke-width="3" stroke-miterlimit="10" d="M319.967,108.33c0,5.561-6.439,10.943-13.304,10.943
	c-6.862,0-12.427-4.507-12.427-10.068c0-5.561,6.44-10.067,13.303-10.067C314.404,99.138,319.967,102.77,319.967,108.33z"/>
<path fill="none" stroke="#A0989A" stroke-width="3" stroke-miterlimit="10" d="M359.74,102.261c0,5.561-6.439,10.944-13.303,10.944
	c-6.864,0-12.428-4.508-12.428-10.068s6.438-10.067,13.302-10.067C354.176,93.069,359.74,96.701,359.74,102.261z"/>
<path fill="none" stroke="#A0989A" stroke-width="3" stroke-miterlimit="10" d="M297.738,94.82c0,4.835-4.807,7.88-11.817,7.88
	s-12.695-3.92-12.695-8.755c0-4.835,5.685-8.754,12.695-8.754S297.738,89.985,297.738,94.82z"/>
<ellipse fill="none" stroke="#A0989A" stroke-width="3" stroke-miterlimit="10" cx="286.529" cy="127.371" rx="7.708" ry="7.646"/>
<path fill="none" stroke="#A0989A" stroke-width="3" stroke-miterlimit="10" d="M224.809,122.586
	c0,9.968-8.068,18.427-19.258,21.417c-2.807,0.75-5.808,1.156-8.929,1.156c-15.565,0-28.185-10.107-28.185-22.573
	c0-12.467,12.62-22.574,28.185-22.574C212.189,100.012,224.809,110.12,224.809,122.586z"/>
<ellipse fill="none" stroke="#A0989A" stroke-width="3" stroke-miterlimit="10" cx="375.559" cy="127.354" rx="28.186" ry="22.999"/>
<ellipse fill="none" stroke="#A0989A" stroke-width="3" stroke-miterlimit="10" cx="184.838" cy="217.385" rx="30.339" ry="23.2"/>
<ellipse fill="none" stroke="#A0989A" stroke-width="3" stroke-miterlimit="10" cx="392.727" cy="210.382" rx="28.186" ry="20.573"/>
<ellipse fill="none" stroke="#A0989A" stroke-width="3" stroke-miterlimit="10" cx="226.826" cy="319.433" rx="34.314" ry="26.149"/>
<ellipse fill="none" stroke="#A0989A" stroke-width="3" stroke-miterlimit="10" cx="332.258" cy="317.646" rx="33.439" ry="24.434"/>
<ellipse fill="none" stroke="#A0989A" stroke-width="3" stroke-miterlimit="10" cx="242.584" cy="462.923" rx="31.25" ry="24.482"/>
<ellipse fill="none" stroke="#A0989A" stroke-width="3" stroke-miterlimit="10" cx="325.487" cy="464.675" rx="31.25" ry="24.482"/>
<ellipse fill="none" stroke="#A0989A" stroke-width="3" stroke-miterlimit="10" cx="236.798" cy="599.43" rx="31.25" ry="24.482"/>
<ellipse fill="none" stroke="#A0989A" stroke-width="3" stroke-miterlimit="10" cx="334.009" cy="611.754" rx="31.25" ry="24.482"/>
<ellipse fill="none" stroke="#A0989A" stroke-width="3" stroke-miterlimit="10" cx="279.391" cy="285.641" rx="11.343" ry="9.224"/>
<ellipse fill="none" stroke="#A0989A" stroke-width="3" stroke-miterlimit="10" cx="285.044" cy="167.861" rx="10.068" ry="17.509"/>
<ellipse fill="none" stroke="#A0989A" stroke-width="3" stroke-miterlimit="10" cx="163.792" cy="339.482" rx="14.008" ry="9.602"/>
<ellipse fill="none" stroke="#A0989A" stroke-width="3" stroke-miterlimit="10" cx="160.447" cy="308.794" rx="29.828" ry="25.406"/>
<ellipse fill="none" stroke="#A0989A" stroke-width="3" stroke-miterlimit="10" cx="398.085" cy="300.589" rx="16.455" ry="11.755"/>
<ellipse fill="none" stroke="#A0989A" stroke-width="3" stroke-miterlimit="10" cx="433.2" cy="281.683" rx="30.612" ry="24.532"/>
<ellipse fill="none" stroke="#A0989A" stroke-width="3" stroke-miterlimit="10" cx="67.709" cy="328.259" rx="15.539" ry="11.452"/>
<ellipse fill="none" stroke="#A0989A" stroke-width="3" stroke-miterlimit="10" cx="86.535" cy="345.878" rx="15.105" ry="11.148"/>
<ellipse fill="none" stroke="#A0989A" stroke-width="3" stroke-miterlimit="10" cx="108.263" cy="361.543" rx="13.741" ry="12.461"/>
<ellipse fill="none" stroke="#A0989A" stroke-width="3" stroke-miterlimit="10" cx="135.019" cy="374.332" rx="13.89" ry="12.132"/>
<ellipse fill="none" stroke="#A0989A" stroke-width="3" stroke-miterlimit="10" cx="151.579" cy="392.525" rx="13.355" ry="11.096"/>
<ellipse fill="none" stroke="#A0989A" stroke-width="3" stroke-miterlimit="10" cx="34.081" cy="350.458" rx="14.587" ry="10.054"/>
<ellipse fill="none" stroke="#A0989A" stroke-width="3" stroke-miterlimit="10" cx="19.931" cy="373.252" rx="14.008" ry="10.99"/>
<ellipse fill="none" stroke="#A0989A" stroke-width="3" stroke-miterlimit="10" cx="46.351" cy="380.696" rx="14.163" ry="11.946"/>
<ellipse fill="none" stroke="#A0989A" stroke-width="3" stroke-miterlimit="10" cx="68.554" cy="400.339" rx="14.479" ry="12.126"/>
<path fill="none" stroke="#A0989A" stroke-width="3" stroke-miterlimit="10" d="M143.923,422.517
	c0,5.553-5.956,10.056-13.303,10.056c-7.347,0-13.302-4.503-13.302-10.056c0-5.551,5.956-10.052,13.302-10.052
	C137.967,412.465,143.923,416.966,143.923,422.517z"/>
<ellipse fill="none" stroke="#A0989A" stroke-width="3" stroke-miterlimit="10" cx="106.307" cy="414.47" rx="14.822" ry="11.883"/>
<ellipse fill="none" stroke="#A0989A" stroke-width="3" stroke-miterlimit="10" cx="379.213" cy="351.715" rx="13.515" ry="12.234"/>
<ellipse fill="none" stroke="#A0989A" stroke-width="3" stroke-miterlimit="10" cx="402.588" cy="339.703" rx="15.571" ry="12.451"/>
<ellipse fill="none" stroke="#A0989A" stroke-width="3" stroke-miterlimit="10" cx="432.917" cy="338.634" rx="14.15" ry="12.208"/>
<ellipse fill="none" stroke="#A0989A" stroke-width="3" stroke-miterlimit="10" cx="461.218" cy="327.25" rx="14.15" ry="12.208"/>
<path fill="none" stroke="#A0989A" stroke-width="3" stroke-miterlimit="10" d="M503.669,319.82c0,6.741-6.336,12.206-14.148,12.206
	c-7.817,0-14.153-5.464-14.153-12.206c0-6.742,6.336-12.209,14.153-12.209C497.333,307.611,503.669,313.078,503.669,319.82z"/>
<ellipse fill="none" stroke="#A0989A" stroke-width="3" stroke-miterlimit="10" cx="379.213" cy="385.868" rx="14.15" ry="12.208"/>
<path fill="none" stroke="#A0989A" stroke-width="3" stroke-miterlimit="10" d="M421.59,386.929c0,7.347-6.882,13.301-15.375,13.301
	c-8.488,0-15.371-5.954-15.371-13.301s6.883-13.301,15.371-13.301C414.708,373.628,421.59,379.583,421.59,386.929z"/>
<ellipse fill="none" stroke="#A0989A" stroke-width="3" stroke-miterlimit="10" cx="452.616" cy="385.147" rx="15.464" ry="12.362"/>
<ellipse fill="none" stroke="#A0989A" stroke-width="3" stroke-miterlimit="10" cx="482.23" cy="372.252" rx="14.15" ry="12.208"/>
<ellipse fill="none" stroke="#A0989A" stroke-width="3" stroke-miterlimit="10" cx="503.671" cy="350.842" rx="14.15" ry="12.206"/>
<ellipse fill="none" stroke="#A0989A" stroke-width="3" stroke-miterlimit="10" cx="508.805" cy="373.106" rx="10.766" ry="10.001"/>
<path fill="none" stroke="#A0989A" stroke-width="3" stroke-miterlimit="10" d="M433.111,423.977
	c0,6.233-5.758,11.285-12.859,11.285s-12.858-5.052-12.858-11.285c0-6.229,5.757-11.28,12.858-11.28
	S433.111,417.748,433.111,423.977z"/>
<ellipse fill="none" stroke="#A0989A" stroke-width="3" stroke-miterlimit="10" cx="468.079" cy="416.3" rx="14.007" ry="11.829"/>
<ellipse fill="none" stroke="#A0989A" stroke-width="3" stroke-miterlimit="10" cx="492.831" cy="402.483" rx="13.085" ry="10.998"/>
<ellipse fill="none" stroke="#A0989A" stroke-width="3" stroke-miterlimit="10" cx="19.493" cy="406.247" rx="11.819" ry="10.051"/>
<ellipse fill="none" stroke="#A0989A" stroke-width="3" stroke-miterlimit="10" cx="36.849" cy="426.353" rx="11.819" ry="10.053"/>
<path fill="none" stroke="#A0989A" stroke-width="3" stroke-miterlimit="10" d="M86.751,443.551c0,6.192-6,11.207-13.402,11.207
	c-7.401,0-13.402-5.015-13.402-11.207c0-6.189,6.001-11.208,13.402-11.208C80.751,432.343,86.751,437.362,86.751,443.551z"/>
<ellipse fill="none" stroke="#A0989A" stroke-width="3" stroke-miterlimit="10" cx="226.844" cy="652.023" rx="14.865" ry="10.263"/>
<ellipse fill="none" stroke="#A0989A" stroke-width="3" stroke-miterlimit="10" cx="258.743" cy="647.278" rx="15.092" ry="11.945"/>
<ellipse fill="none" stroke="#A0989A" stroke-width="3" stroke-miterlimit="10" cx="304.475" cy="650.847" rx="14.864" ry="10.264"/>
<ellipse fill="none" stroke="#A0989A" stroke-width="3" stroke-miterlimit="10" cx="334.009" cy="652.899" rx="14.864" ry="10.263"/>
<ellipse fill="none" stroke="#A0989A" stroke-width="3" stroke-miterlimit="10" cx="364.542" cy="649.096" rx="14.863" ry="10.264"/>
<ellipse fill="none" stroke="#A0989A" stroke-width="3" stroke-miterlimit="10" cx="387.018" cy="636.237" rx="14.864" ry="10.264"/>
<ellipse fill="none" stroke="#A0989A" stroke-width="3" stroke-miterlimit="10" cx="413.666" cy="623.768" rx="14.864" ry="10.265"/>
<ellipse fill="none" stroke="#A0989A" stroke-width="3" stroke-miterlimit="10" cx="144.918" cy="628.678" rx="13.323" ry="10.154"/>
<ellipse fill="none" stroke="#A0989A" stroke-width="3" stroke-miterlimit="10" cx="152.509" cy="663.162" rx="15.053" ry="11.13"/>
<ellipse fill="none" stroke="#A0989A" stroke-width="3" stroke-miterlimit="10" cx="185.813" cy="670.488" rx="15.052" ry="11.13"/>
<ellipse transform="matrix(0.9998 0.0178 -0.0178 0.9998 12.0109 -3.8407)" fill="none" stroke="#A0989A" stroke-width="3" stroke-miterlimit="10" cx="222.036" cy="673.67" rx="15.052" ry="11.129"/>
<path fill="none" stroke="#A0989A" stroke-width="3" stroke-miterlimit="10" d="M271.812,674.29c0,6.148-6.736,11.131-15.05,11.131
	c-8.314,0-15.052-4.982-15.052-11.131c0-6.144,6.738-11.128,15.052-11.128C265.076,663.162,271.812,668.146,271.812,674.29z"/>
<path fill="none" stroke="#A0989A" stroke-width="3" stroke-miterlimit="10" d="M322.155,674.29c0,6.148-6.738,11.131-15.053,11.131
	c-8.313,0-15.053-4.982-15.053-11.131c0-6.144,6.739-11.128,15.053-11.128C315.417,663.162,322.155,668.146,322.155,674.29z"/>
<ellipse fill="none" stroke="#A0989A" stroke-width="3" stroke-miterlimit="10" cx="339.055" cy="674.489" rx="15.052" ry="11.128"/>
<ellipse fill="none" stroke="#A0989A" stroke-width="3" stroke-miterlimit="10" cx="371.647" cy="670.488" rx="16.296" ry="11.13"/>
<ellipse fill="none" stroke="#A0989A" stroke-width="3" stroke-miterlimit="10" cx="400.533" cy="657.255" rx="15.053" ry="11.129"/>
<ellipse fill="none" stroke="#A0989A" stroke-width="3" stroke-miterlimit="10" cx="430.292" cy="643.209" rx="15.052" ry="11.128"/>
<path fill="none" stroke="#A0989A" stroke-width="3" stroke-miterlimit="10" d="M252.687,99.138c0,0-5.944,2.205-15.889-0.872"/>
<line fill="none" stroke="#A0989A" stroke-width="3" stroke-miterlimit="10" x1="250.005" y1="105.572" x2="234.976" y2="103.137"/>
<line fill="none" stroke="#A0989A" stroke-width="3" stroke-miterlimit="10" x1="319.967" y1="108.33" x2="334.009" y2="106.447"/>
<line fill="none" stroke="#A0989A" stroke-width="3" stroke-miterlimit="10" x1="317.929" y1="103.095" x2="333.134" y2="100.777"/>
<path fill="none" stroke="#A0989A" stroke-width="3" stroke-miterlimit="10" d="M188.743,143.806c0,0-2.626,36.36-9.192,49.504"/>
<path fill="none" stroke="#A0989A" stroke-width="3" stroke-miterlimit="10" d="M205.55,144.003c0,0-13.77,36.106-8.929,50.99"/>
<path fill="none" stroke="#A0989A" stroke-width="3" stroke-miterlimit="10" d="M392.728,145.588c0,0-7.073,26.658,1.511,42.408"/>
<path fill="none" stroke="#A0989A" stroke-width="3" stroke-miterlimit="10" d="M372.154,150.352V162.6
	c0,0,9.226,20.108,7.059,28.023"/>
<path fill="none" stroke="#A0989A" stroke-width="3" stroke-miterlimit="10" d="M204.672,234.457c0,0-12.017,30.573-18.556,30.573"
	/>
<path fill="none" stroke="#A0989A" stroke-width="3" stroke-miterlimit="10" d="M179.551,240.227c0,0,3.473,25.679,9.192,30.056
	c0,0,2.201,20.246-1.751,24.582"/>
<path fill="none" stroke="#A0989A" stroke-width="3" stroke-miterlimit="10" d="M169.312,238.475c0,0,6.512,23.053,2.698,32.683
	l-4.448,14.483"/>
<path fill="none" stroke="#A0989A" stroke-width="3" stroke-miterlimit="10" d="M172.512,262.059c0,0-15.952,9.917-18.013,21.328"/>
<path fill="none" stroke="#A0989A" stroke-width="3" stroke-miterlimit="10" d="M301.053,326.426c0,0-9.116,7.992-17.146,0
	c0,0-6.061-7.626-17.344,0c0,0,0.386,3.525-8.281,3.457"/>
<path fill="none" stroke="#A0989A" stroke-width="3" stroke-miterlimit="10" d="M417.866,219.683c0,0,5.728,35.717,10.664,37.469"/>
<path fill="none" stroke="#A0989A" stroke-width="3" stroke-miterlimit="10" d="M407.439,227.931c0,0,5.401,17.838-0.046,29.22
	c0,0-8.201,15.104-3.648,19.268"/>
<line fill="none" stroke="#A0989A" stroke-width="3" stroke-miterlimit="10" x1="388.108" y1="231.141" x2="410.02" y2="250.619"/>
<path fill="none" stroke="#A0989A" stroke-width="3" stroke-miterlimit="10" d="M423.198,245.313c0,0,12.928,3.114,16.581,11.838"/>
<path fill="none" stroke="#A0989A" stroke-width="3" stroke-miterlimit="10" d="M388.108,321.975l0.565,14.592
	c0,0-4.635,6.34,6.441,22.604l-1.751,20.466"/>
<line fill="none" stroke="#A0989A" stroke-width="3" stroke-miterlimit="10" x1="401.408" y1="399.286" x2="408.268" y2="417.949"/>
<line fill="none" stroke="#A0989A" stroke-width="3" stroke-miterlimit="10" x1="421.447" y1="391.766" x2="427.654" y2="413.34"/>
<path fill="none" stroke="#A0989A" stroke-width="3" stroke-miterlimit="10" d="M417.866,376.255
	c0.195-3.033-1.629-11.291,3.581-22.356l17.329,25.737"/>
<path fill="none" stroke="#A0989A" stroke-width="3" stroke-miterlimit="10" d="M415.586,434.323c0,0,10.345,16.719,17.613,12.135
	c0,0,12.771-11.196-0.089-22.48"/>
<line fill="none" stroke="#A0989A" stroke-width="3" stroke-miterlimit="10" x1="447.068" y1="396.195" x2="453.491" y2="413.572"/>
<path fill="none" stroke="#A0989A" stroke-width="3" stroke-miterlimit="10" d="M461.218,426.613c0,0,14.114,23.221,20.868,5.96
	l-0.591-10.93"/>
<path fill="none" stroke="#A0989A" stroke-width="3" stroke-miterlimit="10" d="M447.068,338.634
	c5.28,23.764,13.979,31.951,15.683,37.183"/>
<path fill="none" stroke="#A0989A" stroke-width="3" stroke-miterlimit="10" d="M467.732,390.014c0,0-0.442,9.414,3.92,13.415"/>
<path fill="none" stroke="#A0989A" stroke-width="3" stroke-miterlimit="10" d="M448.528,340.578c0,0,19.707,9.532,20.066,27.05"/>
<line fill="none" stroke="#A0989A" stroke-width="3" stroke-miterlimit="10" x1="478.616" y1="384.056" x2="482.086" y2="393.517"/>
<path fill="none" stroke="#A0989A" stroke-width="3" stroke-miterlimit="10" d="M483.028,408.617c0,0-5.243,18.184,9.804,13.026
	c0,0,9.162-2.692,10.838-11.805"/>
<path fill="none" stroke="#A0989A" stroke-width="3" stroke-miterlimit="10" d="M486.599,359.212c0,0-15.362-20.626-7.983-25.012
	l14.216,7.88"/>
<line fill="none" stroke="#A0989A" stroke-width="3" stroke-miterlimit="10" x1="461.218" y1="285.642" x2="495.596" y2="308.793"/>
<path fill="none" stroke="#A0989A" stroke-width="3" stroke-miterlimit="10" d="M503.669,319.82c0,0,3.345,17,7.657,20.758"/>
<path fill="none" stroke="#A0989A" stroke-width="3" stroke-miterlimit="10" d="M513.033,382.306c0,0-4.938,24.392-12.592,11.231
	l-4.061-17.721"/>
<line fill="none" stroke="#A0989A" stroke-width="3" stroke-miterlimit="10" x1="498.342" y1="362.151" x2="498.04" y2="373.106"/>
<path fill="none" stroke="#A0989A" stroke-width="3" stroke-miterlimit="10" d="M210.459,342.42c0,0,4.777,21.246,8.439,29.832
	c0,0,5.465,37.673,7.158,50.492c0.275,2.09,0.542,3.396,0.789,3.608c1.76,1.514-1.76-1.515-1.76-1.515"/>
<path fill="none" stroke="#A0989A" stroke-width="3" stroke-miterlimit="10" d="M226.056,424.497c0,0,2.835,5.257-1.248,18.321"/>
<path fill="none" stroke="#A0989A" stroke-width="3" stroke-miterlimit="10" d="M234.976,343.823c0,0-7.248,5.207-3.746,30.182
	l10.479,48.559c0,0,4.257,15.885,7.031,16.392"/>
<path fill="none" stroke="#A0989A" stroke-width="3" stroke-miterlimit="10" d="M255.885,485.081c0,0-15.9,36.462-7.145,89.865"/>
<path fill="none" stroke="#A0989A" stroke-width="3" stroke-miterlimit="10" d="M229.285,485.081c0,0,5.936,41.146,5.691,44.933
	c-0.244,3.787-0.244,3.787-0.244,3.787s-1.694,30.641-2.598,41.146"/>
<path fill="none" stroke="#A0989A" stroke-width="3" stroke-miterlimit="10" d="M231.036,506.66c0,0-2.905,45.463,0.875,52.527"/>
<path fill="none" stroke="#A0989A" stroke-width="3" stroke-miterlimit="10" d="M221.525,478.885c0,0,4.514,97.47,0,100.481"/>
<path fill="none" stroke="#A0989A" stroke-width="3" stroke-miterlimit="10" d="M130.62,306.215c0,0-24.851-1.713-36.098,0
	l-23.092,9.702"/>
<line fill="none" stroke="#A0989A" stroke-width="3" stroke-miterlimit="10" x1="53.51" y1="330.758" x2="36.85" y2="339.508"/>
<path fill="none" stroke="#A0989A" stroke-width="3" stroke-miterlimit="10" d="M20.487,354.103c0,0-5.243,5.07-6.372,8.098"/>
<path fill="none" stroke="#A0989A" stroke-width="3" stroke-miterlimit="10" d="M206.984,607.661c0,0-6.45,10.261-29.185,6.719
	c0,0-24.78-1.873-29.765,5.121"/>
<ellipse fill="none" stroke="#A0989A" stroke-width="3" stroke-miterlimit="10" cx="169.885" cy="640.009" rx="13.324" ry="10.154"/>
<ellipse fill="none" stroke="#A0989A" stroke-width="3" stroke-miterlimit="10" cx="196.532" cy="646.501" rx="13.323" ry="10.154"/>
<ellipse fill="none" stroke="#A0989A" stroke-width="3" stroke-miterlimit="10" cx="130.62" cy="646.5" rx="15.052" ry="11.129"/>
<line fill="none" stroke="#A0989A" stroke-width="3" stroke-miterlimit="10" x1="131.557" y1="626.219" x2="124.363" y2="636.835"/>
<path fill="none" stroke="#A0989A" stroke-width="3" stroke-miterlimit="10" d="M258.515,618.778c0,0,2.136,10.408,5.514,16.251"/>
<line fill="none" stroke="#A0989A" stroke-width="3" stroke-miterlimit="10" x1="267.125" y1="656.4" x2="267.466" y2="666.041"/>
<path fill="none" stroke="#A0989A" stroke-width="3" stroke-miterlimit="10" d="M346.631,339.711l-3.199,21.833
	c0,0,3.345,11.528,0.725,26.669l-6.118,27.378l-5.781,23.364"/>
<path fill="none" stroke="#A0989A" stroke-width="3" stroke-miterlimit="10" d="M326.657,342.072
	c2.816,8.618,2.421,21.746,2.612,30.181c0.185,8.127,1.026,11.874-0.181,20.4c-2.146,15.173-6.934,33.7-14.688,47.471"/>
<path fill="none" stroke="#A0989A" stroke-width="3" stroke-miterlimit="10" d="M314.4,486.832l2.627,6.696
	c0,0,4.127,13.132,7.754,27.14c0,0,2.501,15.757,0,38.52l0.875,28.891"/>
<path fill="none" stroke="#A0989A" stroke-width="3" stroke-miterlimit="10" d="M343.291,588.954
	c-4.261-8.944,0-14.008-6.664-35.357c-2.091-14.829-1.358-25.562-1.451-39.938l-0.052-26.253"/>
<path fill="none" stroke="#A0989A" stroke-width="3" stroke-miterlimit="10" d="M349.125,588.954c-4.26-8.944,0-14.008-6.665-35.357
	c-2.09-14.829-1.357-25.562-1.451-39.938l4.032-28.578"/>
<path fill="none" stroke="#A0989A" stroke-width="3" stroke-miterlimit="10" d="M304.475,623.913c0,0-12.787,20.798-16.014,28.941
	l3.588,21.436"/>
<path fill="none" stroke="#A0989A" stroke-width="3" stroke-miterlimit="10" d="M365.543,616.662c0,0,25.03,7.042,34.799,1.751"/>
<path fill="none" stroke="#A0989A" stroke-width="3" stroke-miterlimit="10" d="M163.792,349.084c0,0,1.142,17.684,6.092,25.247
	c0,0,2.293,8.059-4.951,12.413"/>
<polyline fill="none" stroke="#A0989A" stroke-width="3" stroke-miterlimit="10" points="156.562,357.027 154.499,367.914 
	148.909,374.332 "/>
<path fill="none" stroke="#A0989A" stroke-width="3" stroke-miterlimit="10" d="M151.58,403.621
	c2.334-0.855-7.657,8.032-7.657,15.226"/>
<path fill="none" stroke="#A0989A" stroke-width="3" stroke-miterlimit="10" d="M137.555,432.245
	c-0.033,3.161,0.029,6.373-0.152,9.479c-9.625,10.655-21.439,1.077-19.108-13.857"/>
<line fill="none" stroke="#A0989A" stroke-width="3" stroke-miterlimit="10" x1="138.67" y1="395.217" x2="122.879" y2="414.47"/>
<path fill="none" stroke="#A0989A" stroke-width="3" stroke-miterlimit="10" d="M114.26,424.497c0,0-15.691,13.806-27.509,20.071"/>
<path fill="none" stroke="#A0989A" stroke-width="3" stroke-miterlimit="10" d="M91.485,414.47c0,0-16.642,16.222-19.429,17.873"/>
<path fill="none" stroke="#A0989A" stroke-width="3" stroke-miterlimit="10" d="M60.203,443.693c0,0-14.571,16.643-4.941,20.106
	c0,0,8.201,2.094,20.296-9.041"/>
<path fill="none" stroke="#A0989A" stroke-width="3" stroke-miterlimit="10" d="M121.129,374.332c0,0,1.353,7.983-6.869,15.001
	l-12.62,14.097"/>
<path fill="none" stroke="#A0989A" stroke-width="3" stroke-miterlimit="10" d="M48.668,350.458c0,0,19.614-11.386,22.762-4.579
	c0,0-19.907,15.158-25.079,22.427"/>
<line fill="none" stroke="#A0989A" stroke-width="3" stroke-miterlimit="10" x1="34.081" y1="360.511" x2="32.188" y2="366.768"/>
<path fill="none" stroke="#A0989A" stroke-width="3" stroke-miterlimit="10" d="M30.555,383.138
	c-2.359,1.371-14.746,4.884-14.807,14.064"/>
<path fill="none" stroke="#A0989A" stroke-width="3" stroke-miterlimit="10" d="M60.515,380.696
	c2.979-7.326,26.236-17.592,26.236-17.592s-17.49,18.396-21.235,23.793"/>
<line fill="none" stroke="#A0989A" stroke-width="3" stroke-miterlimit="10" x1="53.722" y1="398.821" x2="33.205" y2="415.966"/>
<line fill="none" stroke="#A0989A" stroke-width="3" stroke-miterlimit="10" x1="46.351" y1="392.642" x2="31.312" y2="402.482"/>
<path fill="none" stroke="#A0989A" stroke-width="3" stroke-miterlimit="10" d="M26.498,421.689c0,0-10.068,4.649-11.509,16.247
	c0,0-0.055,17.514,22.736-0.656"/>
<line fill="none" stroke="#A0989A" stroke-width="3" stroke-miterlimit="10" x1="48.668" y1="426.353" x2="68.554" y2="412.465"/>
<line fill="none" stroke="#A0989A" stroke-width="3" stroke-miterlimit="10" x1="83.91" y1="399.696" x2="108.263" y2="374.004"/>
<path fill="none" stroke="#A0989A" stroke-width="3" stroke-miterlimit="10" d="M7.674,379.636c0,0-10.193,14.549,8.191,13.881"/>
<path fill="none" stroke="#A0989A" stroke-width="3" stroke-miterlimit="10" d="M7.674,406.247c0,0-14.73,14.216,1.312,17.161
	c0,0,10.507,2.943,10.507-7.11"/>
</svg>
