<?xml version="1.0" encoding="utf-8"?>
<!-- Generator: Adobe Illustrator 15.0.2, SVG Export Plug-In  -->
<!DOCTYPE svg PUBLIC "-//W3C//DTD SVG 1.1//EN" "http://www.w3.org/Graphics/SVG/1.1/DTD/svg11.dtd" [
	<!ENTITY ns_flows "http://ns.adobe.com/Flows/1.0/">
]>
<svg version="1.1"
	 xmlns="http://www.w3.org/2000/svg" xmlns:xlink="http://www.w3.org/1999/xlink" xmlns:a="http://ns.adobe.com/AdobeSVGViewerExtensions/3.0/"
	 x="0px" y="0px" width="700px" height="700px" viewBox="-18.417 -83.801 700 700"
	 overflow="visible" enable-background="new -18.417 -83.801 700 700" xml:space="preserve">
<defs>
</defs>
<path fill="none" stroke="#B5AEB0" stroke-width="2" stroke-miterlimit="10" d="M320.896,177.978l-30.534,83.487
	c0,0,0,38.833-6.107,60.97c0,0-6.913,82.442-19.487,106.87c0,0-3.414,35.878-9.521,55.726c0,0-7.598,40.91-4.383,51.649
	c0.459,1.534,1.139,2.453,2.093,2.549"/>
<path fill="none" stroke="#B5AEB0" stroke-width="2" stroke-miterlimit="10" d="M120.896,543.046c0,0,6.107-16.031,4.58-29.771
	c0,0-4.58-17.557,5.344-35.114c0,0,2.29-20.611-4.962-29.771c0,0-18.703-21.374-33.97-59.542c0,0-22.678-29.605-25.19-39.694
	l-0.346-3.054c0,0-6.524-22.899-11.104-24.427c0,0-6.87-8.398-9.16-13.741c0,0-14.504-9.16-16.794-19.084s0-3.053,0-3.053
	s-25.19-20.415-28.244-24.33c0,0,3.816-27.579,49.618-6.968c0,0,14.503,9.16,24.427,32.824l25.191,30.534
	c0,0,8.397,15.268,16.794-10.687c0,0-3.474-5.032,3.817-21.374l-3.053-54.962c0,0-25.191-83.207-22.138-96.947
	c0,0-24.427-71.756-3.053-90.84c0,0,19.847-14.503,29.771,35.878c0,0,1.526,32.825,5.343,33.588c0,0,12.213,29.771,12.977,41.985
	c0,0,19.847,69.466,23.664,42.748c0,0,8.106-5.343,2-38.168c0,0-1.842-21.374,2.277-53.435c0,0,1.83-83.97,15.57-101.527
	c0,0,19.084-14.504,22.901,19.084c0,0-3.053,85.497,0,93.13c0,0-2.29,64.123,0,74.046c0,0,1.526,29.771,12.213,3.053
	c0,0,5.344-54.962,14.504-76.336c0,0,6.107-25.955,7.634-44.275c0,0,5.343-51.909,20.61-46.565c0,0,24.428,4.58,9.161,70.229
	c0,0-9.161,47.329-7.634,67.176c0,0-19.083,81.68-0.763,64.886c0,0,10.039-6.107,13.417-28.245c0,0,0,0,7.958-13.74
	c0,0,19.612-35.849,25.954-58.779c0,0,11.246-34.352,22.138-1.527c0,0,6.87,18.321-11.451,51.146"/>
<path fill="none" stroke="#B5AEB0" stroke-width="2" stroke-miterlimit="10" d="M527.903,465.741c0,0-2.29-5.343,7.634-10.687
	c0,0,17.557-3.053,32.061-35.878l41.222-51.909c0,0,12.214-19.846,19.084-29.007c0,0,23.663-34.352,25.19-43.512
	c0,0,33.589-22.199,6.107-39.726c0,0-14.504-10.656-38.932,10.718c0,0-20.61,19.848-27.48,40.458c0,0-39.695,44.275-48.855-25.19
	c0,0,0.764-54.962-4.58-66.413L536.3,145.13c0,0-1.525-24.427,2.291-30.534c0,0,6.413-61.833-10.916-64.886
	c0,0-15.275-7.633-17.134,18.321c0,0-10.119,46.132-7.065,53.982c0,0-6.87,42.964-4.58,61.285c0,0-1.527,29.007-7.634,34.351
	c0,0-4.58-17.557,0-45.038c0,0-3.308-41.654-2.035-50.598c0,0-1.854-21.157-0.291-41.768c0,0,3.089-54.962-14.468-57.252
	c0,0-17.558-3.817-21.374,21.374l-3.816,34.351c0,0-2.29,16.794,0,22.901c0,0,1.864,24.409-1.018,35.878c0,0-1.781,30.535,0,35.878
	l-2.799,46.565"/>
<path fill="none" stroke="#B5AEB0" stroke-width="2" stroke-miterlimit="10" d="M402.949,105.672c0,0-1,17.321-1,23.428
	c0,0,0,27.575,0,24.427c0-24.427,0,0,0,0s-2.475,8.397-0.855,28.245c0,0,4.658,34.351-0.297,54.198c0,0-4.192,13.741-7.245-23.664
	l-6.106-30.534l-4.58-29.008c0,0,0-28.244-11.45-34.351s0,0,0,0s-5.818-8.125-14.688,8.533l-0.58,22.765
	c0,0-2.289,16.794,3.817,36.642l4.58,44.275c0,0,1.526,37.404,9.16,70.992c3.814,97.672,4.125,98.574,22.137,148.854"/>
<path fill="none" stroke="#B5AEB0" stroke-width="2" stroke-miterlimit="10" d="M445.461,216.886c0,0-6.107-12.977-5.344-35.114
	c0,0,2.157-18.32-0.066-35.878c0,0-1.708-17.554,0-32.825l-6.041-43.511c0,0-13.74-33.588-28.244,0l-2.687,36.061"/>
<path fill="none" stroke="#B5AEB0" stroke-width="2" stroke-miterlimit="10" d="M136.927,467.473c0,0,8.397,12.977,25.954,9.924"/>
<path fill="none" stroke="#B5AEB0" stroke-width="2" stroke-miterlimit="10" d="M149.14,467.473c0,0,9.923,9.16,38.168,0
	c0,0,9.16,6.106,19.084,0c0,0,29.771,4.58,34.351,0"/>
<path fill="none" stroke="#B5AEB0" stroke-width="2" stroke-miterlimit="10" d="M130.583,306.931c0,0-16.03,16.031-23.664,16.031"/>
<path fill="none" stroke="#B5AEB0" stroke-width="2" stroke-miterlimit="10" d="M159.411,293.199c0,0,45.455,19.313,16.447,149.848"
	/>
<path fill="none" stroke="#B5AEB0" stroke-width="2" stroke-miterlimit="10" d="M172.473,261.465c0,0,83.538,29.672,94.988,46.466"
	/>
<path fill="none" stroke="#B5AEB0" stroke-width="2" stroke-miterlimit="10" d="M120.896,285.794c0,0,5.229,1.879,23.483-9.377
	c0,0,3.998-1.743,10.104,0c0,0,37.405,13.957,74.046,52.125"/>
<path fill="none" stroke="#B5AEB0" stroke-width="2" stroke-miterlimit="10" d="M106.919,107.932c0,0,8.16,0.764,11.832-4.58"/>
<path fill="none" stroke="#B5AEB0" stroke-width="2" stroke-miterlimit="10" d="M112.835,156.787c0,0,11.404,1.866,17.748-4.029"/>
<path fill="none" stroke="#B5AEB0" stroke-width="2" stroke-miterlimit="10" d="M118.751,165.947c0,0,6.252-5.343,11.832-5.343"/>
<path fill="none" stroke="#B5AEB0" stroke-width="2" stroke-miterlimit="10" d="M130.583,220.909c0,0,12.451-9.924,19.321-8.397"/>
<path fill="none" stroke="#B5AEB0" stroke-width="2" stroke-miterlimit="10" d="M159.411,212.352c0,0,17.974,7.03,21.027,13.137"/>
<path fill="none" stroke="#B5AEB0" stroke-width="2" stroke-miterlimit="10" d="M190.125,203.168c0,0-15.267-5.343-28.244,0"/>
<path fill="none" stroke="#B5AEB0" stroke-width="2" stroke-miterlimit="10" d="M180.438,196.481c0,0,8.396-3.054,14.503,0"/>
<path fill="none" stroke="#B5AEB0" stroke-width="2" stroke-miterlimit="10" d="M177.003,135.413c0,0,15.648,1.857,17.938,3.6
	s-2.291-1.743-2.291-1.743"/>
<path fill="none" stroke="#B5AEB0" stroke-width="2" stroke-miterlimit="10" d="M180.438,130.069c0,0,11.968-1.527,15.145,0"/>
<path fill="none" stroke="#B5AEB0" stroke-width="2" stroke-miterlimit="10" d="M180.438,75.107c0,0,16.031,0,18.321,4.581"/>
<path fill="none" stroke="#B5AEB0" stroke-width="2" stroke-miterlimit="10" d="M250.071,92.665c0,0,8.993,3.817,9.756,6.87
	s-0.764-3.053-0.764-3.053"/>
<path fill="none" stroke="#B5AEB0" stroke-width="2" stroke-miterlimit="10" d="M240.743,139.501c0,0,12.594,4.309,14.312,8.889"/>
<path fill="none" stroke="#B5AEB0" stroke-width="2" stroke-miterlimit="10" d="M234.637,143.945c0,0,18.701,7.074,20.419,8.812
	s-1.718-1.739-1.718-1.739"/>
<path fill="none" stroke="#B5AEB0" stroke-width="2" stroke-miterlimit="10" d="M228.53,207.168c0,0,17.084,5.947,16.557,9.462"/>
<line fill="none" stroke="#B5AEB0" stroke-width="2" stroke-miterlimit="10" x1="236.814" y1="218.92" x2="209.893" y2="203.168"/>
<path fill="none" stroke="#B5AEB0" stroke-width="2" stroke-miterlimit="10" d="M307.156,163.275c0,0,3.817,1.909,6.87,6.489"/>
<path fill="none" stroke="#B5AEB0" stroke-width="2" stroke-miterlimit="10" d="M289.598,196.481c0,0,9.924,5.344,11.451,10.688"/>
<path fill="none" stroke="#B5AEB0" stroke-width="2" stroke-miterlimit="10" d="M272.041,233.886c0,0,13.144,9.924,13.442,14.504"/>
<path fill="none" stroke="#B5AEB0" stroke-width="2" stroke-miterlimit="10" d="M257.041,229.51c0,0,23.412,11.627,33.321,31.955"/>
<path fill="none" stroke="#B5AEB0" stroke-width="2" stroke-miterlimit="10" d="M669.968,271.892c0,0-13.531-4.616-23.454,14.2
	l6.58,8.656"/>
<path fill="none" stroke="#B5AEB0" stroke-width="2" stroke-miterlimit="10" d="M641.008,318.205c0,0-2.418,7.078-11.578-6.662"/>
<path fill="none" stroke="#B5AEB0" stroke-width="2" stroke-miterlimit="10" d="M631.72,297.947c0,0-4.58,3.672-6.106,13.596"/>
<path fill="none" stroke="#B5AEB0" stroke-width="2" stroke-miterlimit="10" d="M480.911,28.782c0,0,5.131,35.5-9.646,31.773
	c-4.348,1.341-14.9,0.934-13.086-10.228c0,0-0.208-27.541,7.539-25.118C465.718,25.209,471.992,21.431,480.911,28.782z"/>
<path fill="none" stroke="#B5AEB0" stroke-width="2" stroke-miterlimit="10" d="M533.267,53.342c0,0,4.235,30.851-8.792,27.446
	c-3.851,1.113-13.172,0.636-11.474-9.023c0,0-0.424-26.95,6.871-21.699C519.872,50.065,525.448,46.862,533.267,53.342z"/>
<path fill="none" stroke="#B5AEB0" stroke-width="2" stroke-miterlimit="10" d="M428.099,61.621c0,0,4.385,29.449-8.653,26.137
	c-3.843,1.043-13.161,0.542-11.511-8.663c0,0-0.314-21.454,6.761-20.664C414.695,58.431,420.253,55.401,428.099,61.621z"/>
<path fill="none" stroke="#B5AEB0" stroke-width="2" stroke-miterlimit="10" d="M374.021,121.088c0,0,5.347,25.407-4.439,23.659
	c-2.738,1.254-9.598,1.642-9.056-6.568c0.268,2.802-4.312-18.797,3.45-18.699C363.977,119.48,367.827,116.335,374.021,121.088z"/>
<path fill="none" stroke="#B5AEB0" stroke-width="2" stroke-miterlimit="10" d="M533.924,100.092c0,0,0.086,11.62-3.73,12.298"/>
<path fill="none" stroke="#B5AEB0" stroke-width="2" stroke-miterlimit="10" d="M530.193,105.672c0,0-8.278-1.039-17.397,0"/>
<path fill="none" stroke="#B5AEB0" stroke-width="2" stroke-miterlimit="10" d="M510.541,100.092c0,0-1.332,10.093,0,12.298"/>
<path fill="none" stroke="#B5AEB0" stroke-width="2" stroke-miterlimit="10" d="M532.059,152.764c0,0,1.951,9.924-1.865,12.214"/>
<line fill="none" stroke="#B5AEB0" stroke-width="2" stroke-miterlimit="10" x1="530.193" y1="158.871" x2="509.949" y2="158.871"/>
<path fill="none" stroke="#B5AEB0" stroke-width="2" stroke-miterlimit="10" d="M509.949,149.519c0,0-7.999,6.298-2.656,15.458"/>
<path fill="none" stroke="#B5AEB0" stroke-width="2" stroke-miterlimit="10" d="M481.772,81.211c0,0,5.015,5.216,0,9.758"/>
<path fill="none" stroke="#B5AEB0" stroke-width="2" stroke-miterlimit="10" d="M457.971,81.211c0,0-5.641,5.979-2.587,9.758"/>
<line fill="none" stroke="#B5AEB0" stroke-width="2" stroke-miterlimit="10" x1="481.772" y1="86.352" x2="457.971" y2="86.352"/>
<path fill="none" stroke="#B5AEB0" stroke-width="2" stroke-miterlimit="10" d="M480.521,146.275c0,0,3.672,3.121,3.155,6.581
	c-0.312,2.085-0.88,4.292-1.904,6.015"/>
<path fill="none" stroke="#B5AEB0" stroke-width="2" stroke-miterlimit="10" d="M481.772,152.764c0,0-16.635-4.199-23.802-0.191"/>
<path fill="none" stroke="#B5AEB0" stroke-width="2" stroke-miterlimit="10" d="M456.224,145.434c0,0-2.978,5.613,0,11.815"/>
<path fill="none" stroke="#B5AEB0" stroke-width="2" stroke-miterlimit="10" d="M431.72,100.092c0,0,5.343,9.923,0,12.977"/>
<path fill="none" stroke="#B5AEB0" stroke-width="2" stroke-miterlimit="10" d="M431.161,108.555c0,0-18.872-2.949-21.774,1.86"/>
<path fill="none" stroke="#B5AEB0" stroke-width="2" stroke-miterlimit="10" d="M407.74,105.21c0,0-1.079,10.912,0,13.202"/>
<path fill="none" stroke="#B5AEB0" stroke-width="2" stroke-miterlimit="10" d="M432.907,150.84c0,0,2.799,14.901,1.188,14.138"/>
<path fill="none" stroke="#B5AEB0" stroke-width="2" stroke-miterlimit="10" d="M429.161,157.249c0,0-14.998-1.034-17.288,3.729"/>
<path fill="none" stroke="#B5AEB0" stroke-width="2" stroke-miterlimit="10" d="M407.74,157.154c0,0-3.369,5.533,0,10.877"/>
<path fill="none" stroke="#B5AEB0" stroke-width="2" stroke-miterlimit="10" d="M377.403,152.764c0,0,4.172,5.917,0,9.829"/>
<path fill="none" stroke="#B5AEB0" stroke-width="2" stroke-miterlimit="10" d="M374.479,157.923c0,0-3.593-2.869-8.027,0.948"/>
<path fill="none" stroke="#B5AEB0" stroke-width="2" stroke-miterlimit="10" d="M363.018,157.249c0,0-2.29,4.732,0,7.757"/>
<path fill="none" stroke="#B5AEB0" stroke-width="2" stroke-miterlimit="10" d="M384.392,194.899c0,0,3.816,4.429,0,9.009"/>
<path fill="none" stroke="#B5AEB0" stroke-width="2" stroke-miterlimit="10" d="M382.256,198.514c0,0-7.871,1.3-11.788,0.244"/>
<path fill="none" stroke="#B5AEB0" stroke-width="2" stroke-miterlimit="10" d="M367.452,195.352c0,0-1.673,3.977,0,8.557"/>
<path fill="none" stroke="#B5AEB0" stroke-width="2" stroke-miterlimit="10" d="M3.108,262.894c0,0,11.868-7.973,26.337,7.621
	l-4.105,10.068"/>
</svg>
