<?xml version="1.0" encoding="utf-8"?>
<!-- Generator: Adobe Illustrator 15.0.2, SVG Export Plug-In  -->
<!DOCTYPE svg PUBLIC "-//W3C//DTD SVG 1.1//EN" "http://www.w3.org/Graphics/SVG/1.1/DTD/svg11.dtd" [
	<!ENTITY ns_flows "http://ns.adobe.com/Flows/1.0/">
]>
<svg version="1.1"
	 xmlns="http://www.w3.org/2000/svg" xmlns:xlink="http://www.w3.org/1999/xlink" xmlns:a="http://ns.adobe.com/AdobeSVGViewerExtensions/3.0/"
	 x="0px" y="0px" width="700px" height="700px" viewBox="-211.507 -1.866 700 700"
	 overflow="visible" enable-background="new -211.507 -1.866 700 700" xml:space="preserve">
<defs>
</defs>
<path fill="none" stroke="#B3B8B3" stroke-miterlimit="10" d="M126.126,76.696c0,0,3.757,12.62,0,19.25c0,0-5.212,3.771-6.217,4.724
	c-1.005,0.953-24.965,15.559-24.965,15.559s-32.91,5.08-24.827,60.014c0,0,0.578,51.758-5.773,59.378c0,0-10.681,29.214-8.95,39.375
	c0,0-2.886,40.645-7.506,48.583c0,0-6.062,24.769-8.083,25.72c0,0-2.598,2.223-3.464,3.811c0,0-10.97,7.62-15.3,13.653
	c0,0-4.042,3.811-5.485,5.399c0,0-6.062,0.634-6.35,4.127c0,0-1.444,4.445,9.237,2.539c0,0,6.351-4.127,9.526-5.397
	c0,0,0.866,0.948,0,5.873c0,0-4.619,14.449-4.619,24.611c0,0-0.866,9.208,2.021,11.113c0,0,3.753,4.446,4.619-10.48
	c0,0,1.444-12.382,3.175-15.24c0,0,1.155,6.033,0.577,8.891c0,0-0.865,5.717-1.732,8.574c0,0-1.731,11.747-0.866,13.336
	c0.866,1.588,0.866,1.588,0.866,1.588s2.887,4.128,4.908-2.54c0,0,1.154-7.622,1.443-11.748c0,0,2.02-11.748,3.175-14.289
	l1.732-0.316c0,0-4.908,20.955-3.464,23.496c1.444,2.54,3.753,3.491,4.908-0.953c1.154-4.445,3.752-23.814,3.752-23.814l1.444-0.319
	c0,0-0.578,19.054,2.021,18.1c2.598-0.951,3.463-5.396,3.463-5.396l0.578-15.877c0,0,7.505-12.384,4.619-36.198
	c0,0,32.91-73.669,32.332-90.498c0,0,0.29-19.053,0.866-26.038c0,0,2.886-6.032,4.042-11.114c1.154-5.081,0.289-1.587,0.289-1.587
	s0.577-29.213,0.288-38.739c0,0-9.526-12.066-10.104-19.369"/>
<path fill="none" stroke="#B3B8B3" stroke-miterlimit="10" d="M98.408,183.864c0,0,3.176-20.957,16.455-17.464
	s5.529,1.223,5.529,1.223s25.359,5.763,45.566,1.636c20.208-4.128,2.308-0.318,2.308-0.318s13.857-6.033,23.963-0.317
	c0,0,5.475,3.812,7.646,15.241l-0.769,39.241"/>
<path fill="none" stroke="#B3B8B3" stroke-miterlimit="10" d="M157.011,189.263c0,0,24.696,22.753,42.864-5.398
	c3.078-4.77,5.969-11.001,8.52-19.052"/>
<path fill="none" stroke="#B3B8B3" stroke-miterlimit="10" d="M111.977,306.751c0,0-12.991-12.387-13.568-21.594l-6.64,28.261
	c0,0-4.907,80.652-1.443,87.957c0,0,5.485,68.587,8.083,72.715c0,0,0.578,9.528,0,23.498c0,0-3.753,30.483-2.887,31.118
	c0,0-1.443,32.072,18.475,103.2c0,0-0.865,14.604,0,15.24c0.867,0.636-0.865-0.636-0.865-0.636s-4.619,11.751-6.928,13.02
	c0,0-14.434,16.513-15.589,13.972l-1.527,1.905c0,0-7.422-0.001-8.288,8.256c0,0,0.577,5.716,1.443,9.208
	c0.866,3.495,4.091,1.586,6.64,2.223c1.443,0.361,1.443,0.361,1.443,0.361s-3.175,2.816,5.485,2.816c0,0,3.753,2.54,8.949-5.717
	c0,0,1.155,2.539,6.641-2.54l8.66-12.066c0,0,11.836,0.319,16.455-10.797c0,0,1.732-5.715-1.732-17.146c0,0-0.29-7.939-2.31-12.385
	c0,0-2.021-80.337,0.578-83.193c0,0,1.442-17.781-1.444-46.678c0,0,6.062-10.162,6.929-34.929c0,0,2.358-41.87,3.176-46.36
	c2.309-12.7,0-2.223,0-2.223s8.371-46.36,6.639-53.029c0,0,7.218,75.893,9.815,77.162c0,0,0.577,40.645,2.31,41.598l4.618,18.734
	c0,0-6.062,42.232,0,50.171v77.795c0,0-2.309,2.857-2.02,5.717v5.396c0,0-8.084,20.959-2.599,23.181c0,0,10.681,5.397,16.742,7.938
	c0,0,9.816,16.511,15.301,13.337c0,0-2.02,7.722,12.99,6.4c0,0,2.6,0.266,2.6-4.179c0,0,5.196,3.175,6.349-0.953
	c1.157-4.127,0-1.588,0-1.588s1.317-1.585,0.516-4.762l0.258-5.082c0,0,0.094-5.079-6.257-6.985c0,0-5.773-2.539-7.506-5.079
	c0,0-11.547-6.35-17.031-19.054c0,0-3.753-13.654-2.021-18.099c0,0,19.053-74.619,19.631-95.261
	c0.576-20.639,0.576-1.588,0.576-1.588l-4.907-49.218c0,0,3.463-36.833,4.043-38.421c0.575-1.589,0.575-1.589,0.575-1.589
	s11.259-78.43,2.311-137.491l-5.484-22.544v-63.509"/>
<line fill="none" stroke="#B3B8B3" stroke-miterlimit="10" x1="98.408" y1="283.571" x2="97.831" y2="224.19"/>
<path fill="none" stroke="#B3B8B3" stroke-miterlimit="10" d="M185.301,306.751c0,0,10.104-9.843,13.857-20.004"/>
<path fill="none" stroke="#B3B8B3" stroke-miterlimit="10" d="M80.884,684.446c0,0,1.647-5.547,6.266-6.182"/>
<path fill="none" stroke="#B3B8B3" stroke-miterlimit="10" d="M97.542,684.446c0,0-15.243,9.902-5.167,13.609"/>
<path fill="none" stroke="#B3B8B3" stroke-miterlimit="10" d="M93.237,681.355c0,0-4.644,1.967-6.086,3.091
	c-1.444,1.123-2.598,7.44-4.908,8.425"/>
<path fill="none" stroke="#B3B8B3" stroke-miterlimit="10" d="M208.684,678.264c0,0,6.679,0.225,6.546,6.182"/>
<path fill="none" stroke="#B3B8B3" stroke-miterlimit="10" d="M215.184,688.316l-1.881-1.203c0,0-1.154-6.161-4.619-5.758"/>
<path fill="none" stroke="#B3B8B3" stroke-miterlimit="10" d="M214.456,691.918l-1.153-0.667c0,0-2.598-7.759-9.526-9.896"/>
<path fill="none" stroke="#B3B8B3" stroke-miterlimit="10" d="M206.996,698.055l1.688-5.185c0,0-2.021-2.119-8.949-8.044"/>
<path fill="none" stroke="#B3B8B3" stroke-miterlimit="10" d="M144.02,209.584c0,0-4.619,5.082-7.217,6.034
	c0,0-17.032,10.162-21.939,26.991"/>
<path fill="none" stroke="#B3B8B3" stroke-miterlimit="10" d="M182.703,242.609c0,0-8.084-17.465-16.744-23.181
	c0,0-12.412-7.304-12.124-9.844"/>
<path fill="none" stroke="#B3B8B3" stroke-miterlimit="10" d="M80.799,251.182c0,0-5.774,1.588-8.66-6.033
	c0,0,1.731,7.938,4.33,8.731"/>
<path fill="none" stroke="#B3B8B3" stroke-miterlimit="10" d="M215.229,249.829c0,0,5.003,4.846,9.62-4.68
	c0,0-1.73,8.891-4.617,9.526"/>
<path fill="none" stroke="#B3B8B3" stroke-miterlimit="10" d="M38.559,350.454c0,0,4.134-1.473,9.042,1.387"/>
<path fill="none" stroke="#B3B8B3" stroke-miterlimit="10" d="M127.795,87.652c0,0,18.535,41.279,43.939-4.445"/>
<path fill="none" stroke="#B3B8B3" stroke-miterlimit="10" d="M94.944,116.229c0,0,42.436,6.034,49.075,10.479
	c6.64,4.445,9.811,0,9.811,0s41.891-14.549,48.502-10.162"/>
<path fill="none" stroke="#B3B8B3" stroke-miterlimit="10" d="M55.395,274.996c0,0,13.569-12.383,16.745-40.009
	c0,0,9.814-42.664,11.835-44.353c0,0-4.907-52.374,21.94-56.819"/>
<path fill="none" stroke="#B3B8B3" stroke-miterlimit="10" d="M199.158,226.097c-47.344,23.497-100.75,0-100.75,0
	s-11.835-8.053-13.856-35.462c0,0-3.465,52.667-5.774,55.178c0,0-17.898,69.829-20.785,81.26c-2.887,11.432,2.31,26.355,2.31,26.355
	"/>
<path fill="none" stroke="#B3B8B3" stroke-miterlimit="10" d="M199.667,195.295c13.5-32.708-5.995-43.184-5.995-43.184
	c-10.68-6.033-25.405,0-25.405,0c-15.591,6.668-43.589-0.953-43.589-0.953c-19.63-5.08-26.27,5.081-26.27,5.081
	c-13.278,12.702,0.043,43.165,0.043,43.165s-2.551,5.857,21.941,5.003c0,0,24.437-3.078,29.372-2.442c0,0,18.857,1.073,26.763,2.442
	c0,0,20.897-2.125,22.631-4.348"/>
<path fill="none" stroke="#B3B8B3" stroke-miterlimit="10" d="M188.477,133.816c0,0,26.558,6.229,23.672,32.584
	c0,0,0.656,48.264-12.99,56.837"/>
<path fill="none" stroke="#B3B8B3" stroke-miterlimit="10" d="M240.956,274.996c0,0-10.91-13.653-16.106-33.975
	c0,0-9.486-47.427-13.747-50.386"/>
<path fill="none" stroke="#B3B8B3" stroke-miterlimit="10" d="M98.408,183.864c0,0,12.414,5.399,28.001,0c0,0,36.408-0.953,45.196,0
	c0,0,23.852,6.385,28.27,0"/>
<path fill="none" stroke="#B3B8B3" stroke-miterlimit="10" d="M98.438,185.072c0,0,17.868,23.128,40.962,5.563"/>
<path fill="none" stroke="#B3B8B3" stroke-miterlimit="10" d="M99.563,254.675c0,0,44.167,25.403,98.44,0"/>
<path fill="none" stroke="#B3B8B3" stroke-miterlimit="10" d="M98.408,270.552c0,0,51.673,29.53,100.75,0"/>
<path fill="none" stroke="#B3B8B3" stroke-miterlimit="10" d="M98.438,213.078c0,0,47.025,16.195,99.564,0"/>
<path fill="none" stroke="#B3B8B3" stroke-miterlimit="10" d="M98.12,240.386c0,0,47.921,22.863,99.883,2.224"/>
<path fill="none" stroke="#B3B8B3" stroke-miterlimit="10" d="M97.254,290.556c0,0,48.786,23.18,101.904,0"/>
<path fill="none" stroke="#B3B8B3" stroke-miterlimit="10" d="M92.518,310.229l5.313-1.891c0,0,48.21,32.056,100.172,0.945
	l6.64,0.008"/>
<path fill="none" stroke="#B3B8B3" stroke-miterlimit="10" d="M90.614,331.2c0,0,8.083-3.81,15.3,5.081"/>
<path fill="none" stroke="#B3B8B3" stroke-miterlimit="10" d="M105.914,336.281c0,0,4.648,5.08,13.005,23.18
	c0,0,5.182,7.938,11.533,0c0,0,5.196-11.471,13.567-9.386"/>
<path fill="none" stroke="#B3B8B3" stroke-miterlimit="10" d="M206.952,331.836c0,0-9.815-4.446-17.031,6.032
	c0,0-10.907,22.863-13.394,23.181c0,0-4.505,3.81-10.568-1.905c0,0-5.214-7.545-6.945-8.814"/>
<path fill="none" stroke="#B3B8B3" stroke-miterlimit="10" d="M33.167,389.308c0.577-25.085,23.954-61.601,23.954-61.601
	s-4.035,16.192-6.056,29.531c0,0-6.732,28.578-7.985,33.976"/>
<path fill="none" stroke="#B3B8B3" stroke-miterlimit="10" d="M74.073,133.816c0,0,3.551,4.249,31.841,0
	c0,0,8.949,0.105,13.135,0.944c0,0,31.034,13.859,59.035,0.84c0,0,5.188-2.932,21.791-1.784c0,0,15.069,3.615,23.342,0l0,0"/>
<path fill="none" stroke="#B3B8B3" stroke-miterlimit="10" d="M171.734,75.583v18.394c0,0,0.823,5.106,5.029,6.375
	c0,0,22.971,15.658,27.879,17.118"/>
<path fill="none" stroke="#B3B8B3" stroke-miterlimit="10" d="M199.875,226.097l4.768,11.113c-1.154,3.175,2.31,31.118,2.31,31.118
	c-0.578,12.066,29.156,85.099,29.156,85.099c-2.021,16.512,4.848,34.611,4.848,34.611c-0.35,30.801,5.835,19.688,5.835,19.688
	v-2.027v-14.485l0,0h1.442c0,0,4.329,29.215,6.351,26.165"/>
<path fill="none" stroke="#B3B8B3" stroke-miterlimit="10" d="M202.332,116.546c0,0,19.391,6.391,23.698,24.63
	c0,0,4.354,28.082,0,47.134l4.882,40.645c0,0,1.731,0.952,10.044,30.165c0,0,1.792,33.341,1.504,34.294
	c0,0,11.812,54.965,15.125,57.727c0,0,18.361,15.307,19.227,16.259c0.867,0.952,4.908,4.764,5.774,4.764s6.062,3.175,5.773,5.399
	c-0.289,2.221-9.236,2.221-10.104,0c0,0-5.773-3.495-9.813-4.766c0,0,0.558,4.624,3.463,16.512c0,0,4.042,25.721-0.287,26.037
	c0,0-2.889,0.317-3.176-3.811l-4.043-22.227h-1.154l1.538,16.39c0,0,1.35,14.235,0.772,16.389c0,0-2.022,3.104-4.909-1.342
	l-1.161-13.02l-3.457-14.923l2.309,22.86c0,0-1.153,2.668-3.752,1.715"/>
<path fill="none" stroke="#B3B8B3" stroke-miterlimit="10" d="M254.584,417.378c0,0,2.599,3.05,3.752-1.715"/>
<path fill="none" stroke="#B3B8B3" stroke-miterlimit="10" d="M211.103,190.635c0,0,5.953,57.849,7.108,58.881
	c1.155,1.031,20.495,78.191,20.495,78.191l0.311,1.26l17.011,63.836"/>
<path fill="none" stroke="#B3B8B3" stroke-miterlimit="10" d="M238.706,327.707c-1.443,9.526-2.598,25.72-2.598,25.72"/>
<path fill="none" stroke="#B3B8B3" stroke-miterlimit="10" d="M263.244,388.039c0,0-7.462-44.16-24.228-59.072"/>
<path fill="none" stroke="#B3B8B3" stroke-miterlimit="10" d="M249.676,351.84c0,0,4.331-2.542,8.66,0"/>
<path fill="none" stroke="#B3B8B3" stroke-miterlimit="10" d="M98.408,474.089c0,0,13.28-26.67,17.321-27.94
	c0,0,19.341-13.972,23.094-33.024c0,0,8.325-41.28,9.526-41.916c1.202-0.634-1.536,5.084-1.536,5.084"/>
<path fill="none" stroke="#B3B8B3" stroke-miterlimit="10" d="M198.935,474.089c0,0-7.571-15.558-10.747-19.686l-16.453-17.782
	c0,0-8.661-9.074-11.26-19.62c0,0-3.753-11.181-6.062-21.024l-4.042-20.5c0,0.142-1.229-2.552-1.229-2.552"/>
<path fill="none" stroke="#B3B8B3" stroke-miterlimit="10" d="M104.182,501.717c0,0,4.924-19.688,19.351-8.574"/>
<path fill="none" stroke="#B3B8B3" stroke-miterlimit="10" d="M105.914,516.005c0,0,13.279,14.605,19.053-14.288"/>
<path fill="none" stroke="#B3B8B3" stroke-miterlimit="10" d="M173.642,493.778c0,0,13.969-12.701,18.299,7.939"/>
<path fill="none" stroke="#B3B8B3" stroke-miterlimit="10" d="M189.632,515.689c0,0-4.906,19.686-17.897-11.75"/>
<path fill="none" stroke="#B3B8B3" stroke-miterlimit="10" d="M96.676,516.958c0,0,7.794,19.051,15.589,20.956
	c0,0,19.342,13.019,20.785,16.513"/>
<path fill="none" stroke="#B3B8B3" stroke-miterlimit="10" d="M118.616,679.958c3.263-8.971,9.822-25.371,15.3-29.952"/>
<path fill="none" stroke="#B3B8B3" stroke-miterlimit="10" d="M113.856,634.583c0,0,4.759,10.975,1.584,17.961
	c0,0-3.753,13.653-7.794,15.241c0,0-12.603,14.924-18.714,12.384c0,0-2.937,1.588-3.802,4.276c-0.866,2.688-3.741,3.87-3.741,3.87"
	/>
<path fill="none" stroke="#B3B8B3" stroke-miterlimit="10" d="M125.087,662.173c3.168,10.06-11.09-89.012-13.399-123.622"/>
<path fill="none" stroke="#B3B8B3" stroke-miterlimit="10" d="M200.312,515.053c0,0-2.888,13.02-6.351,14.606
	c0,0-9.062,9.525-11.171,8.892c0,0-14.521,10.793-17.698,15.876c-3.175,5.083,0-1.27,0-1.27"/>
<path fill="none" stroke="#B3B8B3" stroke-miterlimit="10" d="M163.073,647.782c0,0,13.277,18.521,14.144,31.119"/>
<path fill="none" stroke="#B3B8B3" stroke-miterlimit="10" d="M208.684,681.355c0,0-15.877-6.899-16.743-11.026
	c0,0-10.391-11.749-11.257-18.417c0,0-2.28-11.535,1.313-16.883"/>
<path fill="none" stroke="#B3B8B3" stroke-miterlimit="10" d="M182.791,538.551c0,0,3.699,5.398-0.794,29.849
	c0,0-8.355,95.099-8.355,96.371"/>
<path fill="none" stroke="#B3B8B3" stroke-miterlimit="10" d="M144.02,353.427v-8.888V354.7c0,0-1.732,0.302-1.154,3.802
	c0,0,3.659,5.091,5.149,6.042c1.489,0.952,1.201,1.589,2.934,0l2.887-5.083c0,0,2.877-4.11-0.005-4.436v-10.486"/>
<path fill="none" stroke="#B3B8B3" stroke-miterlimit="10" d="M127.779,339.623c0,0,7.852,4.318,9.584,9.066v15.877
	c0,0,0.919,5.701,5.367,6.972h11.087c0,0,5.196-1.558,5.196-6.972v-4.777v-9.459c0,0,1.15-5.783,9.235-11.816"/>
<path fill="none" stroke="#B3B8B3" stroke-miterlimit="10" d="M144.02,354.7c0,0,4.627-1.255,9.811,0.325"/>
<line fill="none" stroke="#B3B8B3" stroke-miterlimit="10" x1="137.363" y1="360.056" x2="144.02" y2="360.056"/>
<line fill="none" stroke="#B3B8B3" stroke-miterlimit="10" x1="153.835" y1="359.46" x2="159.014" y2="359.789"/>
<text transform="matrix(0.8787 0 0 1 88.0288 57.3936)" fill="#010101" font-family="'MyriadPro-Regular'" font-size="12.0559">CN V</text>
<line fill="none" x1="111.977" y1="48.772" x2="133.05" y2="57.735"/>
<text transform="matrix(0.8787 0 0 1 98.4087 85.3354)" fill="#010101" font-family="'MyriadPro-Regular'" font-size="12.0559">C2</text>
<line fill="#FFFFFF" stroke="#010101" stroke-miterlimit="10" x1="113.292" y1="85.337" x2="137.363" y2="96.527"/>
<text transform="matrix(0.8787 0 0 1 144.0195 116.5459)" fill="#010101" font-family="'MyriadPro-Regular'" font-size="12.0559">C3</text>
<text transform="matrix(0.8787 0 0 1 87.7397 128.6826)" fill="#010101" font-family="'MyriadPro-Regular'" font-size="12.0559">C4</text>
<text transform="matrix(0.8787 0 0 1 194.3271 128.6836)" fill="#010101" font-family="'MyriadPro-Regular'" font-size="12.0559">C4</text>
<text transform="matrix(0.8787 0 0 1 72.1387 149.4292)" fill="#010101" font-family="'MyriadPro-Regular'" font-size="12.0559">C5</text>
<text transform="matrix(0.8787 0 0 1 211.9326 153.5996)" fill="#010101" font-family="'MyriadPro-Regular'" font-size="12.0559">C5</text>
<text transform="matrix(0.8787 0 0 1 57.1206 281.6646)" fill="#010101" font-family="'MyriadPro-Regular'" font-size="12.0559">C6</text>
<text transform="matrix(0.8787 0 0 1 227.2295 283.6758)" fill="#010101" font-family="'MyriadPro-Regular'" font-size="12.0559">C6</text>
<text transform="matrix(0.8787 0 0 1 0 351.8394)" fill="#010101" font-family="'MyriadPro-Regular'" font-size="12.0559">C7</text>
<line fill="#FFFFFF" stroke="#010101" stroke-miterlimit="10" x1="12.803" y1="354.626" x2="43.08" y2="377.54"/>
<text transform="matrix(0.8787 0 0 1 16.8462 326.1562)" fill="#010101" font-family="'MyriadPro-Regular'" font-size="12.0559">C8</text>
<line fill="#FFFFFF" stroke="#010101" stroke-miterlimit="10" x1="27.941" y1="333.334" x2="57.12" y2="365.51"/>
<text transform="matrix(0.8787 0 0 1 276.2832 328.9644)" fill="#010101" font-family="'MyriadPro-Regular'" font-size="12.0559">C8</text>
<line fill="none" stroke="#010101" stroke-miterlimit="10" x1="276.283" y1="333.334" x2="245.353" y2="371.538"/>
<text transform="matrix(0.8787 0 0 1 297.1719 349.1636)" fill="#010101" font-family="'MyriadPro-Regular'" font-size="12.0559">C7</text>
<line fill="#FFFFFF" stroke="#010101" stroke-miterlimit="10" x1="293.13" y1="351.276" x2="256.461" y2="377.54"/>
<text transform="matrix(0.8787 0 0 1 80.8833 260.3193)" fill="#010101" font-family="'MyriadPro-Regular'" font-size="12.0559">T1</text>
<text transform="matrix(0.8787 0 0 1 206.9521 260.3193)" fill="#010101" font-family="'MyriadPro-Regular'" font-size="12.0559">T1</text>
<text transform="matrix(0.8787 0 0 1 87.1499 197.2202)" fill="#010101" font-family="'MyriadPro-Regular'" font-size="12.0559">T2</text>
<text transform="matrix(0.8787 0 0 1 199.7344 201.3384)" fill="#010101" font-family="'MyriadPro-Regular'" font-size="12.0559">T2</text>
<text transform="matrix(0.8787 0 0 1 144.0195 149.4292)" fill="#010101" font-family="'MyriadPro-Regular'" font-size="12.0559">T2</text>
<text transform="matrix(0.8787 0 0 1 144.0195 166.3994)" fill="#010101" font-family="'MyriadPro-Regular'" font-size="12.0559">T3</text>
<text transform="matrix(0.8787 0 0 1 144.0195 181.3784)" fill="#010101" font-family="'MyriadPro-Regular'" font-size="12.0559">T4</text>
<text transform="matrix(0.8787 0 0 1 144.0195 197.2202)" fill="#010101" font-family="'MyriadPro-Regular'" font-size="12.0559">T5</text>
<text transform="matrix(0.8787 0 0 1 142.7461 213.0767)" fill="#010101" font-family="'MyriadPro-Regular'" font-size="12.0559">T6</text>
<text transform="matrix(0.8787 0 0 1 144.0195 232.8145)" fill="#010101" font-family="'MyriadPro-Regular'" font-size="12.0559">T7</text>
<text transform="matrix(0.8787 0 0 1 144.0195 249.5137)" fill="#010101" font-family="'MyriadPro-Regular'" font-size="12.0559">T8</text>
<text transform="matrix(0.8787 0 0 1 144.0195 265.9639)" fill="#010101" font-family="'MyriadPro-Regular'" font-size="12.0559">T9</text>
<text transform="matrix(0.8787 0 0 1 142.2275 281.6636)" fill="#010101" font-family="'MyriadPro-Regular'" font-size="12.0559">T10</text>
<text transform="matrix(0.8787 0 0 1 142.7461 296.748)" fill="#010101" font-family="'MyriadPro-Regular'" font-size="12.0559">T11</text>
<text transform="matrix(0.8787 0 0 1 140.6904 315.603)" fill="#010101" font-family="'MyriadPro-Regular'" font-size="12.0559">T12</text>
<text transform="matrix(0.8787 0 0 1 144.0195 336.2808)" fill="#010101" font-family="'MyriadPro-Regular'" font-size="12.0559">L1</text>
<text transform="matrix(0.8787 0 0 1 105.9141 391.2134)" fill="#010101" font-family="'MyriadPro-Regular'" font-size="12.0559">L2</text>
<text transform="matrix(0.8787 0 0 1 178.9316 391.2134)" fill="#010101" font-family="'MyriadPro-Regular'" font-size="12.0559">L2</text>
<text transform="matrix(0.8787 0 0 1 111.687 474.0894)" fill="#010101" font-family="'MyriadPro-Regular'" font-size="12.0559">L3</text>
<text transform="matrix(0.8787 0 0 1 171.7324 474.0894)" fill="#010101" font-family="'MyriadPro-Regular'" font-size="12.0559">L3</text>
<text transform="matrix(0.8787 0 0 1 120.3931 589.2085)" fill="#010101" font-family="'MyriadPro-Regular'" font-size="12.0559">L4</text>
<text transform="matrix(0.8787 0 0 1 168.25 589.2085)" fill="#010101" font-family="'MyriadPro-Regular'" font-size="12.0559">L4</text>
<text transform="matrix(0.8787 0 0 1 99.563 570.8032)" fill="#010101" font-family="'MyriadPro-Regular'" font-size="12.0559">L5</text>
<text transform="matrix(0.8787 0 0 1 185.3008 570.8032)" fill="#010101" font-family="'MyriadPro-Regular'" font-size="12.0559">L5</text>
<text transform="matrix(0.8787 0 0 1 68.4683 658.1909)" fill="#010101" font-family="'MyriadPro-Regular'" font-size="12.0559">S1</text>
<line fill="#FFFFFF" stroke="#010101" stroke-miterlimit="10" x1="84.017" y1="656.493" x2="104.012" y2="664.933"/>
<text transform="matrix(0.8787 0 0 1 144.0195 650.0044)" fill="#010101" font-family="'MyriadPro-Regular'" font-size="12.0559">S1</text>
<line fill="#FFFFFF" stroke="#010101" stroke-miterlimit="10" x1="133.05" y1="664.771" x2="144.02" y2="650.005"/>
<line fill="none" stroke="#010101" stroke-miterlimit="10" x1="153.83" y1="650.005" x2="165.959" y2="662.887"/>
<text transform="matrix(0.8787 0 0 1 220.041 658.1929)" fill="#010101" font-family="'MyriadPro-Regular'" font-size="12.0559">S1</text>
<line fill="#FFFFFF" stroke="#010101" stroke-miterlimit="10" x1="202.332" y1="673.501" x2="220.04" y2="661.45"/>
<text transform="matrix(0.8787 0 0 1 214.4561 338.5132)" fill="#010101" font-family="'MyriadPro-Regular'" font-size="12.0559">S3</text>
<line fill="#FFFFFF" stroke="#010101" stroke-miterlimit="10" x1="149.765" y1="347.661" x2="213.029" y2="338.159"/>
<line fill="none" stroke="#010101" stroke-miterlimit="10" x1="155.397" y1="354.785" x2="213.029" y2="338.159"/>
<text transform="matrix(0.8787 0 0 1 215.2314 381.3745)" fill="#010101" font-family="'MyriadPro-Regular'" font-size="12.0559">S4</text>
<line fill="#FFFFFF" stroke="#010101" stroke-miterlimit="10" x1="149.948" y1="364.543" x2="215.231" y2="377.54"/>
<path fill="none" stroke="#B3B8B3" stroke-miterlimit="10" d="M150.129,67.661c1.162-0.632,1.162-0.632,1.162-0.632
	s2.559-0.474,3.257-0.669"/>
<path fill="none" stroke="#B3B8B3" stroke-miterlimit="10" d="M143.15,61.414c0,0-2.093,4.199,0,5.123c0,0,1.451,1.664,3.516,0.538"
	/>
<path fill="none" stroke="#B3B8B3" stroke-miterlimit="10" d="M156.176,61.414c0,0,1.396,3.846,0,4.946c0,0-0.465,2.396-3.488,0.453
	"/>
<path fill="none" stroke="#B3B8B3" stroke-miterlimit="10" d="M145.012,66.36c0,0,3.953,1.935,5.117,1.301"/>
<path fill="none" stroke="#B3B8B3" stroke-miterlimit="10" d="M139.196,76.854c0,0,3.954-2.16,7.47-3.239l2.997,1.242l3.024-1.242
	c0,0,6.279,3.131,7.095,3.131c0,0-1.861,1.62-4.305,2.916c0,0-5.581,2.591-9.304,0.647C146.174,80.31,141.29,78.474,139.196,76.854
	c0,0,5.815-0.108,6.629-0.54l3.187,1.009c0,0,2.512-0.469,3.676-1.009l4.108,0.216"/>
<path fill="none" stroke="#B3B8B3" stroke-miterlimit="10" d="M129.892,49.348c0,0,8.902-5.453,12.098,1.292
	c0,0,0.114,0.762-1.141,0.012c0,0-2.395,1.253-4.907,0.937C135.942,51.589,131.718,52.062,129.892,49.348"/>
<path fill="none" stroke="#B3B8B3" stroke-miterlimit="10" d="M156.796,48.781c-1.825,0.913,7.728-5.929,13.755,0.62"/>
<path fill="none" stroke="#B3B8B3" stroke-miterlimit="10" d="M162.756,48.181c0,0-3.351,1.412-0.291,3.614
	c0,0,2.403,1.336,3.276-1.023c0,0,0.801-1.724-0.873-2.591C164.868,48.181,163.434,47.791,162.756,48.181z"/>
<path fill="#FFFFFF" d="M163.72,49.172c0,0-1.297,0.229-0.791,1.132c0,0,0.359,0.657,1.082,0.41c0,0,0.576,0.24,0.576-0.743
	C164.587,49.971,164.799,49.357,163.72,49.172z"/>
<path fill="none" stroke="#B3B8B3" stroke-miterlimit="10" d="M134.844,47.749c0,0-3.35,1.412-0.291,3.613
	c0,0,2.403,1.336,3.277-1.022c0,0,0.801-1.724-0.874-2.591C136.956,47.749,135.521,47.358,134.844,47.749z"/>
<path fill="#FFFFFF" d="M135.808,48.74c0,0-1.296,0.229-0.791,1.132c0,0,0.36,0.657,1.081,0.41c0,0,0.577,0.24,0.577-0.744
	C136.674,49.539,136.886,48.925,135.808,48.74z"/>
<path fill="none" stroke="#B3B8B3" stroke-miterlimit="10" d="M129.266,47.946c-1.238,1.2,7.426-5.511,12.42,0.711"/>
<path fill="none" stroke="#B3B8B3" stroke-miterlimit="10" d="M119.344,47.161c0,0-0.196-0.1-0.513-0.216
	c-1.711-0.624-6.929-1.694-3.592,10.149c0,0,2.609,11.205,6.868,9.202"/>
<path fill="none" stroke="#B3B8B3" stroke-miterlimit="10" d="M115.471,54.719l1.396-6.046l1.396,1.765c0,0-1.179,2.622,0.922,6.043
	l-0.922,2.125l2.326,2.807"/>
<path fill="none" stroke="#B3B8B3" stroke-miterlimit="10" d="M180.947,55.151v-6.371l-1.96,1.657c0,0,1.339,3.015-0.269,6.132
	l0.269,2.253l-2.774,2.591"/>
<path fill="none" stroke="#B3B8B3" stroke-miterlimit="10" d="M178.505,48.241c0,0,7.211-5.979,3.49,8.24
	c0,0-1.839,9.858-7.083,9.878l0,0"/>
<path fill="none" stroke="#B3B8B3" stroke-miterlimit="10" d="M178.505,48.105c-6.978,49.021-28.608,45.486-28.608,45.486
	c-16.908-0.981-24.439-15.194-27.79-27.294c-2.551-9.208-2.681-17.192-2.681-17.192c-0.019-0.365-0.036-0.726-0.05-1.083"/>
<line fill="#FFFFFF" stroke="#010101" stroke-miterlimit="10" x1="110.052" y1="55.043" x2="131.126" y2="64.007"/>
<path fill="none" stroke="#B3B8B3" stroke-miterlimit="10" d="M169.224,49.866c0,0-8.901-5.453-12.098,1.292
	c0,0-0.114,0.762,1.141,0.012c0,0,2.395,1.253,4.907,0.937C163.174,52.106,167.397,52.58,169.224,49.866"/>
<path fill="none" stroke="#B3B8B3" stroke-miterlimit="10" d="M142.667,42.838c-3.417-1.442-12.215-0.47-12.215-0.47
	c-2.458,0.422-3.792,1.778-3.792,1.778s-1.495,0.876,2.938,0.389c3.959-0.435,10.258,0.049,10.258,0.049
	c3.651,0.219,2.728-1.549,2.728-1.549"/>
<path fill="none" stroke="#B3B8B3" stroke-miterlimit="10" d="M155.44,42.838c3.417-1.442,12.215-0.47,12.215-0.47
	c2.457,0.422,3.792,1.778,3.792,1.778s1.495,0.876-2.938,0.389c-3.959-0.435-10.258,0.049-10.258,0.049
	c-3.651,0.219-2.728-1.549-2.728-1.549"/>
<path fill="none" stroke="#B3B8B3" stroke-miterlimit="10" d="M119.403,47.882c0,0-4.552-36.261,29.467-26.205
	c0,0,10.576-12.95,25.823,9.37c0,0,3.966,15.208,3.702,17.075c0,0,2.021-2.359,4.666,0.536c0,0,5.469-15.325,3.002-19.058
	c0,0-7.581-23.768-15.776-21.406c0,0-9.604-12.906-31.336-5.288c-0.101,0.036-0.201,0.072-0.304,0.108
	c-21.945,7.846-17.33,8.761-18.58,11.427c0,0-18.436,15.54-4.688,32.794C115.379,47.235,116.495,45.75,119.403,47.882z"/>
</svg>
