<?xml version="1.0" encoding="utf-8"?>
<!-- Generator: Adobe Illustrator 15.0.2, SVG Export Plug-In  -->
<!DOCTYPE svg PUBLIC "-//W3C//DTD SVG 1.1//EN" "http://www.w3.org/Graphics/SVG/1.1/DTD/svg11.dtd" [
	<!ENTITY ns_flows "http://ns.adobe.com/Flows/1.0/">
]>
<svg version="1.1"
	 xmlns="http://www.w3.org/2000/svg" xmlns:xlink="http://www.w3.org/1999/xlink" xmlns:a="http://ns.adobe.com/AdobeSVGViewerExtensions/3.0/"
	 x="0px" y="0px" width="700px" height="700px" viewBox="-212.148 -3.5 700 700"
	 overflow="visible" enable-background="new -212.148 -3.5 700 700" xml:space="preserve">
<defs>
</defs>
<path fill="none" stroke="#B3B8B3" stroke-miterlimit="10" d="M75.243,682.812c0,0,1.647-5.547,6.266-6.182"/>
<path fill="none" stroke="#B3B8B3" stroke-miterlimit="10" d="M91.901,681.812c0,0-15.3,14.609-3.167,13.609"/>
<path fill="none" stroke="#B3B8B3" stroke-miterlimit="10" d="M87.595,678.721c0,0-4.644,1.967-6.086,3.091
	c-1.444,1.123-2.598,7.44-4.908,8.425"/>
<path fill="none" stroke="#B3B8B3" stroke-miterlimit="10" d="M203.042,675.63c0,0,6.679,0.225,6.546,6.182"/>
<path fill="none" stroke="#B3B8B3" stroke-miterlimit="10" d="M209.542,685.682l-1.881-1.203c0,0-1.154-6.161-4.619-5.758"/>
<path fill="none" stroke="#B3B8B3" stroke-miterlimit="10" d="M208.814,689.284l-1.153-0.667c0,0-2.598-7.759-9.526-9.896"/>
<path fill="none" stroke="#B3B8B3" stroke-miterlimit="10" d="M201.354,695.421l1.688-5.185c0,0-2.021-2.119-8.949-8.044"/>
<path fill="none" stroke="#B3B8B3" stroke-miterlimit="10" d="M75.488,235.876c0,0-5.774,1.588-8.66-6.033"/>
<path fill="none" stroke="#B3B8B3" stroke-miterlimit="10" d="M215.588,234.652c0,0,5.003,4.846,9.62-4.68"/>
<path fill="none" stroke="#B3B8B3" stroke-miterlimit="10" d="M100.272,508c0,0,9.526,11.141,19.053-1.932"/>
<path fill="none" stroke="#B3B8B3" stroke-miterlimit="10" d="M187.852,509.247c0,0-9.926,11.253-19.852-1.566"/>
<path fill="none" stroke="#B3B8B3" stroke-miterlimit="10" d="M55.852,221.556c0,0,0.5,2.444,0,7.944c0,0-8.951,24.763-8.43,22
	l-16.257,80.934"/>
<path fill="none" stroke="#B3B8B3" stroke-miterlimit="10" d="M91.344,204.429C90.188,209.152,88.189,226,88.189,226
	c-0.542,18.989-6.44,37.47-6.44,37.47c-7.367,20.642-29.8,71.325-29.8,71.325c2.886,22.134-4.619,33.645-4.619,33.645l-0.578,14.757
	c0,0-0.866,4.132-3.463,5.016c-2.599,0.887-2.021-16.823-2.021-16.823l-1.444,0.297c0,0-2.598,18.003-3.752,22.134
	c-1.155,4.132-3.464,3.247-4.908,0.886c-1.443-2.361,3.464-21.837,3.464-21.837l-1.732,0.294c-1.155,2.361-3.175,13.28-3.175,13.28
	c-0.29,3.835-1.443,10.92-1.443,10.92c-2.021,6.197-4.908,2.36-4.908,2.36s0,0-0.866-1.476c-0.865-1.478,0.866-12.396,0.866-12.396
	c0.867-2.655,1.732-7.969,1.732-7.969c0.578-2.655-0.577-8.263-0.577-8.263c-1.731,2.656-3.175,14.164-3.175,14.164
	c-0.866,13.874-4.619,9.741-4.619,9.741c-2.887-1.771-2.021-10.329-2.021-10.329c0-9.446,4.619-22.876,4.619-22.876
	c0.866-4.577,0-5.458,0-5.458c-3.175,1.18-9.526,5.017-9.526,5.017c-10.682,1.772-9.237-2.359-9.237-2.359
	c0.289-3.247,6.35-3.837,6.35-3.837c1.444-1.477,5.485-5.018,5.485-5.018c4.33-5.608,15.3-12.69,15.3-12.69
	c0.866-1.476,3.464-3.542,3.464-3.542"/>
<path fill="none" stroke="#B3B8B3" stroke-miterlimit="10" d="M124.874,328.79c0,0,7.852,4.318,9.584,9.066v15.877
	c0,0,0.919,5.701,5.367,6.972h11.087c0,0,5.196-1.558,5.196-6.972v-4.777v-9.459c0,0,1.15-5.783,9.235-11.816
	c0,0,20.348-13.781,23.691-24.791c0,0,5.985-14.733,7.218-18.321"/>
<path fill="none" stroke="#B3B8B3" stroke-miterlimit="10" d="M99.711,302.437c0,0-5.985-14.37-7.218-17.869"/>
<path fill="none" stroke="#B3B8B3" stroke-miterlimit="10" d="M123.403,326.617c0,0-20.347-13.441-23.691-24.18"/>
<path fill="none" stroke="#B3B8B3" stroke-miterlimit="10" d="M124.485,78.398c0,0,1.672,23.564-0.347,24.692"/>
<line fill="none" stroke="#B3B8B3" stroke-miterlimit="10" x1="131.258" y1="91.343" x2="133.05" y2="108.415"/>
<line fill="none" stroke="#B3B8B3" stroke-miterlimit="10" x1="160.962" y1="91.343" x2="159.135" y2="108.415"/>
<path fill="none" stroke="#B3B8B3" stroke-miterlimit="10" d="M141.37,99.879c0,0,1.844,5.83,7.327,3.558"/>
<path fill="none" stroke="#B3B8B3" stroke-miterlimit="10" d="M150.303,123.302c0,0,0.338-0.479,6.832-3.465
	c0,0,25.047,1.803,36.382-5"/>
<path fill="none" stroke="#B3B8B3" stroke-miterlimit="10" d="M142.273,124.647c0,0-0.338-0.479-6.833-3.465
	c0,0-25.047,1.803-36.381-5"/>
<ellipse transform="matrix(0.9382 -0.3461 0.3461 0.9382 -51.3545 74.8836)" fill="none" stroke="#B3B8B3" stroke-miterlimit="10" cx="183.99" cy="181.23" rx="4.129" ry="0.791"/>
<ellipse transform="matrix(-0.9423 -0.3348 0.3348 -0.9423 158.0012 386.6582)" fill="none" stroke="#B3B8B3" stroke-miterlimit="10" cx="112.321" cy="179.713" rx="4.129" ry="0.791"/>
<path fill="none" stroke="#B3B8B3" stroke-miterlimit="10" d="M204.793,672.455c6.352,1.906,6.258,6.985,6.258,6.985l-0.258,5.082
	c0.801,3.177-0.516,4.762-0.516,4.762s1.156-2.539,0,1.588c-1.152,4.128-6.35,0.953-6.35,0.953c0,4.444-2.6,4.179-2.6,4.179
	c-15.01,1.321-12.99-6.4-12.99-6.4c-8.949,4.542-15.301-13.337-15.301-13.337c-6.061-2.541-16.742-5.938-16.742-5.938
	c-13.48-3.915,1.73-28.577,1.73-28.577l0.869-3c-0.289-2.859,0.02-4.717,0.02-4.717l-3.619-67.832c-9.48-34.502,1-60.409,1-60.409
	v-18.459c-1.732-0.953-6.645-63.834-6.645-63.834c-1.491-12.5-4.806-60.444-4.904-61.796c3.438,13.237-6.254,53.33-7.214,59.899
	c0,0,2.308-10.478,0,2.223c-0.816,4.483-0.797,4.126-3.176,46.36c-0.866,24.723,0.279,20.901-2.588,32.813"/>
<path fill="none" stroke="#B3B8B3" stroke-miterlimit="10" d="M201.67,300.5c12.851,50.766-4.979,143.647-4.979,143.647
	s-4.174,48.7-2.598,54.853c0,0,10.063,16.721,1.454,65.267c-13.366,75.371-11.468,66.558-13.366,77.484c0,0,1.171,13.29,7.671,18.02
	l14.19,13.097"/>
<path fill="none" stroke="#B3B8B3" stroke-miterlimit="10" d="M88.258,695.395c0,0,8.094,2.105,8.949-6.717
	c0,0,7.067,2.229,12.552-2.852l9.567-12.555c0,0,12.018-1.881,16.636-12.998c0,0,2.83-7.19-4.591-19.798"/>
<path fill="none" stroke="#B3B8B3" stroke-miterlimit="10" d="M84.246,151.5c0,0,1.618,0.416,2.534,2.071
	c0.917,1.655,2.226,3.551,3.801,4.51"/>
<path fill="none" stroke="#B3B8B3" stroke-miterlimit="10" d="M87.43,153.291c0,0-5.442,27.257,20.203,34.829
	c0,0,8.184,1.732,15.021,0c0,0,13.657,0.334,17.099,0.552"/>
<path fill="none" stroke="#B3B8B3" stroke-miterlimit="10" d="M90.321,173.09c0,0-2.953,17.658,3.067,39.658l0.714,20.973
	c0,0-3.522,17.585-3.522,20.542"/>
<path fill="none" stroke="#B3B8B3" stroke-miterlimit="10" d="M207.59,149.5c0,0-0.635,1.583-1.659,3.238
	c-1.024,1.655-2.437,3.384-3.991,3.677"/>
<path fill="none" stroke="#B3B8B3" stroke-miterlimit="10" d="M205.931,152.738c0,0,1.307,21.137-3.991,26.199
	c0,0-5.43,11.56-23.701,11.811c0,0-19.322-3.251-23.725-1"/>
<path fill="none" stroke="#B3B8B3" stroke-miterlimit="10" d="M201.939,178.938c0,0,2.18,15.92-3.475,24.491
	c0,0-1.275,23.929-2.918,29.5c0,0,2.465,33.542,1.918,32.571c-0.548-0.97,0,0,0,0s4.691,17.702,4.205,35"/>
<path fill="none" stroke="#B3B8B3" stroke-miterlimit="10" d="M139.89,203.429c0,0,1.954-6.429,3.958-6.429
	c0,0,6.406-1.143,7.455,7.429"/>
<path fill="none" stroke="#B3B8B3" stroke-miterlimit="10" d="M138.378,268.5c0,0,5.664,7.5,8.319,0"/>
<path fill="none" stroke="#B3B8B3" stroke-miterlimit="10" d="M20.352,354.704c0,0,8,2.296,15-6.204"/>
<path fill="none" stroke="#B3B8B3" stroke-miterlimit="10" d="M41.352,347.5c0,0,0,6.344,3,9.922"/>
<path fill="none" stroke="#B3B8B3" stroke-miterlimit="10" d="M256.942,403.509c-2.021,2.937-6.351-25.188-6.351-25.188h-1.442l0,0
	v13.944v1.951c0,0-6.185,10.699-5.835-18.952c0,0-6.868-17.423-4.848-33.318c0,0-29.734-70.305-29.156-81.92
	c0,0-5.774-24.041-4.62-27.097l-6.174-22.179"/>
<path fill="none" stroke="#B3B8B3" stroke-miterlimit="10" d="M233.271,222.123c0,0,1.731,0.917,10.044,29.039
	c0,0,4.685,34.421,4.396,35.339c0,0,8.92,50.587,12.232,53.246c0,0,18.361,14.735,19.227,15.652
	c0.867,0.916,4.908,4.586,5.774,4.586s6.062,3.056,5.773,5.197c-0.289,2.138-9.236,2.138-10.104,0c0,0-5.773-3.364-9.813-4.588
	c0,0,0.558,4.451,3.463,15.896c0,0,4.042,24.76-0.287,25.064c0,0-2.889,0.306-3.176-3.668l-4.043-21.396h-1.154l1.538,15.777
	c0,0,1.35,13.704,0.772,15.776c0,0-2.022,2.988-4.909-1.291l-1.161-12.534l-3.457-14.365l2.309,22.007c0,0-1.153,2.568-3.752,1.65"
	/>
<path fill="none" stroke="#B3B8B3" stroke-miterlimit="10" d="M270.352,361c0,0-13.409,0-16.317-7.539"/>
<path fill="none" stroke="#B3B8B3" stroke-miterlimit="10" d="M249.665,356.23c0,0,2.442,4.005-1.954,11.52"/>
<path fill="none" stroke="#B3B8B3" stroke-miterlimit="10" d="M131.306,503c0,0,11.146,29.425,1.664,63.927l-1.618,67.832
	c0,0,0.309,2.857,0.02,5.717"/>
<line fill="none" stroke="#B3B8B3" stroke-miterlimit="10" x1="233.654" y1="151.723" x2="233.654" y2="222.055"/>
<path fill="none" stroke="#B3B8B3" stroke-miterlimit="10" d="M213.654,119.723c0,0,19.332,8,20,32"/>
<line fill="none" stroke="#B3B8B3" stroke-miterlimit="10" x1="197.32" y1="111.055" x2="213.654" y2="119.723"/>
<path fill="none" stroke="#B3B8B3" stroke-miterlimit="10" d="M197.32,111.055c-21.332-3.333-29-18.333-29-18.333"/>
<path fill="none" stroke="#B3B8B3" stroke-miterlimit="10" d="M99.321,109.389c0,0,22.667-3.333,26-16"/>
<path fill="none" stroke="#B3B8B3" stroke-miterlimit="10" d="M75.654,120.389c0,0,14.667-9.333,23.667-11"/>
<path fill="none" stroke="#B3B8B3" stroke-miterlimit="10" d="M58.321,164.055c0,0-5-30.666,17.333-43.666"/>
<path fill="none" stroke="#B3B8B3" stroke-miterlimit="10" d="M55.321,233.722c0,0,6.334-40.333,3-69.667"/>
<path fill="none" stroke="#B3B8B3" stroke-miterlimit="10" d="M168.32,79.286c0,0-1.4,19.055,2.565,22.635"/>
<path fill="none" stroke="#B3B8B3" stroke-miterlimit="10" d="M82.446,321.115c-12.851,50.766,6.979,143.647,6.979,143.647
	s3.144,21.458,2,29.729c0,0-4.641,32.588-3.775,33.223c0,0-0.975,31.942,18.475,103.201c2.735,10.021,3.633,12.053,3.633,12.053
	c-0.274,5.082-9.426,17.57-9.426,17.57c-3.518,5.151-17.116,15.877-17.116,15.877s-7.422,0-8.288,8.256c0,0,0.577,5.717,1.443,9.209
	c0,0,6.055,3.979,8.58-0.643"/>
<path fill="none" stroke="#B3B8B3" stroke-miterlimit="10" d="M87.651,286.115c0,0-5.691,17.701-5.205,35"/>
<path fill="none" stroke="#B3B8B3" stroke-miterlimit="10" d="M90.569,253.538c0,0-3.465,33.542-2.918,32.571c0.548-0.97,0,0,0,0"/>
<line fill="none" x1="110.335" y1="48.772" x2="131.409" y2="57.735"/>
<path fill="none" stroke="#B3B8B3" stroke-miterlimit="10" d="M148.487,67.661c1.162-0.632,1.162-0.632,1.162-0.632
	s2.559-0.474,3.257-0.669"/>
<path fill="none" stroke="#B3B8B3" stroke-miterlimit="10" d="M141.509,61.414c0,0-2.093,4.199,0,5.123c0,0,1.451,1.664,3.516,0.538
	"/>
<path fill="none" stroke="#B3B8B3" stroke-miterlimit="10" d="M154.534,61.414c0,0,1.396,3.846,0,4.946c0,0-0.465,2.396-3.488,0.453
	"/>
<path fill="none" stroke="#B3B8B3" stroke-miterlimit="10" d="M143.37,66.36c0,0,3.953,1.935,5.117,1.301"/>
<path fill="none" stroke="#B3B8B3" stroke-miterlimit="10" d="M137.555,76.854c0,0,3.954-2.16,7.47-3.239l2.997,1.242l3.024-1.242
	c0,0,6.279,3.131,7.095,3.131c0,0-1.861,1.62-4.305,2.916c0,0-5.581,2.591-9.304,0.647C144.532,80.31,139.648,78.474,137.555,76.854
	c0,0,5.815-0.108,6.629-0.54l3.187,1.009c0,0,2.512-0.469,3.676-1.009l4.108,0.216"/>
<path fill="none" stroke="#B3B8B3" stroke-miterlimit="10" d="M128.25,49.348c0,0,8.902-5.453,12.098,1.292
	c0,0,0.114,0.762-1.141,0.012c0,0-2.395,1.253-4.907,0.937C134.301,51.589,130.077,52.062,128.25,49.348"/>
<path fill="none" stroke="#B3B8B3" stroke-miterlimit="10" d="M155.154,48.781c-1.825,0.913,7.728-5.929,13.755,0.62"/>
<path fill="none" stroke="#B3B8B3" stroke-miterlimit="10" d="M161.114,48.181c0,0-3.351,1.412-0.291,3.614
	c0,0,2.403,1.336,3.276-1.023c0,0,0.801-1.724-0.873-2.591C163.227,48.181,161.792,47.791,161.114,48.181z"/>
<path fill="#FFFFFF" d="M162.078,49.172c0,0-1.297,0.229-0.791,1.132c0,0,0.359,0.657,1.082,0.41c0,0,0.576,0.24,0.576-0.743
	C162.945,49.971,163.157,49.357,162.078,49.172z"/>
<path fill="none" stroke="#B3B8B3" stroke-miterlimit="10" d="M133.202,47.749c0,0-3.35,1.412-0.291,3.613
	c0,0,2.403,1.336,3.277-1.022c0,0,0.801-1.724-0.874-2.591C135.314,47.749,133.88,47.358,133.202,47.749z"/>
<path fill="#FFFFFF" d="M134.166,48.74c0,0-1.296,0.229-0.791,1.132c0,0,0.36,0.657,1.081,0.41c0,0,0.577,0.24,0.577-0.744
	C135.033,49.539,135.245,48.925,134.166,48.74z"/>
<path fill="none" stroke="#B3B8B3" stroke-miterlimit="10" d="M127.624,47.946c-1.238,1.2,7.426-5.511,12.42,0.711"/>
<path fill="none" stroke="#B3B8B3" stroke-miterlimit="10" d="M117.703,47.161c0,0-0.196-0.1-0.513-0.216
	c-1.711-0.624-6.929-1.694-3.592,10.149c0,0,2.609,11.205,6.868,9.202"/>
<path fill="none" stroke="#B3B8B3" stroke-miterlimit="10" d="M113.83,54.719l1.396-6.046l1.396,1.765c0,0-1.179,2.622,0.922,6.043
	l-0.922,2.125l2.326,2.807"/>
<path fill="none" stroke="#B3B8B3" stroke-miterlimit="10" d="M179.306,55.151v-6.371l-1.96,1.657c0,0,1.339,3.015-0.269,6.132
	l0.269,2.253l-2.774,2.591"/>
<path fill="none" stroke="#B3B8B3" stroke-miterlimit="10" d="M176.863,48.241c0,0,7.211-5.979,3.49,8.24
	c0,0-1.839,9.858-7.083,9.878l0,0"/>
<path fill="none" stroke="#B3B8B3" stroke-miterlimit="10" d="M176.863,48.105c-6.978,49.021-28.608,45.486-28.608,45.486
	c-16.908-0.981-24.439-15.194-27.79-27.294c-2.551-9.208-2.681-17.192-2.681-17.192c-0.019-0.365-0.036-0.726-0.05-1.083"/>
<path fill="none" stroke="#B3B8B3" stroke-miterlimit="10" d="M167.582,49.866c0,0-8.901-5.453-12.098,1.292
	c0,0-0.114,0.762,1.141,0.012c0,0,2.395,1.253,4.907,0.937C161.532,52.106,165.756,52.58,167.582,49.866"/>
<path fill="none" stroke="#B3B8B3" stroke-miterlimit="10" d="M141.025,42.838c-3.417-1.442-12.215-0.47-12.215-0.47
	c-2.458,0.422-3.792,1.778-3.792,1.778s-1.495,0.876,2.938,0.389c3.959-0.435,10.258,0.049,10.258,0.049
	c3.651,0.219,2.728-1.549,2.728-1.549"/>
<path fill="none" stroke="#B3B8B3" stroke-miterlimit="10" d="M153.799,42.838c3.417-1.442,12.215-0.47,12.215-0.47
	c2.457,0.422,3.792,1.778,3.792,1.778s1.495,0.876-2.938,0.389c-3.959-0.435-10.258,0.049-10.258,0.049
	c-3.651,0.219-2.728-1.549-2.728-1.549"/>
<path fill="none" stroke="#B3B8B3" stroke-miterlimit="10" d="M117.761,47.882c0,0-4.552-36.261,29.467-26.205
	c0,0,10.576-12.95,25.823,9.37c0,0,3.966,15.208,3.702,17.075c0,0,2.021-2.359,4.666,0.536c0,0,5.469-15.325,3.002-19.058
	c0,0-7.581-23.768-15.776-21.406c0,0-9.604-12.906-31.336-5.288c-0.101,0.036-0.201,0.072-0.304,0.108
	c-21.945,7.846-17.33,8.761-18.58,11.427c0,0-18.436,15.54-4.688,32.794C113.738,47.235,114.853,45.75,117.761,47.882z"/>
</svg>
