<?xml version="1.0" encoding="utf-8"?>
<!-- Generator: Adobe Illustrator 15.0.2, SVG Export Plug-In  -->
<!DOCTYPE svg PUBLIC "-//W3C//DTD SVG 1.1//EN" "http://www.w3.org/Graphics/SVG/1.1/DTD/svg11.dtd" [
	<!ENTITY ns_flows "http://ns.adobe.com/Flows/1.0/">
]>
<svg version="1.1"
	 xmlns="http://www.w3.org/2000/svg" xmlns:xlink="http://www.w3.org/1999/xlink" xmlns:a="http://ns.adobe.com/AdobeSVGViewerExtensions/3.0/"
	 x="0px" y="0px" width="700px" height="700px" viewBox="-200.259 -4.979 700 700"
	 overflow="visible" enable-background="new -200.259 -4.979 700 700" xml:space="preserve">
<defs>
</defs>
<path fill="none" stroke="#B3B8B3" stroke-miterlimit="10" d="M26.835,374.271l-2.519,0.334c0,0-0.147,22.667-5.814,22
	c0,0-6,2.666,0-26.667l0.333-11l-6.666,5c0,0-9,5.333-11.667-1.667c0,0-0.333-3.666,7-4.333c0,0,14.334-15.667,18.667-16
	c-2.783,3.39,14.071-25.78,20.333-80c0,0,4.667-20.667,11.667-32.667c0,0,6.334-40.333,3-69.667c0,0-5-30.667,17.333-43.667
	c0,0,14.667-9.333,23.667-11c0,0,18.667-3.333,22-16c0,0,3.666-16.666-0.667-25.667c0,0-6,5-7-11c0,0-6.667-13.333,2-12
	c-2.866-16.696,2.021-43.519,37.333-39.333c9.107,2.474,31.667,11.666,22.334,39.333c0,0,5.999-0.334,2.666,11.333
	c0,0-1.332,17-6.666,10c0,0-5.666,15.334-2,26.667c0,0,6.667,15,28,18.333l16.333,8.667c0,0,19.333,8,20,32v70.333
	c0,0,2.001,16.333,4.667,18c0,0,10,24.667,10,29.667c0,0,3.332,25,3.666,27s8.334,42,10.667,42.667s2.333,0.667,2.333,0.667
	l4.667,5.333c0,0,13,11,15,13s3.667,2.667,3.667,3.667s3.999,0.666,6.666,2.666s-1,4.668-4,4.334c0,0-4.667,1.332-14-6.334
	c0,0,0,12.334,1,15.334s3.334,20.666,3.334,20.666s-1.333,5.667-5,2.667l-4-21.333l-1.334-0.334c0,0-1.979,4.66,0,15.334
	c0,0,0.667,16-1.666,12.666c0,0-5.333,4.334-5-23.666l-1.667-0.667c0,0-0.333,13.334,0.667,19.667c0,0,0.666,5.332-5.334-1.334
	l-1.666-21.333l-1.334,0.333c0,0,0.001,13.334,0.334,15.667s-3.667,2.667-3.667,2.667l-3-2.667l0.333-19.667
	c0,0-9.667-13.333-5-32.333c0,0-38.334-73-36-88.333v-19l-5.666-25.132"/>
<path fill="none" stroke="#B3B8B3" stroke-miterlimit="10" d="M99.835,373.937c0,0,27.334,18.003,50.334-5.665
	c0,0,13,23.554,47.333,6.109"/>
<path fill="none" stroke="#B3B8B3" stroke-miterlimit="10" d="M147.169,329.604c6.666,2.858,3,38.668,3,38.668
	s0.334-37.668,5-38.668"/>
<path fill="none" stroke="#B3B8B3" stroke-miterlimit="10" d="M26.835,374.271c-5.667,33.667,0,28.334,0,28.334
	c3.333,2,5.199-27,5.199-27l1.801,0.666c-5,32,2,22.334,2,22.334c2.333,0,3.334-23.334,3.334-23.334l2,0.667
	c-0.184,5.701-1.176,12.186-0.667,15.333c0.413,2.557,2.333,2.334,2.333,2.334s0,0,1.334,0s3-23.667,3-23.667
	c3.758-6.539,4.333-30.667,4.333-30.667c24-43,34.333-85,34.333-85c1.594-14.031,1.594-20.821,1.594-20.821l5.073-20.18"/>
<path fill="none" stroke="#B3B8B3" stroke-miterlimit="10" d="M83.169,659.938c-5.667,1.225,0,10.667,0,10.667l21.666,17.666
	c10,5.349,13,2.667,13,2.667c17-0.333,8-13.999,8-13.999c-2-3,0.667-19.666,0.667-19.666c2.333-10.999-2.333-15-2.333-15
	c-2.666-2,1-67.334,1-67.334c7-14,1.666-60.667,1.666-60.667c3-7,7-47,7-47l16.334-99c-2,11.667,8.571,104.75,8.571,104.75
	s5.762,17.583,5.095,18.917s0.905,22.397,0.905,22.397c-9.571,30.686,0,57.924,0,57.924l4.762,36.012l-0.484,34.001"/>
<path fill="none" stroke="#B3B8B3" stroke-miterlimit="10" d="M103.502,666.604c-8.631-3.924,0.272-17.667,0-13.333"/>
<path fill="none" stroke="#B3B8B3" stroke-miterlimit="10" d="M85.002,661.066c0,0-1.666-2.667-3.666-1"/>
<path fill="none" stroke="#B3B8B3" stroke-miterlimit="10" d="M85.002,659.52c0,0,0.501-4.751,4.167,0"/>
<path fill="none" stroke="#B3B8B3" stroke-miterlimit="10" d="M88.44,656.938c0,0,1.465-3.236,3.463-2.421
	c0.677,0.276,1.529,0.902,2.6,2.084"/>
<path fill="none" stroke="#B3B8B3" stroke-miterlimit="10" d="M92.971,655.601c0,0-0.802-0.995,9.198-1.996"/>
<path fill="none" stroke="#BA6464" stroke-miterlimit="10" d="M271.835,189.27c0.76,0.466,1.315,1.132,1.667,2"/>
<path fill="none" stroke="#B3B8B3" stroke-miterlimit="10" d="M190.398,112.147c0,0-21.157,1.048-29.657,3.211"/>
<path fill="none" stroke="#B3B8B3" stroke-miterlimit="10" d="M100.429,108.937c0,0,28.335,5.759,31.073,6.422l2.763,0.538"/>
<path fill="none" stroke="#B3B8B3" stroke-miterlimit="10" d="M160.741,150.021c0,0,3.553,40.5,21.026,18"/>
<path fill="none" stroke="#B3B8B3" stroke-miterlimit="10" d="M131.502,150.021c0,0-0.262,42.681-21.262,21.59"/>
<path fill="none" stroke="#B3B8B3" stroke-miterlimit="10" d="M145.835,108.937c0,0,2.263-5.585,5.334,0"/>
<path fill="none" stroke="#B3B8B3" stroke-miterlimit="10" d="M151.169,120.704c0,0-5.739-6.353-5.334,0.232"/>
<path fill="none" stroke="#B3B8B3" stroke-miterlimit="10" d="M143.741,131.703c0,0,4.357-7.818,7.429,0"/>
<path fill="none" stroke="#B3B8B3" stroke-miterlimit="10" d="M143.741,162.424c0,0,3.715-7.403,5.889-0.821"/>
<path fill="none" stroke="#B3B8B3" stroke-miterlimit="10" d="M143.741,189.27c0,0,1.855-6.749,4.928-2.249"/>
<path fill="none" stroke="#B3B8B3" stroke-miterlimit="10" d="M141.486,302.826c0,0,5.97,10.998,11.939,0"/>
<path fill="none" stroke="#B3B8B3" stroke-miterlimit="10" d="M67.241,240.24c0,0,5.023,8.219,7.262,0"/>
<path fill="none" stroke="#B3B8B3" stroke-miterlimit="10" d="M223.81,246.068c0,0,5.731,3.066,6.231-3.653"/>
<path fill="none" stroke="#B3B8B3" stroke-miterlimit="10" d="M143.26,176.601c0,0,3.715-7.403,5.889-0.821"/>
<path fill="none" stroke="#B3B8B3" stroke-miterlimit="10" d="M144.789,146.763c0,0,2.263-5.585,5.334,0"/>
<path fill="none" stroke="#B3B8B3" stroke-miterlimit="10" d="M83.414,156.387c0,0,0,7.9,6.279,24.146
	c0,0,4.145,49.46,10.143,69.488c0,0-1.071,10.499-3.333,19.25c-2.732,10.572-3,29.667-3,29.667c-12.852,30.666-9.333,115-9.333,115
	c-0.516,9.161,6.333,52.333,6.333,52.333c1,11,0.333,38.667,0.333,38.667c-14.667,23.667,11.667,130.667,11.667,130.667
	c1.667,7-0.333,18-0.333,18"/>
<path fill="none" stroke="#B3B8B3" stroke-miterlimit="10" d="M200.292,271.133c2.732,10.572,3,29.667,3,29.667
	s18.551,57.222,0,145.222l-4.886,53.916c0,0,7.431,25.834,6.764,38.168c0,0-2.151,58.499-14.484,97.499"/>
<path fill="none" stroke="#B3B8B3" stroke-miterlimit="10" d="M213.38,158.249c0,0,0,7.9-6.279,24.146
	c0,0-4.145,49.46-10.143,69.488c0,0,1.071,10.499,3.333,19.25"/>
<path fill="none" stroke="#B3B8B3" stroke-miterlimit="10" d="M169.018,642.272c0,0-4.666,4.001-2.333,15
	c0,0,2.667,16.666,0.667,19.666c0,0-9,13.666,8,13.999c0,0,3,2.682,13-2.667l21.666-17.666c0,0,5.667-9.442,0-10.667"/>
<path fill="none" stroke="#B3B8B3" stroke-miterlimit="10" d="M189.685,666.604c8.631-3.924-0.272-17.667,0-13.333"/>
<path fill="none" stroke="#B3B8B3" stroke-miterlimit="10" d="M208.185,661.066c0,0,1.666-2.667,3.666-1"/>
<path fill="none" stroke="#B3B8B3" stroke-miterlimit="10" d="M208.185,659.52c0,0-0.501-4.751-4.167,0"/>
<path fill="none" stroke="#B3B8B3" stroke-miterlimit="10" d="M204.748,656.938c0,0-1.465-3.236-3.463-2.421
	c-0.677,0.276-1.529,0.902-2.6,2.084"/>
<path fill="none" stroke="#B3B8B3" stroke-miterlimit="10" d="M200.216,655.601c0,0,1.802-0.995-8.198-1.996"/>
<path fill="none" stroke="#B3B8B3" stroke-miterlimit="10" d="M190.685,635.604c-1.667,7,0.333,18,0.333,18"/>
</svg>
