<?xml version="1.0" encoding="utf-8"?>
<!-- Generator: Adobe Illustrator 15.0.2, SVG Export Plug-In  -->
<!DOCTYPE svg PUBLIC "-//W3C//DTD SVG 1.1//EN" "http://www.w3.org/Graphics/SVG/1.1/DTD/svg11.dtd" [
	<!ENTITY ns_flows "http://ns.adobe.com/Flows/1.0/">
]>
<svg version="1.1"
	 xmlns="http://www.w3.org/2000/svg" xmlns:xlink="http://www.w3.org/1999/xlink" xmlns:a="http://ns.adobe.com/AdobeSVGViewerExtensions/3.0/"
	 x="0px" y="0px" width="700px" height="700px" viewBox="-23.441 -0.124 700 700"
	 overflow="visible" enable-background="new -23.441 -0.124 700 700" xml:space="preserve">
<defs>
</defs>
<path fill="none" stroke="#B3B8B3" stroke-miterlimit="10" d="M460.19,73.541c0,0,5.333,1.668,11-1.999c0,0,6.334-4.666,7.667-7.333
	c0,0,6.332-2.666,10.666,0c0,0,5.001,7.001,6.334,7.333c4.523,1.746,3.479,4.009,11.502,2.377l0,0"/>
<path fill="none" stroke="#B3B8B3" stroke-miterlimit="10" d="M362.022,375.812l-2.519,0.334c0,0-0.147,22.666-5.814,22
	c0,0-6,2.666,0-26.668l0.333-11l-6.666,5c0,0-9,5.334-11.667-1.666c0,0-0.333-3.666,7-4.334c0,0,14.334-15.667,18.667-16
	c0,0,18.333-22.333,20.333-80c0,0,4.667-20.667,11.667-32.667c0,0,6.334-40.333,3-69.667c0,0-5-30.667,17.333-43.667
	c0,0,14.667-9.333,23.667-11c0,0,18.667-3.333,22-16c0,0,3.666-16.666-0.667-25.667c0,0-6,5-7-11c0,0-6.667-13.333,2-12
	c-2.866-16.696,2.021-43.519,37.333-39.333c9.107,2.474,31.667,11.666,22.334,39.333c0,0,5.999-0.334,2.666,11.333
	c0,0-1.332,17-6.666,10c0,0-5.666,15.334-2,26.667c0,0,6.667,15,28,18.333l16.333,8.667c0,0,19.333,8,20,32v70.333
	c0,0,2.001,16.333,4.667,18c0,0,10,24.667,10,29.667c0,0,3.332,25,3.666,27s8.334,42,10.667,42.667s2.333,0.667,2.333,0.667
	l4.667,5.333c0,0,13,11,15,13s3.667,2.668,3.667,3.668s3.999,0.666,6.666,2.666s-1,4.668-4,4.334c0,0-4.667,1.332-14-6.334
	c0,0,0,12.334,1,15.334s3.334,20.666,3.334,20.666s-1.333,5.666-5,2.666l-4-21.332l-1.334-0.334c0,0-1.979,4.66,0,15.334
	c0,0,0.667,16-1.666,12.666c0,0-5.333,4.334-5-23.666l-1.667-0.668c0,0-0.333,13.334,0.667,19.668c0,0,0.666,5.332-5.334-1.334
	l-1.666-21.334l-1.334,0.334c0,0,0.001,13.334,0.334,15.666c0.333,2.334-3.667,2.668-3.667,2.668l-3-2.668l0.333-19.666
	c0,0-9.667-13.334-5-32.333c0,0-38.334-73-36-88.333v-19l-4.43-20.333c0,0-2.57,60.333-4.57,66.333c0,0,12,66,11.667,73.333
	c0,0-5.608,123.451-7.097,146.668c-0.534,8.332,0,1.332,0,1.332s2.097,9.334,1.43,21.668c0,0-3.667,30.666-16,69.666
	c0,0-3,16.334-0.333,19.334c0,0,5,12.332,3,21c-2,8.666-2.334,16.332-0.667,22c1.667,5.666,0.334,1.666,0.334,1.666
	s6.667,21.668,2,30.668"/>
<path fill="none" stroke="#B3B8B3" stroke-miterlimit="10" d="M464.022,110.478c0,0,8.334,37.333-11.333,48"/>
<path fill="none" stroke="#B3B8B3" stroke-miterlimit="10" d="M507.022,110.478c0,0-15.333,31.667,10.667,50"/>
<path fill="none" stroke="#B3B8B3" stroke-miterlimit="10" d="M418.356,154.144c0,0,10,49.667,8.333,60.667"/>
<path fill="none" stroke="#B3B8B3" stroke-miterlimit="10" d="M549.689,154.144c0,0-8.666,58.667-9.333,63.667"/>
<path fill="none" stroke="#B3B8B3" stroke-miterlimit="10" d="M435.022,375.478c0,0,27.334,18.002,50.334-5.666
	c0,0,13,23.555,47.333,6.109"/>
<path fill="none" stroke="#B3B8B3" stroke-miterlimit="10" d="M482.356,331.145c6.666,2.858,3,38.667,3,38.667
	s0.334-37.667,5-38.667"/>
<path fill="none" stroke="#B3B8B3" stroke-miterlimit="10" d="M436.356,498.812c0,0-3.333,5.666,0,9.666"/>
<path fill="none" stroke="#B3B8B3" stroke-miterlimit="10" d="M533.689,494.478c10.471,8.955,9.687,17.572,7.903,7"/>
<path fill="none" stroke="#B3B8B3" stroke-miterlimit="10" d="M513.022,506.353c0,0-10,19.125-10,22.125"/>
<path fill="none" stroke="#B3B8B3" stroke-miterlimit="10" d="M505.356,626.812c0,0,17-26,24.333,6.334"/>
<path fill="none" stroke="#B3B8B3" stroke-miterlimit="10" d="M510.689,666.478c0,0,5.667-0.334,10,8l1.667-8.002"/>
<path fill="none" stroke="#B3B8B3" stroke-miterlimit="10" d="M505.356,685.478c0,0,3.5,1.197,5.917,3.139
	c2.416,1.941,3.75,4.623-0.584,7.592"/>
<path fill="none" stroke="#B3B8B3" stroke-miterlimit="10" d="M437.356,655.146c0,0,2-11,0.333-18c0,0-26.334-107-11.667-130.668
	c0,0,0.667-27.666-0.333-38.666c0,0-9.666-47-6.333-52.334c0,0-0.667-84.333,9.333-115c0,0,3.333-19,1-29.667
	c0,0-1.667-47.667-2.667-54l-4.666,15c0,0-1.668,11.667-1.334,24c0,0-10.333,42-34.333,85c0,0,0.667,29-4.333,30.667
	c0,0-1.666,23.668-3,23.668s-1.334,0-1.334,0s-1.92,0.223-2.333-2.334c-0.509-3.148,0.483-9.633,0.667-15.334l-2-0.666
	c0,0-1.001,23.334-3.334,23.334c0,0-7,9.666-2-22.334l-1.801-0.666c0,0-1.866,29-5.199,27c0,0-5.667,5.332,0-28.334"/>
<path fill="none" stroke="#B3B8B3" stroke-miterlimit="10" d="M511.273,688.617c10.917-3.193,20.083-1.137,20.083-1.137
	s0.334,6.332-2,6.332c0,0-3.667,1.668-6.667,0c0,0-3.001,1.816-4.667,0.742s-2.666,1.42-4.666,0.34c-2-1.082-4.666,6.637-10,0.277
	c0,0-2.334-3.725-0.334-10.709c2-6.982,0.667-1.65,0.667-1.65s-2.999-19-1.333-23c0,0,0.999-2.666,2.666-5.666l0.334-27.334
	c0,0-4.495-7.301-0.667-17l1.333-36c0,0-9.667-34.666-1-53.666c0,0-3.667-25.332-3-26.666s-1-20.334-1-20.334
	s-17.666-91.666-15.666-103.334l-16.334,99c0,0-4,40-7,47c0,0,5.334,46.668-1.666,60.668c0,0-3.666,65.334-1,67.334
	c0,0,4.666,4,2.333,15c0,0-2.667,16.666-0.667,19.666c0,0,9,13.666-8,13.998c0,0-3,2.682-13-2.666l-21.666-17.666
	c0,0-5.667-9.443,0-10.668"/>
<path fill="none" stroke="#B3B8B3" stroke-miterlimit="10" d="M518.022,694.554c0,0,0.838-6.666-1.499-6.666"/>
<path fill="none" stroke="#B3B8B3" stroke-miterlimit="10" d="M522.689,693.812c0,0,0.237-6.785-2.208-6.645"/>
<path fill="none" stroke="#B3B8B3" stroke-miterlimit="10" d="M527.022,693.812c0,0-0.667-2.801,0-6.074"/>
<path fill="none" stroke="#B3B8B3" stroke-miterlimit="10" d="M513.521,640.144c0,0,5.503,7,10.836,0"/>
<path fill="none" stroke="#B3B8B3" stroke-miterlimit="10" d="M438.689,668.144c-8.631-3.924,0.272-17.666,0-13.332"/>
<path fill="none" stroke="#B3B8B3" stroke-miterlimit="10" d="M420.189,662.607c0,0-1.666-2.666-3.666-1"/>
<path fill="none" stroke="#B3B8B3" stroke-miterlimit="10" d="M420.189,661.06c0,0,0.501-4.75,4.167,0"/>
<path fill="none" stroke="#B3B8B3" stroke-miterlimit="10" d="M427.022,658.949c-3.667-3.527-2.666-0.803-2.666-0.803
	s24.666,32.607,20.333,0.803c0,0-0.467-49.137-5.233-55.137c0,0-9.767-32.334-8.767-39"/>
<path fill="none" stroke="#B3B8B3" stroke-miterlimit="10" d="M425.627,656.478c0,0,0.465-2.236,2.463-1.42
	c0.677,0.275,1.529,0.902,2.6,2.084"/>
<path fill="none" stroke="#B3B8B3" stroke-miterlimit="10" d="M428.158,657.142c0,0-0.802-0.996,9.198-1.996"/>
<path fill="none" stroke="#B3B8B3" stroke-miterlimit="10" d="M426.367,110.478c0,0,20.989,6,34.322-8.333
	c0,0,4.845-3.58,12.423-5.812c8.936-2.631,21.671-3.387,34.746,5.812c0,0,5.498,10.667,29.498,7.333"/>
<path fill="none" stroke="#B3B8B3" stroke-miterlimit="10" d="M405.689,124.811c0,0,138.722,6,156.694,0"/>
<path fill="none" stroke="#B3B8B3" stroke-miterlimit="10" d="M421.034,258.544c0,0-17.021-54.821-4.672-106.237
	c0,0,23.03-38.479,62.414-16.686c0,0,7.344,5.02,27.703-6.684c0,0,40.719-4.552,49.397,34.605c0,0,4.005,76.954-8.344,95.001"/>
<path fill="none" stroke="#B3B8B3" stroke-miterlimit="10" d="M460.689,128.776c0,0,15.028-14.631,23.348-13.631
	c0,0,9.99,0.666,23.821,12.333"/>
<path fill="none" stroke="#B3B8B3" stroke-miterlimit="10" d="M382.689,260.145c0,0,8.666,7,29.333-60.333
	c0,0-11.333,83.666-29.333,117.667c-24.48,41.201-20.64,61.227-20.667,58.334"/>
<path fill="none" stroke="#B3B8B3" stroke-miterlimit="10" d="M368.689,379.812c0,0,14.333-57.001,14-62.334
	c0,0,5.008,28.699,4.081,25.366"/>
<path fill="none" stroke="#B3B8B3" stroke-miterlimit="10" d="M582.022,341.479c0,0,4.667-11.334,3-22.667
	c0,0-30.762-106.667-28.714-117.333c0,0,12.047,47,28.714,59.333"/>
<path fill="none" stroke="#B3B8B3" stroke-miterlimit="10" d="M600.689,380.478c0,0-14.667-41.333-15.667-61.667
	c0,0,19.861,31.36,22.792,48.728c0.133,0.787,0.23,1.547,0.291,2.273c0.058,0.699,0.934,6.365,0.917,7
	c-0.016,0.584-1.152-3.842-1-3.334"/>
<path fill="none" stroke="#B3B8B3" stroke-miterlimit="10" d="M478.356,409.144c0,0-7.145,17.754-17.77,10.338
	c-2.559-1.787-5.319-5.033-8.23-10.338c0,0-31.334-45.666,3.666-76.666c0,0,29.667-25.333,64.667,9c0,0,16.333,22,3,56.333
	c0,0-9.666,38.666-33.333,13.332"/>
<path fill="none" stroke="#B3B8B3" stroke-miterlimit="10" d="M461.894,517.416c0,0-10.702-8.084-10.537-11.469
	c0,0,3.72-82.131,10.537-86.469"/>
<path fill="none" stroke="#B3B8B3" stroke-miterlimit="10" d="M451.369,505.947c0,0-1.195,118.139,1.799,123.137
	c0,0,2.396,13.562,7.188,16.061"/>
<path fill="none" stroke="#B3B8B3" stroke-miterlimit="10" d="M426.022,506.478c0,0-0.619,46.922,5.179,57.834
	c0,0,8.84,12.73,19.409-2.184"/>
<path fill="none" stroke="#B3B8B3" stroke-miterlimit="10" d="M426.689,487.144c0,0,6.251,4.002,10.459-59.332
	c0,0,1.541-68.002,3.541-73.334c0,0,9.333-50.333,40.333-58c0,0,31.272-8.614,47.904,58l6.43,105.334
	c0.667,23,6.968,27.383,6.968,27.383"/>
<path fill="none" stroke="#B3B8B3" stroke-miterlimit="10" d="M528.927,627.144c0,0-10.986-17-8.445-25
	c0,0,21.672-79.502,19.672-100.502"/>
<path fill="none" stroke="#B3B8B3" stroke-miterlimit="10" d="M509.082,622.041c0,0,9.144-44.936,7.333-112.59
	c-0.719-26.871-3.166-57.326-8.601-89.973"/>
<path fill="none" stroke="#B3B8B3" stroke-miterlimit="10" d="M516.421,510.458c0,0-8.512,8.02-13.955,18.02"/>
<path fill="none" stroke="#B3B8B3" stroke-miterlimit="10" d="M515.639,564.394c0,0,7.501,7.773,14.051,1.287"/>
<path fill="none" stroke="#B3B8B3" stroke-miterlimit="10" d="M505.022,654.146c0,0,15.001,17.508,12.803,33.027"/>
<path fill="none" stroke="#B3B8B3" stroke-miterlimit="10" d="M484.991,362.339c-9.837-3.129-3.138-23.475,4.847-16.829
	C495.55,350.266,491.777,364.496,484.991,362.339z"/>
<path fill="none" stroke="#B3B8B3" stroke-miterlimit="10" d="M484.46,375.453c-14.506-5.887-4.627-44.173,7.147-31.667
	C500.031,352.734,494.469,379.509,484.46,375.453z"/>
<path fill="none" stroke="#B3B8B3" stroke-miterlimit="10" d="M461.641,328.654c7.224-7.938,16.101-15.675,27.354-12.702
	c4.635,1.225,8.063,4.643,11.979,7.701c3.005,2.347,5.012,7.504,8.47,8.601"/>
<path fill="none" stroke="#B3B8B3" stroke-miterlimit="10" d="M461.356,328.145c4.086-7.747,11.668-23.665,22.017-23.667
	c12.352-0.002,16.749,11.256,19.649,15.429c3.891,7.682,5.104,10.372,6.421,12.346"/>
<path fill="none" stroke="#B3B8B3" stroke-miterlimit="10" d="M425.523,315.074c12.551,1.394,20.37-11.963,26.926-20.685
	c3.606-4.798,7.521-9.589,12.667-13.072c5.136-3.476,11.118-3.93,17.066-4.233c8.786-0.448,20.657,4.184,27.164,9.981
	c3.503,3.121,5.654,7.889,8.428,11.74c2.826,3.925,6.23,7.816,9.99,10.684c3.46,2.638,10.556,8.148,14.812,8.97"/>
<path fill="none" stroke="#B3B8B3" stroke-miterlimit="10" d="M430.365,285.478c11.794,0.006,21.889-11.78,30.649-18.333
	c8.488-6.35,25.869-6.894,35.739-3.909c7.821,2.365,14.729,5.09,20.844,10.666c4.599,4.191,13.699,11.241,20.386,11.577"/>
<path fill="none" stroke="#B3B8B3" stroke-miterlimit="10" d="M429.689,271.066c12.171-2.261,20.554-10.575,30.561-17.295
	c10.731-7.207,22.48-8.783,34.928-5.328c3.844,1.067,7.841,1.664,11.692,3.225c3.559,1.443,6.69,3.905,10.256,5.751
	c6.673,3.456,13.981,7.893,20.734,11.06"/>
<path fill="none" stroke="#B3B8B3" stroke-miterlimit="10" d="M430.022,258.145c12.283,1.179,24.556-13.644,33.092-20.25
	c7.791-6.029,24.215-5.455,33.501-2.992c7.568,2.007,13.972,6.209,19.807,11.234c5.754,4.955,14.79,12.093,22.601,12.008"/>
<path fill="none" stroke="#B3B8B3" stroke-miterlimit="10" d="M430.022,245.145c12.135,1.254,22.996-12.471,32.578-17.917
	c9.82-5.581,23.976-6.175,35.665-4.675c7.806,1.001,15.362,7.486,21.3,12.341c4.899,4.007,13.328,11.563,20.124,11.917"/>
<path fill="none" stroke="#B3B8B3" stroke-miterlimit="10" d="M429.356,232.478c12.288,0.284,22.264-11.874,31.832-17.75
	c5.436-3.338,11.185-4.968,17.454-5.25c6.091-0.273,12.062-1.162,18.14,0c9.099,1.741,15.925,6.4,22.847,11.397
	c6.642,4.794,12.782,12.026,20.963,13.935"/>
<path fill="none" stroke="#B3B8B3" stroke-miterlimit="10" d="M428.356,218.869c6.922,0.67,12.973-4.687,18.323-8.008
	c6.021-3.738,11.843-8.429,18.238-11.513c5.228-2.521,11.365-4.158,17.39-4.204c6.279-0.049,11.602,1.768,17.38,2.892
	c7.53,1.464,14.687,4.298,20.886,8.723c6.644,4.742,13.052,9.453,21.113,11.121"/>
<path fill="none" stroke="#B3B8B3" stroke-miterlimit="10" d="M427.022,207.035c6.032-0.697,12.02-3.229,17.209-6.381
	c5.795-3.519,9.873-9.333,15.595-12.622c10.139-5.826,24.978-9.339,36.479-5.321c8.18,2.858,16.807,4.932,24.038,10.05
	c6.737,4.77,13.799,10.796,21.347,14.273"/>
<path fill="none" stroke="#B3B8B3" stroke-miterlimit="10" d="M544.689,180.145c-1.976-2.574-4.515-5.648-6.389-8.276
	c-2.142-0.511-4.326-3.152-6.26-4.391c-1.907-1.223-3.815-2.466-5.685-3.683c-3.947-2.57-8.376-4.992-12.685-6.966
	c-9.481-4.345-16.8-10.15-27.724-10.684c-11.815-0.577-22.66,5.76-32.517,11.342c-5.471,3.098-10.547,6.226-15.399,10.075
	c-3.55,2.816-11.677,7.553-13.343,11.917"/>
<path fill="none" stroke="#BA6464" stroke-miterlimit="10" d="M607.022,190.811c0.76,0.466,1.315,1.132,1.667,2"/>
<path fill="none" stroke="#B3B8B3" stroke-miterlimit="10" d="M425.689,194.811c12.012,0.523,21.639-10.112,30.349-17.083
	c9.495-7.602,20.469-9.464,32.699-8.917c10.714,0.48,21.552,5.058,30.171,10.667c7.324,4.767,15.801,13.612,24.742,15.667"/>
<path fill="none" stroke="#B3B8B3" stroke-miterlimit="10" d="M424.356,181.478c5.269-0.253,11.794-3.114,16.61-5.065
	c5.388-2.184,10.915-5.302,16.039-8.343c5.108-3.033,9.81-7.004,15.352-8.666c5.636-1.69,11.476-2.611,17.665-1.925
	c20.473,2.271,34.67,23.925,55.667,23.999"/>
<text transform="matrix(1 0 0 1 478.3574 81.145)" fill="#010101" font-family="'MyriadPro-Regular'" font-size="12">C3</text>
<text transform="matrix(1 0 0 1 478.3574 107.811)" fill="#010101" font-family="'MyriadPro-Regular'" font-size="12">C4</text>
<text transform="matrix(1 0 0 1 478.3574 124.811)" fill="#010101" font-family="'MyriadPro-Regular'" font-size="12">C5</text>
<text transform="matrix(1 0 0 1 478.3574 136.8105)" fill="#010101" font-family="'MyriadPro-Regular'" font-size="12">C6</text>
<text transform="matrix(1 0 0 1 397.0234 157.25)" fill="#010101" font-family="'MyriadPro-Regular'" font-size="12">C5</text>
<text transform="matrix(1 0 0 1 557.6895 166.8115)" fill="#010101" font-family="'MyriadPro-Regular'" font-size="12">C5</text>
<text transform="matrix(1 0 0 1 435.3555 146.1084)" fill="#010101" font-family="'MyriadPro-Regular'" font-size="12">T2</text>
<text transform="matrix(1 0 0 1 517.6895 144.4775)" fill="#010101" font-family="'MyriadPro-Regular'" font-size="12">T2</text>
<text transform="matrix(1 0 0 1 478.3574 146.1074)" fill="#010101" font-family="'MyriadPro-Regular'" font-size="12">T3</text>
<text transform="matrix(1 0 0 1 478.3574 157.25)" fill="#010101" font-family="'MyriadPro-Regular'" font-size="12">T4</text>
<g>
	<text transform="matrix(1 0 0 1 479.3574 168.7227)" fill="#010101" font-family="'MyriadPro-Regular'" font-size="12">T5</text>
</g>
<text transform="matrix(1 0 0 1 479.3574 180.1445)" fill="#010101" font-family="'MyriadPro-Regular'" font-size="12">T6</text>
<text transform="matrix(1 0 0 1 480.084 192.8105)" fill="#010101" font-family="'MyriadPro-Regular'" font-size="12">T7</text>
<text transform="matrix(1 0 0 1 479.3574 205.1436)" fill="#010101" font-family="'MyriadPro-Regular'" font-size="12">T8</text>
<text transform="matrix(1 0 0 1 480.085 219.2026)" fill="#010101" font-family="'MyriadPro-Regular'" font-size="12">T9</text>
<text transform="matrix(1 0 0 1 477.2246 231.4775)" fill="#010101" font-family="'MyriadPro-Regular'" font-size="12">T10</text>
<text transform="matrix(1 0 0 1 477.2246 244.1445)" fill="#010101" font-family="'MyriadPro-Regular'" font-size="12">T11</text>
<text transform="matrix(1 0 0 1 478.3574 258.2109)" fill="#010101" font-family="'MyriadPro-Regular'" font-size="12">T12</text>
<text transform="matrix(1 0 0 1 479.3574 273.4824)" fill="#010101" font-family="'MyriadPro-Regular'" font-size="12">L1</text>
<text transform="matrix(1 0 0 1 479.3574 290.1445)" fill="#010101" font-family="'MyriadPro-Regular'" font-size="12">L2</text>
<text transform="matrix(1 0 0 1 414.1719 214.8115)" fill="#010101" font-family="'MyriadPro-Regular'" font-size="12">T2</text>
<text transform="matrix(1 0 0 1 541.6895 221.8457)" fill="#010101" font-family="'MyriadPro-Regular'" font-size="12">T2</text>
<text transform="matrix(1 0 0 1 403.0225 273.4829)" fill="#010101" font-family="'MyriadPro-Regular'" font-size="12">T1</text>
<text transform="matrix(1 0 0 1 553.0234 277.0547)" fill="#010101" font-family="'MyriadPro-Regular'" font-size="12">T1</text>
<text transform="matrix(1 0 0 1 329.3555 329.4771)" fill="#010101" font-family="'MyriadPro-Regular'" font-size="12">C8</text>
<line fill="#FFFFFF" stroke="#010101" stroke-miterlimit="10" x1="345.022" y1="326.811" x2="382.689" y2="348.645"/>
<text transform="matrix(1 0 0 1 329.3555 344.7607)" fill="#010101" font-family="'MyriadPro-Regular'" font-size="12">C6</text>
<line fill="#FFFFFF" stroke="#010101" stroke-miterlimit="10" x1="345.022" y1="341.479" x2="361.818" y2="349.645"/>
<text transform="matrix(1 0 0 1 329.3555 379.812)" fill="#010101" font-family="'MyriadPro-Regular'" font-size="12">C7</text>
<line fill="#FFFFFF" stroke="#010101" stroke-miterlimit="10" x1="346.504" y1="375.869" x2="370.356" y2="358.58"/>
<text transform="matrix(1 0 0 1 451.0225 329.4771)" fill="#010101" font-family="'MyriadPro-Regular'" font-size="12">L3</text>
<text transform="matrix(1 0 0 1 507.8584 331.145)" fill="#010101" font-family="'MyriadPro-Regular'" font-size="12">L3</text>
<text transform="matrix(1 0 0 1 439.4561 455.8101)" fill="#010101" font-family="'MyriadPro-Regular'" font-size="12">S2</text>
<text transform="matrix(1 0 0 1 517.6895 458.144)" fill="#010101" font-family="'MyriadPro-Regular'" font-size="12">S2</text>
<text transform="matrix(1 0 0 1 422.6885 369.812)" fill="#010101" font-family="'MyriadPro-Regular'" font-size="12">L2</text>
<text transform="matrix(1 0 0 1 533.6895 372.3853)" fill="#010101" font-family="'MyriadPro-Regular'" font-size="12">L2</text>
<text transform="matrix(1 0 0 1 480.085 369.813)" fill="#010101" font-family="'MyriadPro-Regular'" font-size="12">S4</text>
<text transform="matrix(1 0 0 1 453.0225 350.478)" fill="#010101" font-family="'MyriadPro-Regular'" font-size="12">S3</text>
<text transform="matrix(1 0 0 1 504.3555 350.4785)" fill="#010101" font-family="'MyriadPro-Regular'" font-size="12">S3</text>
<text transform="matrix(1 0 0 1 453.0234 500.4155)" fill="#010101" font-family="'MyriadPro-Regular'" font-size="12">L3</text>
<text transform="matrix(1 0 0 1 502.4658 500.4155)" fill="#010101" font-family="'MyriadPro-Regular'" font-size="12">L3</text>
<text transform="matrix(1 0 0 1 450.0918 542.812)" fill="#010101" font-family="'MyriadPro-Regular'" font-size="12">L4</text>
<text transform="matrix(1 0 0 1 502.4658 545.478)" fill="#010101" font-family="'MyriadPro-Regular'" font-size="12">L4</text>
<text transform="matrix(1 0 0 1 445.2002 684.4624)" fill="#010101" font-family="'MyriadPro-Regular'" font-size="12">S1</text>
<text transform="matrix(1 0 0 1 513.5205 655.146)" fill="#010101" font-family="'MyriadPro-Regular'" font-size="12">S1</text>
<text transform="matrix(1 0 0 1 403.0225 616.9272)" fill="#010101" font-family="'MyriadPro-Regular'" font-size="12">L5</text>
<text transform="matrix(1 0 0 1 545.6895 606.478)" fill="#010101" font-family="'MyriadPro-Regular'" font-size="12">L5</text>
<text transform="matrix(1 0 0 1 477.2246 668.144)" fill="#010101" font-family="'MyriadPro-Regular'" font-size="12">L5</text>
<line fill="#FFFFFF" stroke="#010101" stroke-miterlimit="10" x1="416.523" y1="614.144" x2="439.456" y2="622.041"/>
<line fill="#FFFFFF" stroke="#010101" stroke-miterlimit="10" x1="522.695" y1="606.478" x2="545.689" y2="603.478"/>
<line fill="none" stroke="#010101" stroke-miterlimit="10" x1="491.356" y1="666.476" x2="507.858" y2="672.878"/>
<text transform="matrix(1 0 0 1 387.3564 425.478)" fill="#010101" font-family="'MyriadPro-Regular'" font-size="12">S5</text>
<line fill="#FFFFFF" stroke="#010101" stroke-miterlimit="10" x1="401.689" y1="419.478" x2="482.356" y2="355.144"/>
<text transform="matrix(1 0 0 1 640.3555 297.7573)" fill="#010101" font-family="'MyriadPro-Regular'" font-size="12">S1</text>
<line fill="#FFFFFF" stroke="#010101" stroke-miterlimit="10" x1="494.022" y1="312.811" x2="638.688" y2="294.478"/>
<text transform="matrix(1 0 0 1 640.3555 316.478)" fill="#010101" font-family="'MyriadPro-Regular'" font-size="12">S2</text>
<line fill="none" stroke="#010101" stroke-miterlimit="10" x1="494.022" y1="323.478" x2="638.688" y2="315.301"/>
<text transform="matrix(1 0 0 1 638.6885 341.291)" fill="#010101" font-family="'MyriadPro-Regular'" font-size="12">C8</text>
<line fill="#FFFFFF" stroke="#010101" stroke-miterlimit="10" x1="587.355" y1="358.58" x2="635.688" y2="339.061"/>
<text transform="matrix(1 0 0 1 638.6885 358.5796)" fill="#010101" font-family="'MyriadPro-Regular'" font-size="12">C6</text>
<line fill="#FFFFFF" stroke="#010101" stroke-miterlimit="10" x1="611.521" y1="358.58" x2="637.022" y2="355.144"/>
<text transform="matrix(1 0 0 1 638.6885 382.3569)" fill="#010101" font-family="'MyriadPro-Regular'" font-size="12">C7</text>
<line fill="#FFFFFF" stroke="#010101" stroke-miterlimit="10" x1="603.355" y1="367.224" x2="637.022" y2="377.478"/>
<text transform="matrix(1 0 0 1 477.2246 43.312)" fill="#010101" font-family="'MyriadPro-Regular'" font-size="12">C2</text>
<path fill="none" stroke="#B3B8B3" stroke-miterlimit="10" d="M126.126,76.696c0,0,3.757,12.62,0,19.25c0,0-5.212,3.771-6.217,4.724
	c-1.005,0.953-24.965,15.559-24.965,15.559s-32.91,5.08-24.827,60.014c0,0,0.578,51.758-5.773,59.378c0,0-10.681,29.214-8.95,39.375
	c0,0-2.886,40.645-7.506,48.583c0,0-6.062,24.769-8.083,25.72c0,0-2.598,2.223-3.464,3.811c0,0-10.97,7.62-15.3,13.653
	c0,0-4.042,3.811-5.485,5.399c0,0-6.062,0.634-6.35,4.127c0,0-1.444,4.445,9.237,2.539c0,0,6.351-4.127,9.526-5.397
	c0,0,0.866,0.948,0,5.873c0,0-4.619,14.449-4.619,24.611c0,0-0.866,9.208,2.021,11.113c0,0,3.753,4.446,4.619-10.48
	c0,0,1.444-12.382,3.175-15.24c0,0,1.155,6.033,0.577,8.891c0,0-0.865,5.717-1.732,8.574c0,0-1.731,11.747-0.866,13.336
	c0.866,1.588,0.866,1.588,0.866,1.588s2.887,4.128,4.908-2.54c0,0,1.154-7.622,1.443-11.748c0,0,2.02-11.748,3.175-14.289
	l1.732-0.316c0,0-4.908,20.955-3.464,23.496c1.444,2.54,3.753,3.491,4.908-0.953c1.154-4.445,3.752-23.814,3.752-23.814l1.444-0.319
	c0,0-0.578,19.054,2.021,18.1c2.598-0.951,3.463-5.396,3.463-5.396l0.578-15.877c0,0,7.505-12.384,4.619-36.198
	c0,0,32.91-73.669,32.332-90.498c0,0,0.29-19.053,0.866-26.038c0,0,2.886-6.032,4.042-11.114c1.154-5.081,0.289-1.587,0.289-1.587
	s0.577-29.213,0.288-38.739c0,0-9.526-12.066-10.104-19.369"/>
<path fill="none" stroke="#B3B8B3" stroke-miterlimit="10" d="M98.408,183.864c0,0,3.176-20.957,16.455-17.464
	s5.529,1.223,5.529,1.223s25.359,5.763,45.566,1.636c20.208-4.128,2.308-0.318,2.308-0.318s13.857-6.033,23.963-0.317
	c0,0,5.475,3.812,7.646,15.241l-0.769,39.241"/>
<path fill="none" stroke="#B3B8B3" stroke-miterlimit="10" d="M157.011,189.263c0,0,24.696,22.753,42.864-5.398
	c3.078-4.77,5.969-11.001,8.52-19.052"/>
<path fill="none" stroke="#B3B8B3" stroke-miterlimit="10" d="M111.977,306.751c0,0-12.991-12.387-13.568-21.594l-6.64,28.261
	c0,0-4.907,80.652-1.443,87.957c0,0,5.485,68.587,8.083,72.715c0,0,0.578,9.528,0,23.498c0,0-3.753,30.483-2.887,31.118
	c0,0-1.443,32.072,18.475,103.2c0,0-0.865,14.604,0,15.24c0.867,0.636-0.865-0.636-0.865-0.636s-4.619,11.751-6.928,13.02
	c0,0-14.434,16.513-15.589,13.972l-1.527,1.905c0,0-7.422-0.001-8.288,8.256c0,0,0.577,5.716,1.443,9.208
	c0.866,3.495,4.091,1.586,6.64,2.223c1.443,0.361,1.443,0.361,1.443,0.361s-3.175,2.816,5.485,2.816c0,0,3.753,2.54,8.949-5.717
	c0,0,1.155,2.539,6.641-2.54l8.66-12.066c0,0,11.836,0.319,16.455-10.797c0,0,1.732-5.715-1.732-17.146c0,0-0.29-7.939-2.31-12.385
	c0,0-2.021-80.337,0.578-83.193c0,0,1.442-17.781-1.444-46.678c0,0,6.062-10.162,6.929-34.929c0,0,2.358-41.87,3.176-46.36
	c2.309-12.7,0-2.223,0-2.223s8.371-46.36,6.639-53.029c0,0,7.218,75.893,9.815,77.162c0,0,0.577,40.645,2.31,41.598l4.618,18.734
	c0,0-6.062,42.232,0,50.171v77.795c0,0-2.309,2.857-2.02,5.717v5.396c0,0-8.084,20.959-2.599,23.181c0,0,10.681,5.397,16.742,7.938
	c0,0,9.816,16.511,15.301,13.337c0,0-2.02,7.722,12.99,6.4c0,0,2.6,0.266,2.6-4.179c0,0,5.196,3.175,6.349-0.953
	c1.157-4.127,0-1.588,0-1.588s1.317-1.585,0.516-4.762l0.258-5.082c0,0,0.094-5.079-6.257-6.985c0,0-5.773-2.539-7.506-5.079
	c0,0-11.547-6.35-17.031-19.054c0,0-3.753-13.654-2.021-18.099c0,0,19.053-74.619,19.631-95.261
	c0.576-20.639,0.576-1.588,0.576-1.588l-4.907-49.218c0,0,3.463-36.833,4.043-38.421c0.575-1.589,0.575-1.589,0.575-1.589
	s11.259-78.43,2.311-137.491l-5.484-22.544v-63.509"/>
<line fill="none" stroke="#B3B8B3" stroke-miterlimit="10" x1="98.408" y1="283.571" x2="97.831" y2="224.19"/>
<path fill="none" stroke="#B3B8B3" stroke-miterlimit="10" d="M185.301,306.751c0,0,10.104-9.843,13.857-20.004"/>
<path fill="none" stroke="#B3B8B3" stroke-miterlimit="10" d="M80.884,684.446c0,0,1.647-5.547,6.266-6.182"/>
<path fill="none" stroke="#B3B8B3" stroke-miterlimit="10" d="M97.542,684.446c0,0-15.243,9.902-5.167,13.609"/>
<path fill="none" stroke="#B3B8B3" stroke-miterlimit="10" d="M93.237,681.355c0,0-4.644,1.967-6.086,3.091
	c-1.444,1.123-2.598,7.44-4.908,8.425"/>
<path fill="none" stroke="#B3B8B3" stroke-miterlimit="10" d="M208.684,678.264c0,0,6.679,0.225,6.546,6.182"/>
<path fill="none" stroke="#B3B8B3" stroke-miterlimit="10" d="M215.184,688.316l-1.881-1.203c0,0-1.154-6.161-4.619-5.758"/>
<path fill="none" stroke="#B3B8B3" stroke-miterlimit="10" d="M214.456,691.918l-1.153-0.667c0,0-2.598-7.759-9.526-9.896"/>
<path fill="none" stroke="#B3B8B3" stroke-miterlimit="10" d="M206.996,698.055l1.688-5.185c0,0-2.021-2.119-8.949-8.044"/>
<path fill="none" stroke="#B3B8B3" stroke-miterlimit="10" d="M144.02,209.584c0,0-4.619,5.082-7.217,6.034
	c0,0-17.032,10.162-21.939,26.991"/>
<path fill="none" stroke="#B3B8B3" stroke-miterlimit="10" d="M182.703,242.609c0,0-8.084-17.465-16.744-23.181
	c0,0-12.412-7.304-12.124-9.844"/>
<path fill="none" stroke="#B3B8B3" stroke-miterlimit="10" d="M80.799,251.182c0,0-5.774,1.588-8.66-6.033
	c0,0,1.731,7.938,4.33,8.731"/>
<path fill="none" stroke="#B3B8B3" stroke-miterlimit="10" d="M215.229,249.829c0,0,5.003,4.846,9.62-4.68
	c0,0-1.73,8.891-4.617,9.526"/>
<path fill="none" stroke="#B3B8B3" stroke-miterlimit="10" d="M38.559,350.454c0,0,4.134-1.473,9.042,1.387"/>
<path fill="none" stroke="#B3B8B3" stroke-miterlimit="10" d="M127.795,87.652c0,0,18.535,41.279,43.939-4.445"/>
<path fill="none" stroke="#B3B8B3" stroke-miterlimit="10" d="M94.944,116.229c0,0,42.436,6.034,49.075,10.479
	c6.64,4.445,9.811,0,9.811,0s41.891-14.549,48.502-10.162"/>
<path fill="none" stroke="#B3B8B3" stroke-miterlimit="10" d="M55.395,274.996c0,0,13.569-12.383,16.745-40.009
	c0,0,9.814-42.664,11.835-44.353c0,0-4.907-52.374,21.94-56.819"/>
<path fill="none" stroke="#B3B8B3" stroke-miterlimit="10" d="M199.158,226.097c-47.344,23.497-100.75,0-100.75,0
	s-11.835-8.053-13.856-35.462c0,0-3.465,52.667-5.774,55.178c0,0-17.898,69.829-20.785,81.26c-2.887,11.432,2.31,26.355,2.31,26.355
	"/>
<path fill="none" stroke="#B3B8B3" stroke-miterlimit="10" d="M199.667,195.295c13.5-32.708-5.995-43.184-5.995-43.184
	c-10.68-6.033-25.405,0-25.405,0c-15.591,6.668-43.589-0.953-43.589-0.953c-19.63-5.08-26.27,5.081-26.27,5.081
	c-13.278,12.702,0.043,43.165,0.043,43.165s-2.551,5.857,21.941,5.003c0,0,24.437-3.078,29.372-2.442c0,0,18.857,1.073,26.763,2.442
	c0,0,20.897-2.125,22.631-4.348"/>
<path fill="none" stroke="#B3B8B3" stroke-miterlimit="10" d="M188.477,133.816c0,0,26.558,6.229,23.672,32.584
	c0,0,0.656,48.264-12.99,56.837"/>
<path fill="none" stroke="#B3B8B3" stroke-miterlimit="10" d="M240.956,274.996c0,0-10.91-13.653-16.106-33.975
	c0,0-9.486-47.427-13.747-50.386"/>
<path fill="none" stroke="#B3B8B3" stroke-miterlimit="10" d="M98.408,183.864c0,0,12.414,5.399,28.001,0c0,0,36.408-0.953,45.196,0
	c0,0,23.852,6.385,28.27,0"/>
<path fill="none" stroke="#B3B8B3" stroke-miterlimit="10" d="M98.438,185.072c0,0,17.868,23.128,40.962,5.563"/>
<path fill="none" stroke="#B3B8B3" stroke-miterlimit="10" d="M99.563,254.675c0,0,44.167,25.403,98.44,0"/>
<path fill="none" stroke="#B3B8B3" stroke-miterlimit="10" d="M98.408,270.552c0,0,51.673,29.53,100.75,0"/>
<path fill="none" stroke="#B3B8B3" stroke-miterlimit="10" d="M98.438,213.078c0,0,47.025,16.195,99.564,0"/>
<path fill="none" stroke="#B3B8B3" stroke-miterlimit="10" d="M98.12,240.386c0,0,47.921,22.863,99.883,2.224"/>
<path fill="none" stroke="#B3B8B3" stroke-miterlimit="10" d="M97.254,290.556c0,0,48.786,23.18,101.904,0"/>
<path fill="none" stroke="#B3B8B3" stroke-miterlimit="10" d="M92.518,310.229l5.313-1.891c0,0,48.21,32.056,100.172,0.945
	l6.64,0.008"/>
<path fill="none" stroke="#B3B8B3" stroke-miterlimit="10" d="M90.614,331.2c0,0,8.083-3.81,15.3,5.081"/>
<path fill="none" stroke="#B3B8B3" stroke-miterlimit="10" d="M105.914,336.281c0,0,4.648,5.08,13.005,23.18
	c0,0,5.182,7.938,11.533,0c0,0,5.196-11.471,13.567-9.386"/>
<path fill="none" stroke="#B3B8B3" stroke-miterlimit="10" d="M206.952,331.836c0,0-9.815-4.446-17.031,6.032
	c0,0-10.907,22.863-13.394,23.181c0,0-4.505,3.81-10.568-1.905c0,0-5.214-7.545-6.945-8.814"/>
<path fill="none" stroke="#B3B8B3" stroke-miterlimit="10" d="M33.167,389.308c0.577-25.085,23.954-61.601,23.954-61.601
	s-4.035,16.192-6.056,29.531c0,0-6.732,28.578-7.985,33.976"/>
<path fill="none" stroke="#B3B8B3" stroke-miterlimit="10" d="M74.073,133.816c0,0,3.551,4.249,31.841,0
	c0,0,8.949,0.105,13.135,0.944c0,0,31.034,13.859,59.035,0.84c0,0,5.188-2.932,21.791-1.784c0,0,15.069,3.615,23.342,0l0,0"/>
<path fill="none" stroke="#B3B8B3" stroke-miterlimit="10" d="M171.734,75.583v18.394c0,0,0.823,5.106,5.029,6.375
	c0,0,22.971,15.658,27.879,17.118"/>
<path fill="none" stroke="#B3B8B3" stroke-miterlimit="10" d="M199.875,226.097l4.768,11.113c-1.154,3.175,2.31,31.118,2.31,31.118
	c-0.578,12.066,29.156,85.099,29.156,85.099c-2.021,16.512,4.848,34.611,4.848,34.611c-0.35,30.801,5.835,19.688,5.835,19.688
	v-2.027v-14.485l0,0h1.442c0,0,4.329,29.215,6.351,26.165"/>
<path fill="none" stroke="#B3B8B3" stroke-miterlimit="10" d="M202.332,116.546c0,0,19.391,6.391,23.698,24.63
	c0,0,4.354,28.082,0,47.134l4.882,40.645c0,0,1.731,0.952,10.044,30.165c0,0,1.792,33.341,1.504,34.294
	c0,0,11.812,54.965,15.125,57.727c0,0,18.361,15.307,19.227,16.259c0.867,0.952,4.908,4.764,5.774,4.764s6.062,3.175,5.773,5.399
	c-0.289,2.221-9.236,2.221-10.104,0c0,0-5.773-3.495-9.813-4.766c0,0,0.558,4.624,3.463,16.512c0,0,4.042,25.721-0.287,26.037
	c0,0-2.889,0.317-3.176-3.811l-4.043-22.227h-1.154l1.538,16.39c0,0,1.35,14.235,0.772,16.389c0,0-2.022,3.104-4.909-1.342
	l-1.161-13.02l-3.457-14.923l2.309,22.86c0,0-1.153,2.668-3.752,1.715"/>
<path fill="none" stroke="#B3B8B3" stroke-miterlimit="10" d="M254.584,417.378c0,0,2.599,3.05,3.752-1.715"/>
<path fill="none" stroke="#B3B8B3" stroke-miterlimit="10" d="M211.103,190.635c0,0,5.953,57.849,7.108,58.881
	c1.155,1.031,20.495,78.191,20.495,78.191l0.311,1.26l17.011,63.836"/>
<path fill="none" stroke="#B3B8B3" stroke-miterlimit="10" d="M238.706,327.707c-1.443,9.526-2.598,25.72-2.598,25.72"/>
<path fill="none" stroke="#B3B8B3" stroke-miterlimit="10" d="M263.244,388.039c0,0-7.462-44.16-24.228-59.072"/>
<path fill="none" stroke="#B3B8B3" stroke-miterlimit="10" d="M249.676,351.84c0,0,4.331-2.542,8.66,0"/>
<path fill="none" stroke="#B3B8B3" stroke-miterlimit="10" d="M98.408,474.089c0,0,13.28-26.67,17.321-27.94
	c0,0,19.341-13.972,23.094-33.024c0,0,8.325-41.28,9.526-41.916c1.202-0.634-1.536,5.084-1.536,5.084"/>
<path fill="none" stroke="#B3B8B3" stroke-miterlimit="10" d="M198.935,474.089c0,0-7.571-15.558-10.747-19.686l-16.453-17.782
	c0,0-8.661-9.074-11.26-19.62c0,0-3.753-11.181-6.062-21.024l-4.042-20.5c0,0.142-1.229-2.552-1.229-2.552"/>
<path fill="none" stroke="#B3B8B3" stroke-miterlimit="10" d="M104.182,501.717c0,0,4.924-19.688,19.351-8.574"/>
<path fill="none" stroke="#B3B8B3" stroke-miterlimit="10" d="M105.914,516.005c0,0,13.279,14.605,19.053-14.288"/>
<path fill="none" stroke="#B3B8B3" stroke-miterlimit="10" d="M173.642,493.778c0,0,13.969-12.701,18.299,7.939"/>
<path fill="none" stroke="#B3B8B3" stroke-miterlimit="10" d="M189.632,515.689c0,0-4.906,19.686-17.897-11.75"/>
<path fill="none" stroke="#B3B8B3" stroke-miterlimit="10" d="M96.676,516.958c0,0,7.794,19.051,15.589,20.956
	c0,0,19.342,13.019,20.785,16.513"/>
<path fill="none" stroke="#B3B8B3" stroke-miterlimit="10" d="M118.616,679.958c3.263-8.971,9.822-25.371,15.3-29.952"/>
<path fill="none" stroke="#B3B8B3" stroke-miterlimit="10" d="M113.856,634.583c0,0,4.759,10.975,1.584,17.961
	c0,0-3.753,13.653-7.794,15.241c0,0-12.603,14.924-18.714,12.384c0,0-2.937,1.588-3.802,4.276c-0.866,2.688-3.741,3.87-3.741,3.87"
	/>
<path fill="none" stroke="#B3B8B3" stroke-miterlimit="10" d="M125.087,662.173c3.168,10.06-11.09-89.012-13.399-123.622"/>
<path fill="none" stroke="#B3B8B3" stroke-miterlimit="10" d="M200.312,515.053c0,0-2.888,13.02-6.351,14.606
	c0,0-9.062,9.525-11.171,8.892c0,0-14.521,10.793-17.698,15.876c-3.175,5.083,0-1.27,0-1.27"/>
<path fill="none" stroke="#B3B8B3" stroke-miterlimit="10" d="M163.073,647.782c0,0,13.277,18.521,14.144,31.119"/>
<path fill="none" stroke="#B3B8B3" stroke-miterlimit="10" d="M208.684,681.355c0,0-15.877-6.899-16.743-11.026
	c0,0-10.391-11.749-11.257-18.417c0,0-2.28-11.535,1.313-16.883"/>
<path fill="none" stroke="#B3B8B3" stroke-miterlimit="10" d="M182.791,538.551c0,0,3.699,5.398-0.794,29.849
	c0,0-8.355,95.099-8.355,96.371"/>
<path fill="none" stroke="#B3B8B3" stroke-miterlimit="10" d="M144.02,353.427v-8.888V354.7c0,0-1.732,0.302-1.154,3.802
	c0,0,3.659,5.091,5.149,6.042c1.489,0.952,1.201,1.589,2.934,0l2.887-5.083c0,0,2.877-4.11-0.005-4.436v-10.486"/>
<path fill="none" stroke="#B3B8B3" stroke-miterlimit="10" d="M127.779,339.623c0,0,7.852,4.318,9.584,9.066v15.877
	c0,0,0.919,5.701,5.367,6.972h11.087c0,0,5.196-1.558,5.196-6.972v-4.777v-9.459c0,0,1.15-5.783,9.235-11.816"/>
<path fill="none" stroke="#B3B8B3" stroke-miterlimit="10" d="M144.02,354.7c0,0,4.627-1.255,9.811,0.325"/>
<line fill="none" stroke="#B3B8B3" stroke-miterlimit="10" x1="137.363" y1="360.056" x2="144.02" y2="360.056"/>
<line fill="none" stroke="#B3B8B3" stroke-miterlimit="10" x1="153.835" y1="359.46" x2="159.014" y2="359.789"/>
<text transform="matrix(0.8787 0 0 1 88.0288 57.3936)" fill="#010101" font-family="'MyriadPro-Regular'" font-size="12.0559">CN V</text>
<line fill="none" x1="111.977" y1="48.772" x2="133.05" y2="57.735"/>
<text transform="matrix(0.8787 0 0 1 98.4087 85.3354)" fill="#010101" font-family="'MyriadPro-Regular'" font-size="12.0559">C2</text>
<line fill="#FFFFFF" stroke="#010101" stroke-miterlimit="10" x1="113.292" y1="85.337" x2="137.363" y2="96.527"/>
<text transform="matrix(0.8787 0 0 1 144.0195 116.5459)" fill="#010101" font-family="'MyriadPro-Regular'" font-size="12.0559">C3</text>
<text transform="matrix(0.8787 0 0 1 87.7397 128.6826)" fill="#010101" font-family="'MyriadPro-Regular'" font-size="12.0559">C4</text>
<text transform="matrix(0.8787 0 0 1 194.3271 128.6836)" fill="#010101" font-family="'MyriadPro-Regular'" font-size="12.0559">C4</text>
<text transform="matrix(0.8787 0 0 1 72.1387 149.4292)" fill="#010101" font-family="'MyriadPro-Regular'" font-size="12.0559">C5</text>
<text transform="matrix(0.8787 0 0 1 211.9326 153.5996)" fill="#010101" font-family="'MyriadPro-Regular'" font-size="12.0559">C5</text>
<text transform="matrix(0.8787 0 0 1 57.1206 281.6646)" fill="#010101" font-family="'MyriadPro-Regular'" font-size="12.0559">C6</text>
<text transform="matrix(0.8787 0 0 1 227.2295 283.6758)" fill="#010101" font-family="'MyriadPro-Regular'" font-size="12.0559">C6</text>
<text transform="matrix(0.8787 0 0 1 0 351.8394)" fill="#010101" font-family="'MyriadPro-Regular'" font-size="12.0559">C7</text>
<line fill="#FFFFFF" stroke="#010101" stroke-miterlimit="10" x1="12.803" y1="354.626" x2="43.08" y2="377.54"/>
<text transform="matrix(0.8787 0 0 1 16.8462 326.1562)" fill="#010101" font-family="'MyriadPro-Regular'" font-size="12.0559">C8</text>
<line fill="#FFFFFF" stroke="#010101" stroke-miterlimit="10" x1="27.941" y1="333.334" x2="57.12" y2="365.51"/>
<text transform="matrix(0.8787 0 0 1 276.2832 328.9644)" fill="#010101" font-family="'MyriadPro-Regular'" font-size="12.0559">C8</text>
<line fill="none" stroke="#010101" stroke-miterlimit="10" x1="276.283" y1="333.334" x2="245.353" y2="371.538"/>
<text transform="matrix(0.8787 0 0 1 297.1719 349.1636)" fill="#010101" font-family="'MyriadPro-Regular'" font-size="12.0559">C7</text>
<line fill="#FFFFFF" stroke="#010101" stroke-miterlimit="10" x1="293.13" y1="351.276" x2="256.461" y2="377.54"/>
<text transform="matrix(0.8787 0 0 1 80.8833 260.3193)" fill="#010101" font-family="'MyriadPro-Regular'" font-size="12.0559">T1</text>
<text transform="matrix(0.8787 0 0 1 206.9521 260.3193)" fill="#010101" font-family="'MyriadPro-Regular'" font-size="12.0559">T1</text>
<text transform="matrix(0.8787 0 0 1 87.1499 197.2202)" fill="#010101" font-family="'MyriadPro-Regular'" font-size="12.0559">T2</text>
<text transform="matrix(0.8787 0 0 1 199.7344 201.3384)" fill="#010101" font-family="'MyriadPro-Regular'" font-size="12.0559">T2</text>
<text transform="matrix(0.8787 0 0 1 144.0195 149.4292)" fill="#010101" font-family="'MyriadPro-Regular'" font-size="12.0559">T2</text>
<text transform="matrix(0.8787 0 0 1 144.0195 166.3994)" fill="#010101" font-family="'MyriadPro-Regular'" font-size="12.0559">T3</text>
<text transform="matrix(0.8787 0 0 1 144.0195 181.3784)" fill="#010101" font-family="'MyriadPro-Regular'" font-size="12.0559">T4</text>
<text transform="matrix(0.8787 0 0 1 144.0195 197.2202)" fill="#010101" font-family="'MyriadPro-Regular'" font-size="12.0559">T5</text>
<text transform="matrix(0.8787 0 0 1 142.7461 213.0767)" fill="#010101" font-family="'MyriadPro-Regular'" font-size="12.0559">T6</text>
<text transform="matrix(0.8787 0 0 1 144.0195 232.8145)" fill="#010101" font-family="'MyriadPro-Regular'" font-size="12.0559">T7</text>
<text transform="matrix(0.8787 0 0 1 144.0195 249.5137)" fill="#010101" font-family="'MyriadPro-Regular'" font-size="12.0559">T8</text>
<text transform="matrix(0.8787 0 0 1 144.0195 265.9639)" fill="#010101" font-family="'MyriadPro-Regular'" font-size="12.0559">T9</text>
<text transform="matrix(0.8787 0 0 1 142.2275 281.6636)" fill="#010101" font-family="'MyriadPro-Regular'" font-size="12.0559">T10</text>
<text transform="matrix(0.8787 0 0 1 142.7461 296.748)" fill="#010101" font-family="'MyriadPro-Regular'" font-size="12.0559">T11</text>
<text transform="matrix(0.8787 0 0 1 140.6904 315.603)" fill="#010101" font-family="'MyriadPro-Regular'" font-size="12.0559">T12</text>
<text transform="matrix(0.8787 0 0 1 144.0195 336.2808)" fill="#010101" font-family="'MyriadPro-Regular'" font-size="12.0559">L1</text>
<text transform="matrix(0.8787 0 0 1 105.9141 391.2134)" fill="#010101" font-family="'MyriadPro-Regular'" font-size="12.0559">L2</text>
<text transform="matrix(0.8787 0 0 1 178.9316 391.2134)" fill="#010101" font-family="'MyriadPro-Regular'" font-size="12.0559">L2</text>
<text transform="matrix(0.8787 0 0 1 111.687 474.0894)" fill="#010101" font-family="'MyriadPro-Regular'" font-size="12.0559">L3</text>
<text transform="matrix(0.8787 0 0 1 171.7324 474.0894)" fill="#010101" font-family="'MyriadPro-Regular'" font-size="12.0559">L3</text>
<text transform="matrix(0.8787 0 0 1 120.3931 589.2085)" fill="#010101" font-family="'MyriadPro-Regular'" font-size="12.0559">L4</text>
<text transform="matrix(0.8787 0 0 1 168.25 589.2085)" fill="#010101" font-family="'MyriadPro-Regular'" font-size="12.0559">L4</text>
<text transform="matrix(0.8787 0 0 1 99.563 570.8032)" fill="#010101" font-family="'MyriadPro-Regular'" font-size="12.0559">L5</text>
<text transform="matrix(0.8787 0 0 1 185.3008 570.8032)" fill="#010101" font-family="'MyriadPro-Regular'" font-size="12.0559">L5</text>
<text transform="matrix(0.8787 0 0 1 68.4683 658.1909)" fill="#010101" font-family="'MyriadPro-Regular'" font-size="12.0559">S1</text>
<line fill="#FFFFFF" stroke="#010101" stroke-miterlimit="10" x1="84.017" y1="656.493" x2="104.012" y2="664.933"/>
<text transform="matrix(0.8787 0 0 1 144.0195 650.0044)" fill="#010101" font-family="'MyriadPro-Regular'" font-size="12.0559">S1</text>
<line fill="#FFFFFF" stroke="#010101" stroke-miterlimit="10" x1="133.05" y1="664.771" x2="144.02" y2="650.005"/>
<line fill="none" stroke="#010101" stroke-miterlimit="10" x1="153.83" y1="650.005" x2="165.959" y2="662.887"/>
<text transform="matrix(0.8787 0 0 1 220.041 658.1929)" fill="#010101" font-family="'MyriadPro-Regular'" font-size="12.0559">S1</text>
<line fill="#FFFFFF" stroke="#010101" stroke-miterlimit="10" x1="202.332" y1="673.501" x2="220.04" y2="661.45"/>
<text transform="matrix(0.8787 0 0 1 214.4561 338.5132)" fill="#010101" font-family="'MyriadPro-Regular'" font-size="12.0559">S3</text>
<line fill="#FFFFFF" stroke="#010101" stroke-miterlimit="10" x1="149.765" y1="347.661" x2="213.029" y2="338.159"/>
<line fill="none" stroke="#010101" stroke-miterlimit="10" x1="155.397" y1="354.785" x2="213.029" y2="338.159"/>
<text transform="matrix(0.8787 0 0 1 215.2314 381.3745)" fill="#010101" font-family="'MyriadPro-Regular'" font-size="12.0559">S4</text>
<line fill="#FFFFFF" stroke="#010101" stroke-miterlimit="10" x1="149.948" y1="364.543" x2="215.231" y2="377.54"/>
<path fill="none" stroke="#B3B8B3" stroke-miterlimit="10" d="M150.129,67.661c1.162-0.632,1.162-0.632,1.162-0.632
	s2.559-0.474,3.257-0.669"/>
<path fill="none" stroke="#B3B8B3" stroke-miterlimit="10" d="M143.15,61.414c0,0-2.093,4.199,0,5.123c0,0,1.451,1.664,3.516,0.538"
	/>
<path fill="none" stroke="#B3B8B3" stroke-miterlimit="10" d="M156.176,61.414c0,0,1.396,3.846,0,4.946c0,0-0.465,2.396-3.488,0.453
	"/>
<path fill="none" stroke="#B3B8B3" stroke-miterlimit="10" d="M145.012,66.36c0,0,3.953,1.935,5.117,1.301"/>
<path fill="none" stroke="#B3B8B3" stroke-miterlimit="10" d="M139.196,76.854c0,0,3.954-2.16,7.47-3.239l2.997,1.242l3.024-1.242
	c0,0,6.279,3.131,7.095,3.131c0,0-1.861,1.62-4.305,2.916c0,0-5.581,2.591-9.304,0.647C146.174,80.31,141.29,78.474,139.196,76.854
	c0,0,5.815-0.108,6.629-0.54l3.187,1.009c0,0,2.512-0.469,3.676-1.009l4.108,0.216"/>
<path fill="none" stroke="#B3B8B3" stroke-miterlimit="10" d="M129.892,49.348c0,0,8.902-5.453,12.098,1.292
	c0,0,0.114,0.762-1.141,0.012c0,0-2.395,1.253-4.907,0.937C135.942,51.589,131.718,52.062,129.892,49.348"/>
<path fill="none" stroke="#B3B8B3" stroke-miterlimit="10" d="M156.796,48.781c-1.825,0.913,7.728-5.929,13.755,0.62"/>
<path fill="none" stroke="#B3B8B3" stroke-miterlimit="10" d="M162.756,48.181c0,0-3.351,1.412-0.291,3.614
	c0,0,2.403,1.336,3.276-1.023c0,0,0.801-1.724-0.873-2.591C164.868,48.181,163.434,47.791,162.756,48.181z"/>
<path fill="#FFFFFF" d="M163.72,49.172c0,0-1.297,0.229-0.791,1.132c0,0,0.359,0.657,1.082,0.41c0,0,0.576,0.24,0.576-0.743
	C164.587,49.971,164.799,49.357,163.72,49.172z"/>
<path fill="none" stroke="#B3B8B3" stroke-miterlimit="10" d="M134.844,47.749c0,0-3.35,1.412-0.291,3.613
	c0,0,2.403,1.336,3.277-1.022c0,0,0.801-1.724-0.874-2.591C136.956,47.749,135.521,47.358,134.844,47.749z"/>
<path fill="#FFFFFF" d="M135.808,48.74c0,0-1.296,0.229-0.791,1.132c0,0,0.36,0.657,1.081,0.41c0,0,0.577,0.24,0.577-0.744
	C136.674,49.539,136.886,48.925,135.808,48.74z"/>
<path fill="none" stroke="#B3B8B3" stroke-miterlimit="10" d="M129.266,47.946c-1.238,1.2,7.426-5.511,12.42,0.711"/>
<path fill="none" stroke="#B3B8B3" stroke-miterlimit="10" d="M119.344,47.161c0,0-0.196-0.1-0.513-0.216
	c-1.711-0.624-6.929-1.694-3.592,10.149c0,0,2.609,11.205,6.868,9.202"/>
<path fill="none" stroke="#B3B8B3" stroke-miterlimit="10" d="M115.471,54.719l1.396-6.046l1.396,1.765c0,0-1.179,2.622,0.922,6.043
	l-0.922,2.125l2.326,2.807"/>
<path fill="none" stroke="#B3B8B3" stroke-miterlimit="10" d="M180.947,55.151v-6.371l-1.96,1.657c0,0,1.339,3.015-0.269,6.132
	l0.269,2.253l-2.774,2.591"/>
<path fill="none" stroke="#B3B8B3" stroke-miterlimit="10" d="M178.505,48.241c0,0,7.211-5.979,3.49,8.24
	c0,0-1.839,9.858-7.083,9.878l0,0"/>
<path fill="none" stroke="#B3B8B3" stroke-miterlimit="10" d="M178.505,48.105c-6.978,49.021-28.608,45.486-28.608,45.486
	c-16.908-0.981-24.439-15.194-27.79-27.294c-2.551-9.208-2.681-17.192-2.681-17.192c-0.019-0.365-0.036-0.726-0.05-1.083"/>
<line fill="#FFFFFF" stroke="#010101" stroke-miterlimit="10" x1="110.052" y1="55.043" x2="131.126" y2="64.007"/>
<path fill="none" stroke="#B3B8B3" stroke-miterlimit="10" d="M169.224,49.866c0,0-8.901-5.453-12.098,1.292
	c0,0-0.114,0.762,1.141,0.012c0,0,2.395,1.253,4.907,0.937C163.174,52.106,167.397,52.58,169.224,49.866"/>
<path fill="none" stroke="#B3B8B3" stroke-miterlimit="10" d="M142.667,42.838c-3.417-1.442-12.215-0.47-12.215-0.47
	c-2.458,0.422-3.792,1.778-3.792,1.778s-1.495,0.876,2.938,0.389c3.959-0.435,10.258,0.049,10.258,0.049
	c3.651,0.219,2.728-1.549,2.728-1.549"/>
<path fill="none" stroke="#B3B8B3" stroke-miterlimit="10" d="M155.44,42.838c3.417-1.442,12.215-0.47,12.215-0.47
	c2.457,0.422,3.792,1.778,3.792,1.778s1.495,0.876-2.938,0.389c-3.959-0.435-10.258,0.049-10.258,0.049
	c-3.651,0.219-2.728-1.549-2.728-1.549"/>
<path fill="none" stroke="#B3B8B3" stroke-miterlimit="10" d="M119.403,47.882c0,0-4.552-36.261,29.467-26.205
	c0,0,10.576-12.95,25.823,9.37c0,0,3.966,15.208,3.702,17.075c0,0,2.021-2.359,4.666,0.536c0,0,5.469-15.325,3.002-19.058
	c0,0-7.581-23.768-15.776-21.406c0,0-9.604-12.906-31.336-5.288c-0.101,0.036-0.201,0.072-0.304,0.108
	c-21.945,7.846-17.33,8.761-18.58,11.427c0,0-18.436,15.54-4.688,32.794C115.379,47.235,116.495,45.75,119.403,47.882z"/>
</svg>
