<?xml version="1.0" encoding="utf-8"?>
<!-- Generator: Adobe Illustrator 15.0.2, SVG Export Plug-In  -->
<!DOCTYPE svg PUBLIC "-//W3C//DTD SVG 1.1//EN" "http://www.w3.org/Graphics/SVG/1.1/DTD/svg11.dtd" [
	<!ENTITY ns_flows "http://ns.adobe.com/Flows/1.0/">
]>
<svg version="1.1"
	 xmlns="http://www.w3.org/2000/svg" xmlns:xlink="http://www.w3.org/1999/xlink" xmlns:a="http://ns.adobe.com/AdobeSVGViewerExtensions/3.0/"
	 x="0px" y="0px" width="700px" height="300px" viewBox="-28.032 -28.423 700 300"
	 overflow="visible" enable-background="new -28.032 -28.423 700 300" xml:space="preserve">
<defs>
</defs>
<path fill="none" stroke="#AF7833" stroke-width="8" stroke-miterlimit="10" stroke-dasharray="20,20" d="M619.072,224.093
	c-7.426-1.143-15.67-10.121-21.512-14.25c-27.818-19.67-57.066-36.623-88.615-49.613c-41.209-16.971-91.162-34.705-133.172-11.684
	c-35.904,19.676-72.685,43.861-113.538,52.193c-8.158,1.664-11.846,2.693-18.571-2.338c-6.323-4.729-12.311-9.908-19.196-13.838
	c-24.122-13.764-52.037-19.777-79.611-20.107c-28.715-0.344-57.321,4.688-86.065,2.568c-16.669-1.229-35.463-6.449-46.233-19.838
	c-13.167-16.369-10.79-41.084,4.71-55.398c10.733-9.912,27.659-15.113,41.249-19.625c21.122-7.014,40.428-11.194,62.75-10.828
	c18.478,0.304,36.67,5.821,55.201,4.553c23.764-1.626,44.796-17.733,63.663-30.933c22.427-15.69,39.908-28.76,68.122-30.388
	c16.29-0.94,33.388-1.594,48.378,5.59c14.158,6.786,27.566,16.975,37.748,28.99c7.695,9.082,17.514,24.31,29.727,27.442
	c8.35,2.142,10.084-4.874,15.977-9.33c8.426-6.371,19.277-9.26,29.135-12.588c20.07-6.777,42.117-8.29,63.234-5.743
	c28.273,3.409,69.555,23.684,75.906,54.99c5.984,29.5-21.592,46.744-46.328,54.287c-51.832,15.801-99.732-5.74-142.762-32.936
	c-23.873-15.088-48.182-30.33-73.689-42.554c-21.699-10.398-44.289-14.459-67.932-17.729c-38.641-5.344-77.258,8.684-110.929,27.318
	c-11.376,6.296-43.129,25.294-36.842,43.688c4.25,12.436,24.779,17.936,36.017,13.85c6.801-2.473,13.609-7.84,19.766-11.543
	c9.686-5.822,20.468-10.205,29.258-17.371c12.084-9.852,23.614-22.85,39.111-26.854c15.14-3.912,37.27-5.784,44.908,11.129
	c4.766,10.553,3.814,32.025-9.581,35.81c-9.657,2.727-25.275-5.074-22.378-16.889c3.01-12.276,35.809-16.766,46.046-13.086
	c4.667,1.677,8.879,7.739,12.396,10.834c7.715,6.788,17.471,13.54,26.613,18.219c7.008,3.588,23.691,9.832,30.965,6.025"/>
</svg>
