<?xml version="1.0" encoding="utf-8"?>
<!-- Generator: Adobe Illustrator 15.0.2, SVG Export Plug-In  -->
<!DOCTYPE svg PUBLIC "-//W3C//DTD SVG 1.1//EN" "http://www.w3.org/Graphics/SVG/1.1/DTD/svg11.dtd" [
	<!ENTITY ns_flows "http://ns.adobe.com/Flows/1.0/">
]>
<svg version="1.1"
	 xmlns="http://www.w3.org/2000/svg" xmlns:xlink="http://www.w3.org/1999/xlink" xmlns:a="http://ns.adobe.com/AdobeSVGViewerExtensions/3.0/"
	 x="0px" y="0px" width="700px" height="300px" viewBox="-41.644 -41.864 700 300"
	 overflow="visible" enable-background="new -41.644 -41.864 700 300" xml:space="preserve">
<defs>
</defs>
<path fill="none" stroke="#F04D23" stroke-miterlimit="10" stroke-dasharray="20,20" d="M615.571,220.592
	c-7.425-1.143-15.67-10.12-21.511-14.25c-27.819-19.67-57.067-36.622-88.615-49.613c-41.209-16.97-91.162-34.704-133.172-11.684
	c-35.904,19.676-72.685,43.862-113.538,52.193c-8.158,1.664-11.846,2.693-18.571-2.337c-6.323-4.729-12.311-9.909-19.196-13.838
	c-24.122-13.764-52.037-19.778-79.611-20.108c-28.715-0.343-57.321,4.688-86.065,2.569c-16.669-1.229-35.463-6.449-46.233-19.839
	c-13.167-16.369-10.79-41.084,4.71-55.397c10.733-9.912,27.659-15.113,41.249-19.625c21.122-7.014,40.428-11.194,62.75-10.828
	c18.478,0.304,36.67,5.821,55.201,4.553c23.764-1.626,44.796-17.733,63.663-30.933c22.427-15.69,39.908-28.76,68.122-30.388
	c16.289-0.94,33.387-1.594,48.377,5.59c14.159,6.786,27.567,16.975,37.749,28.99c7.695,9.082,17.514,24.31,29.726,27.442
	c8.35,2.142,10.085-4.874,15.978-9.33c8.425-6.371,19.277-9.26,29.135-12.588c20.069-6.777,42.116-8.29,63.233-5.743
	c28.273,3.409,69.556,23.684,75.907,54.99c5.984,29.499-21.592,46.744-46.329,54.286c-51.831,15.801-99.731-5.739-142.762-32.936
	c-23.873-15.088-48.182-30.33-73.688-42.554c-21.699-10.398-44.289-14.459-67.932-17.729c-38.641-5.344-77.258,8.684-110.929,27.318
	c-11.376,6.296-43.129,25.294-36.842,43.688c4.25,12.437,24.779,17.937,36.017,13.851c6.801-2.473,13.609-7.841,19.766-11.543
	c9.686-5.822,20.468-10.205,29.258-17.371c12.084-9.852,23.614-22.85,39.111-26.854c15.14-3.912,37.27-5.784,44.908,11.129
	c4.766,10.553,3.814,32.025-9.581,35.81c-9.657,2.728-25.275-5.073-22.378-16.889c3.01-12.276,35.809-16.766,46.046-13.086
	c4.667,1.677,8.879,7.739,12.396,10.834c7.714,6.788,17.471,13.539,26.612,18.22c7.009,3.588,23.691,9.832,30.965,6.024"/>
</svg>
