<svg version="1.1"
      xmlns="http://www.w3.org/2000/svg"
      xmlns:xlink="http://www.w3.org/1999/xlink"  id="snapshot-03211" width="250" height="250" viewBox="0 0 250 250"><desc>This image was made on Patterninja.com</desc><defs>
<!-- image 81288 -->
<g id="transformed-81288" data-image="81288" transform="translate(-79.2464510246358, -76.71056459184744) rotate(45, 79.2464510246358, 76.71056459184744)"><g><svg version="1.1" width="158.4929020492716px" height="153.4211291836949px" viewBox="0 0 158.4929020492716 153.4211291836949"><g id="original-81288"><svg xmlns="http://www.w3.org/2000/svg" viewBox="0 0 70 68" xmlns:xlink="http://www.w3.org/1999/xlink" version="1.1" preserveAspectRatio="xMidYMid meet">
  <path fill-rule="evenodd" d="M14 65c9.113 0 11-2.853 11-8 0-.169-.02-.832-.025-1h20.05c0 .168-.025.831-.025 1 0 5.147 1.887 8 11 8v3H14v-3z" fill="rgba(81, 96, 120, 1)" stroke="none"/>
  <rect width="70" height="54" y="2" fill-rule="evenodd" rx="6" fill="rgba(111, 130, 164, 1)" stroke="none"/>
  <path fill-rule="evenodd" d="M70 47V5.998A5.993 5.993 0 0 0 64.002 0H5.998A5.995 5.995 0 0 0 0 5.998V47h70z" fill="rgba(165, 181, 211, 1)" stroke="none"/>
  <circle cx="35" cy="52" r="3" fill-rule="evenodd" fill="rgba(80, 96, 121, 1)" stroke="none"/>
</svg>
</g></svg></g></g>
<!-- /image 81288 -->

<!-- image 64983 -->
<g id="transformed-64983" data-image="64983" transform="translate(32.71911276622743, -15.094734041916423) rotate(45, 12.03088723377257, 28.374734041916422)"><g><svg version="1.1" width="24.06177446754514px" height="56.749468083832845px" viewBox="0 0 24.06177446754514 56.749468083832845"><g id="original-64983"><svg xmlns="http://www.w3.org/2000/svg" viewBox="0 0 28 66" xmlns:xlink="http://www.w3.org/1999/xlink" version="1.1" preserveAspectRatio="xMidYMid meet">
  <path fill-rule="evenodd" d="M14 0a7 7 0 0 1 7 7v47a7 7 0 0 1-14 0V7a7 7 0 0 1 7-7z" fill="rgba(218, 221, 230, 1)" stroke="none"/>
  <path fill-rule="evenodd" d="M21 39.873V26H7v13.873C2.815 42.293 0 46.818 0 52c0 7.732 6.268 14 14 14s14-6.268 14-14c0-5.182-2.815-9.706-7-12.127z" fill="rgba(255, 89, 89, 1)" stroke="none"/>
  <ellipse cx="14" cy="45" fill-rule="evenodd" rx="8" ry="4" fill="rgba(255, 255, 255, 0.25)" stroke="none"/>
  <path fill-rule="evenodd" d="M7 10h6v2H7v-2zm0 7h6v2H7v-2zm0 7h6v2H7v-2zm0 7h6v2H7v-2z" fill="rgba(0, 0, 0, 0.35)" stroke="none"/>
</svg>
</g></svg></g></g>
<!-- /image 64983 -->

<!-- image 93166 -->
<g id="transformed-93166" data-image="93166" transform="translate(95.18243308142758, 70.58435361390704) rotate(0, 33.53756691857243, 36.935646386092955)"><g><svg version="1.1" width="67.07513383714486px" height="73.87129277218591px" viewBox="0 0 67.07513383714486 73.87129277218591"><g id="original-93166"><svg xmlns="http://www.w3.org/2000/svg" viewBox="0 0 60 66" xmlns:xlink="http://www.w3.org/1999/xlink" version="1.1" preserveAspectRatio="xMidYMid meet">
  <path fill-rule="evenodd" d="M58.126 57L39 31v-7h3v-6H18v6h3v7L1.874 57c-3.728 4.946-1.681 8.993 4.546 8.993h47.16c6.228-.005 8.274-4.052 4.546-8.993z" fill="rgba(138, 211, 235, 1)" stroke="none"/>
  <path fill-rule="evenodd" d="M14 48c15 7 16-10 31-2l6.586 9.246c2.861 3.71 3.29 6.745-1.489 6.745H9.9c-4.779 0-4.35-3.035-1.489-6.745L14 48z" fill="rgba(106, 175, 13, 1)" stroke="none"/>
  <circle cx="22" cy="43" r="3" fill-rule="evenodd" fill="rgba(107, 173, 36, 1)" stroke="none"/>
  <circle cx="31" cy="34" r="5" fill-rule="evenodd" fill="rgba(107, 173, 36, 1)" stroke="none"/>
  <circle cx="28" cy="13" r="2" fill-rule="evenodd" fill="rgba(107, 173, 36, 1)" stroke="none"/>
  <circle cx="36" cy="4" r="4" fill-rule="evenodd" fill="rgba(107, 173, 36, 1)" stroke="none"/>
  <path fill-rule="evenodd" d="M24 18h-6v6h3v7L1.874 57c-3.728 4.946-1.681 8.993 4.546 8.993H30V18h-6z" fill="rgba(255, 255, 255, 0.394)" stroke="none"/>
</svg>
</g></svg></g></g>
<!-- /image 93166 -->

<!-- image 66748 -->
<g id="transformed-66748" data-image="66748" transform="translate(-23.243058807221516, 187.96520250349053) rotate(45, 24.433058807221517, 30.694797496509466)"><g><svg version="1.1" width="48.866117614443034px" height="61.38959499301893px" viewBox="0 0 48.866117614443034 61.38959499301893"><g id="original-66748"><svg xmlns="http://www.w3.org/2000/svg" viewBox="0 0 55 69" xmlns:xlink="http://www.w3.org/1999/xlink" version="1.1" preserveAspectRatio="xMidYMid meet">
  <path fill-rule="evenodd" d="M5 69V5h50v64z" fill="rgba(144, 144, 143, 1)" stroke="none"/>
  <path fill-rule="evenodd" d="M0 64V0h36l14 14v50z" fill="rgba(255, 255, 255, 1)" stroke="none"/>
  <path fill-rule="evenodd" d="M36 0l14 14H36z" fill="rgba(210, 210, 210, 1)" stroke="none"/>
  <path fill-rule="evenodd" d="M10.5 49h29a.5.5 0 1 1 0 1h-29a.5.5 0 1 1 0-1z" fill="rgba(144, 144, 143, 1)" stroke="none"/>
  <path fill-rule="evenodd" d="M10.5 39h29a.5.5 0 1 1 0 1h-29a.5.5 0 1 1 0-1z" fill="rgba(144, 144, 143, 1)" stroke="none"/>
  <path fill-rule="evenodd" d="M10.5 29h29a.5.5 0 1 1 0 1h-29a.5.5 0 1 1 0-1z" fill="rgba(144, 144, 143, 1)" stroke="none"/>
  <path fill-rule="evenodd" d="M10.5 19h29a.5.5 0 1 1 0 1h-29a.5.5 0 1 1 0-1z" fill="rgba(144, 144, 143, 1)" stroke="none"/>
</svg>
</g></svg></g></g>
<!-- /image 66748 -->
</defs><rect x="0" y="0" width="250" height="250" fill="rgba(96, 172, 202, 1)"></rect><use xlink:href="#transformed-81288" transform="translate(-250, -250)"></use><use xlink:href="#transformed-81288" transform="translate(0, -250)"></use><use xlink:href="#transformed-81288" transform="translate(250, -250)"></use><use xlink:href="#transformed-81288" transform="translate(-250, 0)"></use><use xlink:href="#transformed-81288" transform="translate(0, 0)"></use><use xlink:href="#transformed-81288" transform="translate(250, 0)"></use><use xlink:href="#transformed-81288" transform="translate(-250, 250)"></use><use xlink:href="#transformed-81288" transform="translate(0, 250)"></use><use xlink:href="#transformed-81288" transform="translate(250, 250)"></use><use xlink:href="#transformed-64983" transform="translate(-250, -250)"></use><use xlink:href="#transformed-64983" transform="translate(0, -250)"></use><use xlink:href="#transformed-64983" transform="translate(250, -250)"></use><use xlink:href="#transformed-64983" transform="translate(-250, 0)"></use><use xlink:href="#transformed-64983" transform="translate(0, 0)"></use><use xlink:href="#transformed-64983" transform="translate(250, 0)"></use><use xlink:href="#transformed-64983" transform="translate(-250, 250)"></use><use xlink:href="#transformed-64983" transform="translate(0, 250)"></use><use xlink:href="#transformed-64983" transform="translate(250, 250)"></use><use xlink:href="#transformed-93166" transform="translate(-250, -250)"></use><use xlink:href="#transformed-93166" transform="translate(0, -250)"></use><use xlink:href="#transformed-93166" transform="translate(250, -250)"></use><use xlink:href="#transformed-93166" transform="translate(-250, 0)"></use><use xlink:href="#transformed-93166" transform="translate(0, 0)"></use><use xlink:href="#transformed-93166" transform="translate(250, 0)"></use><use xlink:href="#transformed-93166" transform="translate(-250, 250)"></use><use xlink:href="#transformed-93166" transform="translate(0, 250)"></use><use xlink:href="#transformed-93166" transform="translate(250, 250)"></use><use xlink:href="#transformed-66748" transform="translate(-250, -250)"></use><use xlink:href="#transformed-66748" transform="translate(0, -250)"></use><use xlink:href="#transformed-66748" transform="translate(250, -250)"></use><use xlink:href="#transformed-66748" transform="translate(-250, 0)"></use><use xlink:href="#transformed-66748" transform="translate(0, 0)"></use><use xlink:href="#transformed-66748" transform="translate(250, 0)"></use><use xlink:href="#transformed-66748" transform="translate(-250, 250)"></use><use xlink:href="#transformed-66748" transform="translate(0, 250)"></use><use xlink:href="#transformed-66748" transform="translate(250, 250)"></use></svg>