<?xml version="1.0" standalone="no"?>
<!DOCTYPE svg PUBLIC "-//W3C//DTD SVG 20010904//EN"
 "http://www.w3.org/TR/2001/REC-SVG-20010904/DTD/svg10.dtd">
<svg version="1.0" xmlns="http://www.w3.org/2000/svg"
 width="374.000000pt" height="374.000000pt" viewBox="0 0 374.000000 374.000000"
 preserveAspectRatio="xMidYMid meet">
<metadata>
Created by potrace 1.11, written by Peter Selinger 2001-2013
</metadata>
<g transform="translate(0.000000,374.000000) scale(0.100000,-0.100000)"
fill="#000000" stroke="none">
<path d="M1588 3725 c-793 -129 -1398 -708 -1559 -1495 -21 -103 -24 -142 -24
-360 0 -218 3 -257 24 -360 155 -758 723 -1326 1481 -1481 170 -35 550 -35
720 0 758 155 1326 723 1481 1481 21 103 24 142 24 360 0 218 -3 257 -24 360
-154 750 -710 1313 -1458 1476 -103 23 -146 27 -348 30 -165 2 -254 -1 -317
-11z"/>
</g>
</svg>
